<svg xmlns="http://www.w3.org/2000/svg" viewBox="0 0 7320 100" width="7320" height="100"><g fill="none" stroke="#1d71b8" stroke-width="3" stroke-miterlimit="10"><path d="M45.6 52.7L27.7 35.3l24.7-3.5 11-22.4 11 22.4L99 35.3 81.2 52.7l4.2 24.5-22-11.5" stroke-dasharray="0,199.2417144813075" stroke-dashoffset="199.241714"/><path d="M17.5 93l28.6-39.7 20.8-10-2.6 22.8L44.9 93m-13.7 0l24-33.2" stroke-dasharray="0,128.12158742581414" stroke-dashoffset="128.121587"/></g><g fill="none" stroke="#1d71b8" stroke-width="3" stroke-miterlimit="10"><path d="M165.6 52.7l-17.9-17.4 24.7-3.5 11-22.4 11 22.4 24.6 3.5-17.8 17.4 4.2 24.5-22-11.5" stroke-dasharray="0,199.2417144813075" stroke-dashoffset="199.241714"/><path d="M137.5 93l28.6-39.7 20.8-10-2.6 22.8L164.9 93m-13.7 0l24-33.2" stroke-dasharray="0.15866830201020543,127.96291912380394" stroke-dashoffset="128.121587"/></g><g fill="none" stroke="#1d71b8" stroke-width="3" stroke-miterlimit="10"><path d="M285.6 52.7l-17.9-17.4 24.7-3.5 11-22.4 11 22.4 24.6 3.5-17.8 17.4 4.2 24.5-22-11.5" stroke-dasharray="0,199.2417144813075" stroke-dashoffset="199.241714"/><path d="M257.5 93l28.6-39.7 20.8-10-2.6 22.8L284.9 93m-13.7 0l24-33.2" stroke-dasharray="0.6671279024536653,127.45445952336047" stroke-dashoffset="128.121587"/></g><g fill="none" stroke="#1d71b8" stroke-width="3" stroke-miterlimit="10"><path d="M405.6 52.7l-17.9-17.4 24.7-3.5 11-22.4 11 22.4 24.6 3.5-17.8 17.4 4.2 24.5-22-11.5" stroke-dasharray="0,199.2417144813075" stroke-dashoffset="199.241714"/><path d="M377.5 93l28.6-39.7 20.8-10-2.6 22.8L404.9 93m-13.7 0l24-33.2" stroke-dasharray="1.5818630489597572,126.53972437685438" stroke-dashoffset="128.121587"/></g><g fill="none" stroke="#1d71b8" stroke-width="3" stroke-miterlimit="10"><path d="M525.6 52.7l-17.9-17.4 24.7-3.5 11-22.4 11 22.4 24.6 3.5-17.8 17.4 4.2 24.5-22-11.5" stroke-dasharray="0,199.2417144813075" stroke-dashoffset="199.241714"/><path d="M497.5 93l28.6-39.7 20.8-10-2.6 22.8L524.9 93m-13.7 0l24-33.2" stroke-dasharray="2.9716087671096783,125.14997865870446" stroke-dashoffset="128.121587"/></g><g fill="none" stroke="#1d71b8" stroke-width="3" stroke-miterlimit="10"><path d="M645.6 52.7l-17.9-17.4 24.7-3.5 11-22.4 11 22.4 24.6 3.5-17.8 17.4 4.2 24.5-22-11.5" stroke-dasharray="0,199.2417144813075" stroke-dashoffset="199.241714"/><path d="M617.5 93l28.6-39.7 20.8-10-2.6 22.8L644.9 93m-13.7 0l24-33.2" stroke-dasharray="4.919672415051059,123.20191501076309" stroke-dashoffset="128.121587"/></g><g fill="none" stroke="#1d71b8" stroke-width="3" stroke-miterlimit="10"><path d="M765.6 52.7l-17.9-17.4 24.7-3.5 11-22.4 11 22.4 24.6 3.5-17.8 17.4 4.2 24.5-22-11.5" stroke-dasharray="0,199.2417144813075" stroke-dashoffset="199.241714"/><path d="M737.5 93l28.6-39.7 20.8-10-2.6 22.8L764.9 93m-13.7 0l24-33.2" stroke-dasharray="7.525540781934054,120.59604664388009" stroke-dashoffset="128.121587"/></g><g fill="none" stroke="#1d71b8" stroke-width="3" stroke-miterlimit="10"><path d="M885.6 52.7l-17.9-17.4 24.7-3.5 11-22.4 11 22.4 24.6 3.5-17.8 17.4 4.2 24.5-22-11.5" stroke-dasharray="0,199.2417144813075" stroke-dashoffset="199.241714"/><path d="M857.5 93l28.6-39.7 20.8-10-2.6 22.8L884.9 93m-13.7 0l24-33.2" stroke-dasharray="10.903849401941688,117.21773802387246" stroke-dashoffset="128.121587"/></g><g fill="none" stroke="#1d71b8" stroke-width="3" stroke-miterlimit="10"><path d="M1005.6 52.7l-17.9-17.4 24.7-3.5 11-22.4 11 22.4 24.6 3.5-17.8 17.4 4.2 24.5-22-11.5" stroke-dasharray="0,199.2417144813075" stroke-dashoffset="199.241714"/><path d="M977.5 93l28.6-39.7 20.8-10-2.6 22.8-19.4 26.9m-13.7 0l24-33.2" stroke-dasharray="15.176565002025004,112.94502242378913" stroke-dashoffset="128.121587"/></g><g fill="none" stroke="#1d71b8" stroke-width="3" stroke-miterlimit="10"><path d="M1125.6 52.7l-17.9-17.4 24.7-3.5 11-22.4 11 22.4 24.6 3.5-17.8 17.4 4.2 24.5-22-11.5" stroke-dasharray="0,199.2417144813075" stroke-dashoffset="199.241714"/><path d="M1097.5 93l28.6-39.7 20.8-10-2.6 22.8-19.4 26.9m-13.7 0l24-33.2" stroke-dasharray="20.450956265424264,107.67063116038987" stroke-dashoffset="128.121587"/></g><g fill="none" stroke="#1d71b8" stroke-width="3" stroke-miterlimit="10"><path d="M1245.6 52.7l-17.9-17.4 24.7-3.5 11-22.4 11 22.4 24.6 3.5-17.8 17.4 4.2 24.5-22-11.5" stroke-dasharray="0,199.2417144813075" stroke-dashoffset="199.241714"/><path d="M1217.5 93l28.6-39.7 20.8-10-2.6 22.8-19.4 26.9m-13.7 0l24-33.2" stroke-dasharray="26.774531705252013,101.34705572056212" stroke-dashoffset="128.121587"/></g><g fill="none" stroke="#1d71b8" stroke-width="3" stroke-miterlimit="10"><path d="M1365.6 52.7l-17.9-17.4 24.7-3.5 11-22.4 11 22.4 24.6 3.5-17.8 17.4 4.2 24.5-22-11.5" stroke-dasharray="0,199.2417144813075" stroke-dashoffset="199.241714"/><path d="M1337.5 93l28.6-39.7 20.8-10-2.6 22.8-19.4 26.9m-13.7 0l24-33.2" stroke-dasharray="34.068724087779145,94.052863338035" stroke-dashoffset="128.121587"/></g><g fill="none" stroke="#1d71b8" stroke-width="3" stroke-miterlimit="10"><path d="M1485.6 52.7l-17.9-17.4 24.7-3.5 11-22.4 11 22.4 24.6 3.5-17.8 17.4 4.2 24.5-22-11.5" stroke-dasharray="0,199.2417144813075" stroke-dashoffset="199.241714"/><path d="M1457.5 93l28.6-39.7 20.8-10-2.6 22.8-19.4 26.9m-13.7 0l24-33.2" stroke-dasharray="42.07698743994139,86.04459998587275" stroke-dashoffset="128.121587"/></g><g fill="none" stroke="#1d71b8" stroke-width="3" stroke-miterlimit="10"><path d="M1605.6 52.7l-17.9-17.4 24.7-3.5 11-22.4 11 22.4 24.6 3.5-17.8 17.4 4.2 24.5-22-11.5" stroke-dasharray="0,199.2417144813075" stroke-dashoffset="199.241714"/><path d="M1577.5 93l28.6-39.7 20.8-10-2.6 22.8-19.4 26.9m-13.7 0l24-33.2" stroke-dasharray="50.39290523930034,77.7286821865138" stroke-dashoffset="128.121587"/></g><g fill="none" stroke="#1d71b8" stroke-width="3" stroke-miterlimit="10"><path d="M1725.6 52.7l-17.9-17.4 24.7-3.5 11-22.4 11 22.4 24.6 3.5-17.8 17.4 4.2 24.5-22-11.5" stroke-dasharray="0,199.2417144813075" stroke-dashoffset="199.241714"/><path d="M1697.5 93l28.6-39.7 20.8-10-2.6 22.8-19.4 26.9m-13.7 0l24-33.2" stroke-dasharray="58.58381875855294,69.5377686672612" stroke-dashoffset="128.121587"/></g><g fill="none" stroke="#1d71b8" stroke-width="3" stroke-miterlimit="10"><path d="M1845.6 52.7l-17.9-17.4 24.7-3.5 11-22.4 11 22.4 24.6 3.5-17.8 17.4 4.2 24.5-22-11.5" stroke-dasharray="0,199.2417144813075" stroke-dashoffset="199.241714"/><path d="M1817.5 93l28.6-39.7 20.8-10-2.6 22.8-19.4 26.9m-13.7 0l24-33.2" stroke-dasharray="66.32084054680396,61.800746879010184" stroke-dashoffset="128.121587"/></g><g fill="none" stroke="#1d71b8" stroke-width="3" stroke-miterlimit="10"><path d="M1965.6 52.7l-17.9-17.4 24.7-3.5 11-22.4 11 22.4 24.6 3.5-17.8 17.4 4.2 24.5-22-11.5" stroke-dasharray="0,199.2417144813075" stroke-dashoffset="199.241714"/><path d="M1937.5 93l28.6-39.7 20.8-10-2.6 22.8-19.4 26.9m-13.7 0l24-33.2" stroke-dasharray="73.42587020345177,54.69571722236237" stroke-dashoffset="128.121587"/></g><g fill="none" stroke="#1d71b8" stroke-width="3" stroke-miterlimit="10"><path d="M2085.6 52.7l-17.9-17.4 24.7-3.5 11-22.4 11 22.4 24.6 3.5-17.8 17.4 4.2 24.5-22-11.5" stroke-dasharray="0,199.2417144813075" stroke-dashoffset="199.241714"/><path d="M2057.5 93l28.6-39.7 20.8-10-2.6 22.8-19.4 26.9m-13.7 0l24-33.2" stroke-dasharray="79.8433833695831,48.27820405623104" stroke-dashoffset="128.121587"/></g><g fill="none" stroke="#1d71b8" stroke-width="3" stroke-miterlimit="10"><path d="M2205.6 52.7l-17.9-17.4 24.7-3.5 11-22.4 11 22.4 24.6 3.5-17.8 17.4 4.2 24.5-22-11.5" stroke-dasharray="0,199.2417144813075" stroke-dashoffset="199.241714"/><path d="M2177.5 93l28.6-39.7 20.8-10-2.6 22.8-19.4 26.9m-13.7 0l24-33.2" stroke-dasharray="85.59071519210588,42.530872233708266" stroke-dashoffset="128.121587"/></g><g fill="none" stroke="#1d71b8" stroke-width="3" stroke-miterlimit="10"><path d="M2325.6 52.7l-17.9-17.4 24.7-3.5 11-22.4 11 22.4 24.6 3.5-17.8 17.4 4.2 24.5-22-11.5" stroke-dasharray="0,199.2417144813075" stroke-dashoffset="199.241714"/><path d="M2297.5 93l28.6-39.7 20.8-10-2.6 22.8-19.4 26.9m-13.7 0l24-33.2" stroke-dasharray="90.71900391899625,37.4025835068179" stroke-dashoffset="128.121587"/></g><g fill="none" stroke="#1d71b8" stroke-width="3" stroke-miterlimit="10"><path d="M2445.6 52.7l-17.9-17.4 24.7-3.5 11-22.4 11 22.4 24.6 3.5-17.8 17.4 4.2 24.5-22-11.5" stroke-dasharray="0,199.2417144813075" stroke-dashoffset="199.241714"/><path d="M2417.5 93l28.6-39.7 20.8-10-2.6 22.8-19.4 26.9m-13.7 0l24-33.2" stroke-dasharray="95.29027709673325,32.831310329080885" stroke-dashoffset="128.121587"/></g><g fill="none" stroke="#1d71b8" stroke-width="3" stroke-miterlimit="10"><path d="M2565.6 52.7l-17.9-17.4 24.7-3.5 11-22.4 11 22.4 24.6 3.5-17.8 17.4 4.2 24.5-22-11.5" stroke-dasharray="0,199.2417144813075" stroke-dashoffset="199.241714"/><path d="M2537.5 93l28.6-39.7 20.8-10-2.6 22.8-19.4 26.9m-13.7 0l24-33.2" stroke-dasharray="99.36614632625297,28.75544109956117" stroke-dashoffset="128.121587"/></g><g fill="none" stroke="#1d71b8" stroke-width="3" stroke-miterlimit="10"><path d="M2685.6 52.7l-17.9-17.4 24.7-3.5 11-22.4 11 22.4 24.6 3.5-17.8 17.4 4.2 24.5-22-11.5" stroke-dasharray="0,199.2417144813075" stroke-dashoffset="199.241714"/><path d="M2657.5 93l28.6-39.7 20.8-10-2.6 22.8-19.4 26.9m-13.7 0l24-33.2" stroke-dasharray="103.00306523309268,25.118522192721457" stroke-dashoffset="128.121587"/></g><g fill="none" stroke="#1d71b8" stroke-width="3" stroke-miterlimit="10"><path d="M2805.6 52.7l-17.9-17.4 24.7-3.5 11-22.4 11 22.4 24.6 3.5-17.8 17.4 4.2 24.5-22-11.5" stroke-dasharray="0,199.2417144813075" stroke-dashoffset="199.241714"/><path d="M2777.5 93l28.6-39.7 20.8-10-2.6 22.8-19.4 26.9m-13.7 0l24-33.2" stroke-dasharray="106.25086009186099,21.870727333953155" stroke-dashoffset="128.121587"/></g><g fill="none" stroke="#1d71b8" stroke-width="3" stroke-miterlimit="10"><path d="M2925.6 52.7l-17.9-17.4 24.7-3.5 11-22.4 11 22.4 24.6 3.5-17.8 17.4 4.2 24.5-22-11.5" stroke-dasharray="0.0046112760221773815,199.2371032052853" stroke-dashoffset="199.241714"/><path d="M2897.5 93l28.6-39.7 20.8-10-2.6 22.8-19.4 26.9m-13.7 0l24-33.2" stroke-dasharray="109.1527425358257,18.96884488998845" stroke-dashoffset="128.121587"/></g><g fill="none" stroke="#1d71b8" stroke-width="3" stroke-miterlimit="10"><path d="M3045.6 52.7l-17.9-17.4 24.7-3.5 11-22.4 11 22.4 24.6 3.5-17.8 17.4 4.2 24.5-22-11.5" stroke-dasharray="1.6144821569387084,197.6272323243688" stroke-dashoffset="199.241714"/><path d="M3017.5 93l28.6-39.7 20.8-10-2.6 22.8-19.4 26.9m-13.7 0l24-33.2" stroke-dasharray="111.7459137109145,16.375673714899644" stroke-dashoffset="128.121587"/></g><g fill="none" stroke="#1d71b8" stroke-width="3" stroke-miterlimit="10"><path d="M3165.6 52.7l-17.9-17.4 24.7-3.5 11-22.4 11 22.4 24.6 3.5-17.8 17.4 4.2 24.5-22-11.5" stroke-dasharray="6.937405714954884,192.30430876635262" stroke-dashoffset="199.241714"/><path d="M3137.5 93l28.6-39.7 20.8-10-2.6 22.8-19.4 26.9m-13.7 0l24-33.2" stroke-dasharray="114.06234336874952,14.059244057064618" stroke-dashoffset="128.121587"/></g><g fill="none" stroke="#1d71b8" stroke-width="3" stroke-miterlimit="10"><path d="M3285.6 52.7l-17.9-17.4 24.7-3.5 11-22.4 11 22.4 24.6 3.5-17.8 17.4 4.2 24.5-22-11.5" stroke-dasharray="17.654128468243176,181.5875860130643" stroke-dashoffset="199.241714"/><path d="M3257.5 93l28.6-39.7 20.8-10-2.6 22.8-19.4 26.9m-13.7 0l24-33.2" stroke-dasharray="116.12954193514685,11.9920454906673" stroke-dashoffset="128.121587"/></g><g fill="none" stroke="#1d71b8" stroke-width="3" stroke-miterlimit="10"><path d="M3405.6 52.7l-17.9-17.4 24.7-3.5 11-22.4 11 22.4 24.6 3.5-17.8 17.4 4.2 24.5-22-11.5" stroke-dasharray="35.94869540003055,163.29301908127695" stroke-dashoffset="199.241714"/><path d="M3377.5 93l28.6-39.7 20.8-10-2.6 22.8-19.4 26.9m-13.7 0l24-33.2" stroke-dasharray="117.97125503621618,10.15033238959796" stroke-dashoffset="128.121587"/></g><g fill="none" stroke="#1d71b8" stroke-width="3" stroke-miterlimit="10"><path d="M3525.6 52.7l-17.9-17.4 24.7-3.5 11-22.4 11 22.4 24.6 3.5-17.8 17.4 4.2 24.5-22-11.5" stroke-dasharray="62.4694162190757,136.7722982622318" stroke-dashoffset="199.241714"/><path d="M3497.5 93l28.6-39.7 20.8-10-2.6 22.8-19.4 26.9m-13.7 0l24-33.2" stroke-dasharray="119.6080608502714,8.51352657554274" stroke-dashoffset="128.121587"/></g><g fill="none" stroke="#1d71b8" stroke-width="3" stroke-miterlimit="10"><path d="M3645.6 52.7l-17.9-17.4 24.7-3.5 11-22.4 11 22.4 24.6 3.5-17.8 17.4 4.2 24.5-22-11.5" stroke-dasharray="92.25859650379763,106.98311797750986" stroke-dashoffset="199.241714"/><path d="M3617.5 93l28.6-39.7 20.8-10-2.6 22.8-19.4 26.9m-13.7 0l24-33.2" stroke-dasharray="121.05787250802206,7.0637149177920895" stroke-dashoffset="128.121587"/></g><g fill="none" stroke="#1d71b8" stroke-width="3" stroke-miterlimit="10"><path d="M3765.6 52.7l-17.9-17.4 24.7-3.5 11-22.4 11 22.4 24.6 3.5-17.8 17.4 4.2 24.5-22-11.5" stroke-dasharray="118.49242787019989,80.7492866111076" stroke-dashoffset="199.241714"/><path d="M3737.5 93l28.6-39.7 20.8-10-2.6 22.8-19.4 26.9m-13.7 0l24-33.2" stroke-dasharray="122.33635602590485,5.785231399909295" stroke-dashoffset="128.121587"/></g><g fill="none" stroke="#1d71b8" stroke-width="3" stroke-miterlimit="10"><path d="M3885.6 52.7l-17.9-17.4 24.7-3.5 11-22.4 11 22.4 24.6 3.5-17.8 17.4 4.2 24.5-22-11.5" stroke-dasharray="139.12326463041282,60.11844985089466" stroke-dashoffset="199.241714"/><path d="M3857.5 93l28.6-39.7 20.8-10-2.6 22.8-19.4 26.9m-13.7 0l24-33.2" stroke-dasharray="123.45727636967526,4.664311056138892" stroke-dashoffset="128.121587"/></g><g fill="none" stroke="#1d71b8" stroke-width="3" stroke-miterlimit="10"><path d="M4005.6 52.7l-17.9-17.4 24.7-3.5 11-22.4 11 22.4 24.6 3.5-17.8 17.4 4.2 24.5-22-11.5" stroke-dasharray="154.93994870985705,44.30176577145045" stroke-dashoffset="199.241714"/><path d="M3977.5 93l28.6-39.7 20.8-10-2.6 22.8-19.4 26.9m-13.7 0l24-33.2" stroke-dasharray="124.43278374623499,3.6888036795791486" stroke-dashoffset="128.121587"/></g><g fill="none" stroke="#1d71b8" stroke-width="3" stroke-miterlimit="10"><path d="M4125.6 52.7l-17.9-17.4 24.7-3.5 11-22.4 11 22.4 24.6 3.5-17.8 17.4 4.2 24.5-22-11.5" stroke-dasharray="167.07555418379357,32.16616029751392" stroke-dashoffset="199.241714"/><path d="M4097.5 93l28.6-39.7 20.8-10-2.6 22.8-19.4 26.9m-13.7 0l24-33.2" stroke-dasharray="125.27365076197785,2.8479366638362875" stroke-dashoffset="128.121587"/></g><g fill="none" stroke="#1d71b8" stroke-width="3" stroke-miterlimit="10"><path d="M4245.6 52.7l-17.9-17.4 24.7-3.5 11-22.4 11 22.4 24.6 3.5-17.8 17.4 4.2 24.5-22-11.5" stroke-dasharray="176.4136225238669,22.828091957440577" stroke-dashoffset="199.241714"/><path d="M4217.5 93l28.6-39.7 20.8-10-2.6 22.8-19.4 26.9m-13.7 0l24-33.2" stroke-dasharray="125.98946940950387,2.132118016310278" stroke-dashoffset="128.121587"/></g><g fill="none" stroke="#1d71b8" stroke-width="3" stroke-miterlimit="10"><path d="M4365.6 52.7l-17.9-17.4 24.7-3.5 11-22.4 11 22.4 24.6 3.5-17.8 17.4 4.2 24.5-22-11.5" stroke-dasharray="183.58217197180971,15.659542509497797" stroke-dashoffset="199.241714"/><path d="M4337.5 93l28.6-39.7 20.8-10-2.6 22.8-19.4 26.9m-13.7 0l24-33.2" stroke-dasharray="126.58881526371272,1.5327721621014214" stroke-dashoffset="128.121587"/></g><g fill="none" stroke="#1d71b8" stroke-width="3" stroke-miterlimit="10"><path d="M4485.6 52.7l-17.9-17.4 24.7-3.5 11-22.4 11 22.4 24.6 3.5-17.8 17.4 4.2 24.5-22-11.5" stroke-dasharray="189.0266456063404,10.215068874967113" stroke-dashoffset="199.241714"/><path d="M4457.5 93l28.6-39.7 20.8-10-2.6 22.8-19.4 26.9m-13.7 0l24-33.2" stroke-dasharray="127.07938489407002,1.0422025317441261" stroke-dashoffset="128.121587"/></g><g fill="none" stroke="#1d71b8" stroke-width="3" stroke-miterlimit="10"><path d="M4605.6 52.7l-17.9-17.4 24.7-3.5 11-22.4 11 22.4 24.6 3.5-17.8 17.4 4.2 24.5-22-11.5" stroke-dasharray="193.06944004743957,6.172274433867918" stroke-dashoffset="199.241714"/><path d="M4577.5 93l28.6-39.7 20.8-10-2.6 22.8-19.4 26.9m-13.7 0l24-33.2" stroke-dasharray="127.4681113528977,0.6534760729164435" stroke-dashoffset="128.121587"/></g><g fill="none" stroke="#1d71b8" stroke-width="3" stroke-miterlimit="10"><path d="M4725.6 52.7l-17.9-17.4 24.7-3.5 11-22.4 11 22.4 24.6 3.5-17.8 17.4 4.2 24.5-22-11.5" stroke-dasharray="195.94974422591193,3.29197025539558" stroke-dashoffset="199.241714"/><path d="M4697.5 93l28.6-39.7 20.8-10-2.6 22.8-19.4 26.9m-13.7 0l24-33.2" stroke-dasharray="127.76126166307323,0.3603257627409203" stroke-dashoffset="128.121587"/></g><g fill="none" stroke="#1d71b8" stroke-width="3" stroke-miterlimit="10"><path d="M4845.6 52.7l-17.9-17.4 24.7-3.5 11-22.4 11 22.4 24.6 3.5-17.8 17.4 4.2 24.5-22-11.5" stroke-dasharray="197.8493309875166,1.3923834937909008" stroke-dashoffset="199.241714"/><path d="M4817.5 93l28.6-39.7 20.8-10-2.6 22.8-19.4 26.9m-13.7 0l24-33.2" stroke-dasharray="127.96451947299708,0.15706795281705213" stroke-dashoffset="128.121587"/></g><g fill="none" stroke="#1d71b8" stroke-width="3" stroke-miterlimit="10"><path d="M4965.6 52.7l-17.9-17.4 24.7-3.5 11-22.4 11 22.4 24.6 3.5-17.8 17.4 4.2 24.5-22-11.5" stroke-dasharray="198.90938635822286,0.33232812308462456" stroke-dashoffset="199.241714"/><path d="M4937.5 93l28.6-39.7 20.8-10-2.6 22.8-19.4 26.9m-13.7 0l24-33.2" stroke-dasharray="128.08305544087338,0.038531984940771064" stroke-dashoffset="128.121587"/></g><g fill="none" stroke="#1d71b8" stroke-width="3" stroke-miterlimit="10"><path d="M5085.6 52.7l-17.9-17.4 24.7-3.5 11-22.4 11 22.4 24.6 3.5-17.8 17.4 4.2 24.5-22-11.5"/><path d="M5057.5 93l28.6-39.7 20.8-10-2.6 22.8-19.4 26.9m-13.7 0l24-33.2"/></g><g fill="none" stroke="#1d71b8" stroke-width="3" stroke-miterlimit="10"><path d="M5205.6 52.7l-17.9-17.4 24.7-3.5 11-22.4 11 22.4 24.6 3.5-17.8 17.4 4.2 24.5-22-11.5"/><path d="M5177.5 93l28.6-39.7 20.8-10-2.6 22.8-19.4 26.9m-13.7 0l24-33.2"/></g><g fill="none" stroke="#1d71b8" stroke-width="3" stroke-miterlimit="10"><path d="M5325.6 52.7l-17.9-17.4 24.7-3.5 11-22.4 11 22.4 24.6 3.5-17.8 17.4 4.2 24.5-22-11.5"/><path d="M5297.5 93l28.6-39.7 20.8-10-2.6 22.8-19.4 26.9m-13.7 0l24-33.2"/></g><g fill="none" stroke="#1d71b8" stroke-width="3" stroke-miterlimit="10"><path d="M5445.6 52.7l-17.9-17.4 24.7-3.5 11-22.4 11 22.4 24.6 3.5-17.8 17.4 4.2 24.5-22-11.5"/><path d="M5417.5 93l28.6-39.7 20.8-10-2.6 22.8-19.4 26.9m-13.7 0l24-33.2"/></g><g fill="none" stroke="#1d71b8" stroke-width="3" stroke-miterlimit="10"><path d="M5565.6 52.7l-17.9-17.4 24.7-3.5 11-22.4 11 22.4 24.6 3.5-17.8 17.4 4.2 24.5-22-11.5"/><path d="M5537.5 93l28.6-39.7 20.8-10-2.6 22.8-19.4 26.9m-13.7 0l24-33.2"/></g><g fill="none" stroke="#1d71b8" stroke-width="3" stroke-miterlimit="10"><path d="M5685.6 52.7l-17.9-17.4 24.7-3.5 11-22.4 11 22.4 24.6 3.5-17.8 17.4 4.2 24.5-22-11.5"/><path d="M5657.5 93l28.6-39.7 20.8-10-2.6 22.8-19.4 26.9m-13.7 0l24-33.2"/></g><g fill="none" stroke="#1d71b8" stroke-width="3" stroke-miterlimit="10"><path d="M5805.6 52.7l-17.9-17.4 24.7-3.5 11-22.4 11 22.4 24.6 3.5-17.8 17.4 4.2 24.5-22-11.5"/><path d="M5777.5 93l28.6-39.7 20.8-10-2.6 22.8-19.4 26.9m-13.7 0l24-33.2"/></g><g fill="none" stroke="#1d71b8" stroke-width="3" stroke-miterlimit="10"><path d="M5925.6 52.7l-17.9-17.4 24.7-3.5 11-22.4 11 22.4 24.6 3.5-17.8 17.4 4.2 24.5-22-11.5"/><path d="M5897.5 93l28.6-39.7 20.8-10-2.6 22.8-19.4 26.9m-13.7 0l24-33.2"/></g><g fill="none" stroke="#1d71b8" stroke-width="3" stroke-miterlimit="10"><path d="M6045.6 52.7l-17.9-17.4 24.7-3.5 11-22.4 11 22.4 24.6 3.5-17.8 17.4 4.2 24.5-22-11.5"/><path d="M6017.5 93l28.6-39.7 20.8-10-2.6 22.8-19.4 26.9m-13.7 0l24-33.2"/></g><g fill="none" stroke="#1d71b8" stroke-width="3" stroke-miterlimit="10"><path d="M6165.6 52.7l-17.9-17.4 24.7-3.5 11-22.4 11 22.4 24.6 3.5-17.8 17.4 4.2 24.5-22-11.5"/><path d="M6137.5 93l28.6-39.7 20.8-10-2.6 22.8-19.4 26.9m-13.7 0l24-33.2"/></g><g fill="none" stroke="#1d71b8" stroke-width="3" stroke-miterlimit="10"><path d="M6285.6 52.7l-17.9-17.4 24.7-3.5 11-22.4 11 22.4 24.6 3.5-17.8 17.4 4.2 24.5-22-11.5"/><path d="M6257.5 93l28.6-39.7 20.8-10-2.6 22.8-19.4 26.9m-13.7 0l24-33.2"/></g><g fill="none" stroke="#1d71b8" stroke-width="3" stroke-miterlimit="10"><path d="M6405.6 52.7l-17.9-17.4 24.7-3.5 11-22.4 11 22.4 24.6 3.5-17.8 17.4 4.2 24.5-22-11.5"/><path d="M6377.5 93l28.6-39.7 20.8-10-2.6 22.8-19.4 26.9m-13.7 0l24-33.2"/></g><g fill="none" stroke="#1d71b8" stroke-width="3" stroke-miterlimit="10"><path d="M6525.6 52.7l-17.9-17.4 24.7-3.5 11-22.4 11 22.4 24.6 3.5-17.8 17.4 4.2 24.5-22-11.5"/><path d="M6497.5 93l28.6-39.7 20.8-10-2.6 22.8-19.4 26.9m-13.7 0l24-33.2"/></g><g fill="none" stroke="#1d71b8" stroke-width="3" stroke-miterlimit="10"><path d="M6645.6 52.7l-17.9-17.4 24.7-3.5 11-22.4 11 22.4 24.6 3.5-17.8 17.4 4.2 24.5-22-11.5"/><path d="M6617.5 93l28.6-39.7 20.8-10-2.6 22.8-19.4 26.9m-13.7 0l24-33.2"/></g><g fill="none" stroke="#1d71b8" stroke-width="3" stroke-miterlimit="10"><path d="M6765.6 52.7l-17.9-17.4 24.7-3.5 11-22.4 11 22.4 24.6 3.5-17.8 17.4 4.2 24.5-22-11.5"/><path d="M6737.5 93l28.6-39.7 20.8-10-2.6 22.8-19.4 26.9m-13.7 0l24-33.2"/></g><g fill="none" stroke="#1d71b8" stroke-width="3" stroke-miterlimit="10"><path d="M6885.6 52.7l-17.9-17.4 24.7-3.5 11-22.4 11 22.4 24.6 3.5-17.8 17.4 4.2 24.5-22-11.5"/><path d="M6857.5 93l28.6-39.7 20.8-10-2.6 22.8-19.4 26.9m-13.7 0l24-33.2"/></g><g fill="none" stroke="#1d71b8" stroke-width="3" stroke-miterlimit="10"><path d="M7005.6 52.7l-17.9-17.4 24.7-3.5 11-22.4 11 22.4 24.6 3.5-17.8 17.4 4.2 24.5-22-11.5"/><path d="M6977.5 93l28.6-39.7 20.8-10-2.6 22.8-19.4 26.9m-13.7 0l24-33.2"/></g><g fill="none" stroke="#1d71b8" stroke-width="3" stroke-miterlimit="10"><path d="M7125.6 52.7l-17.9-17.4 24.7-3.5 11-22.4 11 22.4 24.6 3.5-17.8 17.4 4.2 24.5-22-11.5"/><path d="M7097.5 93l28.6-39.7 20.8-10-2.6 22.8-19.4 26.9m-13.7 0l24-33.2"/></g><g fill="none" stroke="#1d71b8" stroke-width="3" stroke-miterlimit="10"><path d="M7245.6 52.7l-17.9-17.4 24.7-3.5 11-22.4 11 22.4 24.6 3.5-17.8 17.4 4.2 24.5-22-11.5"/><path d="M7217.5 93l28.6-39.7 20.8-10-2.6 22.8-19.4 26.9m-13.7 0l24-33.2"/></g></svg>