<?xml version="1.0" encoding="utf-8"?>
<!-- Generator: Adobe Illustrator 22.0.1, SVG Export Plug-In . SVG Version: 6.00 Build 0)  -->
<svg version="1.1" id="Ebene_1" xmlns="http://www.w3.org/2000/svg" xmlns:xlink="http://www.w3.org/1999/xlink" x="0px" y="0px"
	 viewBox="0 0 79 79" style="enable-background:new 0 0 79 79;" xml:space="preserve">
<style type="text/css">
	.st0{fill:#FA6F6F;}
</style>
<g>
	<polygon class="st0" points="14.3,10.5 10.7,14.1 16.8,20.3 20.5,16.7 	"/>
	<path class="st0" d="M35.9,77.4H43c0.7,0,1.3-0.3,1.8-0.7c0.5-0.5,0.8-1.1,0.8-1.8v-2.6H33.4v2.6c0,0.7,0.3,1.3,0.7,1.8
		C34.6,77.1,35.3,77.4,35.9,77.4z"/>
	<rect x="1.3" y="36.7" class="st0" width="8.7" height="5.1"/>
	<rect x="69" y="36.7" class="st0" width="8.7" height="5.1"/>
	<rect x="36.9" y="1.2" class="st0" width="5.1" height="8.7"/>
	<path class="st0" d="M39.5,19c-5.4,0-10.5,2.1-14.4,6c-3.8,3.8-6,8.9-6,14.4c0,7.2,3.9,14,10.2,17.6l0.5,0.3v7
		c0,0.7,0.3,1.3,0.7,1.8c0.5,0.5,1.1,0.7,1.8,0.7h14.2c0.7,0,1.3-0.3,1.8-0.7c0.5-0.5,0.7-1.1,0.7-1.8v-7l0.5-0.3
		c6.3-3.6,10.2-10.4,10.2-17.6c0-5.4-2.1-10.5-6-14.4C50,21.1,44.9,19,39.5,19z M44.1,53.8v7.8H35v-7.8c-6.3-2-10.7-7.9-10.7-14.5
		c0-4.1,1.6-7.9,4.5-10.8S35.5,24,39.6,24s7.9,1.6,10.8,4.5c2.9,2.9,4.5,6.7,4.5,10.8C54.7,45.9,50.4,51.8,44.1,53.8z"/>
	<polygon class="st0" points="64.7,10.5 58.5,16.6 62.2,20.3 68.3,14.1 	"/>
</g>
</svg>
