<svg width="72" height="70" viewBox="0 0 72 70" fill="none" xmlns="http://www.w3.org/2000/svg">
<path d="M35.9187 17.4028L35.2242 17.6077L7.48986 26.638L1.18417 28.6585L4.8562 29.8013V48.6685C3.53161 49.4167 2.63745 50.7816 2.63745 52.3772C2.63745 53.521 3.10498 54.6179 3.93717 55.4266C4.76936 56.2354 5.89806 56.6897 7.07495 56.6897C8.25185 56.6897 9.38055 56.2354 10.2127 55.4266C11.0449 54.6179 11.5125 53.521 11.5125 52.3772C11.5125 50.7816 10.6183 49.4167 9.2937 48.6685V31.2891L13.7312 32.7014V43.7522C13.7312 45.5203 14.8406 46.9866 16.1585 48C17.4765 49.007 19.1139 49.7185 21.0797 50.3568C25.0158 51.629 30.2032 52.3772 35.9187 52.3772C41.6342 52.3772 46.8216 51.6311 50.7577 50.3546C52.7235 49.7185 54.361 49.007 55.6789 47.9979C56.9968 46.9866 58.1062 45.5203 58.1062 43.7522V32.7014L64.3475 30.6789L70.6532 28.6585L64.3453 26.6359L36.611 17.6077L35.9187 17.4028ZM35.9187 21.9202L56.7195 28.6585L35.9187 35.3967L15.1179 28.6585L35.9187 21.9202ZM18.1687 34.1849L35.2265 39.7092L35.9187 39.9119L36.6132 39.7071L53.6687 34.1828V43.7522C53.6687 43.7738 53.6776 44.0239 52.9742 44.5608C52.2731 45.0999 51.0151 45.7791 49.3688 46.3138C46.0806 47.3769 41.2326 48.0647 35.9187 48.0647C30.6048 48.0647 25.7568 47.379 22.4664 46.3117C20.8245 45.7791 19.5643 45.0977 18.8632 44.5608C18.1576 44.0217 18.1687 43.7738 18.1687 43.7522V34.1828V34.1849Z" fill="#FA6F6F"/>
</svg>
