<svg xmlns="http://www.w3.org/2000/svg" viewBox="0 0 7320 100" width="7320" height="100"><g fill="none" stroke="#1d71b8" stroke-width="3" stroke-miterlimit="10"><path d="M61.7 29L75.4 8.3h29.1v71.4h-98V8.3h57l-9.3 15.5 14.3 9.5L87.5 8" stroke-dasharray="0,418.6069239018232" stroke-dashoffset="418.606924"/><path d="M104.7 20.3h10.5v69H17.5v-8.5" stroke-dasharray="0,185.7" stroke-dashoffset="185.7"/><path d="M104.7 65.6H37.9S34.7 40.1 52 28m13.5 9.8s-1.2 17.5-27.6 27.8" stroke-dasharray="0,108.83038954292059" stroke-dashoffset="108.83039"/></g><g fill="none" stroke="#1d71b8" stroke-width="3" stroke-miterlimit="10"><path d="M181.7 29l13.7-20.7h29.1v71.4h-98V8.3h57l-9.3 15.5 14.3 9.5 19-25.3" stroke-dasharray="0.2503692208375025,418.3565546809857" stroke-dashoffset="418.606924"/><path d="M224.7 20.3h10.5v69h-97.7v-8.5" stroke-dasharray="0.11106735616353172,185.58893264383644" stroke-dashoffset="185.7"/><path d="M224.7 65.6h-66.8S154.7 40.1 172 28m13.5 9.8s-1.2 17.5-27.6 27.8" stroke-dasharray="0.06509156508766537,108.76529797783292" stroke-dashoffset="108.83039"/></g><g fill="none" stroke="#1d71b8" stroke-width="3" stroke-miterlimit="10"><path d="M301.7 29l13.7-20.7h29.1v71.4h-98V8.3h57l-9.3 15.5 14.3 9.5 19-25.3" stroke-dasharray="1.0362482013522822,417.57067570047093" stroke-dashoffset="418.606924"/><path d="M344.7 20.3h10.5v69h-97.7v-8.5" stroke-dasharray="0.45969447709434,185.24030552290566" stroke-dashoffset="185.7"/><path d="M344.7 65.6h-66.8S274.7 40.1 292 28m13.5 9.8s-1.2 17.5-27.6 27.8" stroke-dasharray="0.269406187468531,108.56098335545205" stroke-dashoffset="108.83039"/></g><g fill="none" stroke="#1d71b8" stroke-width="3" stroke-miterlimit="10"><path d="M421.7 29l13.7-20.7h29.1v71.4h-98V8.3h57l-9.3 15.5 14.3 9.5 19-25.3" stroke-dasharray="2.4154507940062455,416.191473107817" stroke-dashoffset="418.606924"/><path d="M464.7 20.3h10.5v69h-97.7v-8.5" stroke-dasharray="1.0715284120626705,184.62847158793733" stroke-dashoffset="185.7"/><path d="M464.7 65.6h-66.8S394.7 40.1 412 28m13.5 9.8s-1.2 17.5-27.6 27.8" stroke-dasharray="0.6279744452939556,108.20241509762663" stroke-dashoffset="108.83039"/></g><g fill="none" stroke="#1d71b8" stroke-width="3" stroke-miterlimit="10"><path d="M541.7 29l13.7-20.7h29.1v71.4h-98V8.3h57l-9.3 15.5 14.3 9.5 19-25.3" stroke-dasharray="4.454293658723318,414.1526302430999" stroke-dashoffset="418.606924"/><path d="M584.7 20.3h10.5v69h-97.7v-8.5" stroke-dasharray="1.9759881769631604,183.72401182303682" stroke-dashoffset="185.7"/><path d="M584.7 65.6h-66.8S514.7 40.1 532 28m13.5 9.8s-1.2 17.5-27.6 27.8" stroke-dasharray="1.1580374961287359,107.67235204679184" stroke-dashoffset="108.83039"/></g><g fill="none" stroke="#1d71b8" stroke-width="3" stroke-miterlimit="10"><path d="M661.7 29l13.7-20.7h29.1v71.4h-98V8.3h57l-9.3 15.5 14.3 9.5 19-25.3" stroke-dasharray="7.228883925137829,411.3780399766854" stroke-dashoffset="418.606924"/><path d="M704.7 20.3h10.5v69h-97.7v-8.5" stroke-dasharray="3.2068359796478942,182.49316402035208" stroke-dashoffset="185.7"/><path d="M704.7 65.6h-66.8S634.7 40.1 652 28m13.5 9.8s-1.2 17.5-27.6 27.8" stroke-dasharray="1.879381846339977,106.9510076965806" stroke-dashoffset="108.83039"/></g><g fill="none" stroke="#1d71b8" stroke-width="3" stroke-miterlimit="10"><path d="M781.7 29l13.7-20.7h29.1v71.4h-98V8.3h57l-9.3 15.5 14.3 9.5 19-25.3" stroke-dasharray="10.826437106521439,407.7804867953018" stroke-dashoffset="418.606924"/><path d="M824.7 20.3h10.5v69h-97.7v-8.5" stroke-dasharray="4.802761865335392,180.8972381346646" stroke-dashoffset="185.7"/><path d="M824.7 65.6h-66.8S754.7 40.1 772 28m13.5 9.8s-1.2 17.5-27.6 27.8" stroke-dasharray="2.814681985386832,106.01570755753376" stroke-dashoffset="108.83039"/></g><g fill="none" stroke="#1d71b8" stroke-width="3" stroke-miterlimit="10"><path d="M901.7 29l13.7-20.7h29.1v71.4h-98V8.3h57l-9.3 15.5 14.3 9.5 19-25.3" stroke-dasharray="15.346449880606365,403.26047402121685" stroke-dashoffset="418.606924"/><path d="M944.7 20.3h10.5v69h-97.7v-8.5" stroke-dasharray="6.80790397890547,178.89209602109452" stroke-dashoffset="185.7"/><path d="M944.7 65.6h-66.8S874.7 40.1 892 28m13.5 9.8s-1.2 17.5-27.6 27.8" stroke-dasharray="3.9898052880725974,104.84058425484798" stroke-dashoffset="108.83039"/></g><g fill="none" stroke="#1d71b8" stroke-width="3" stroke-miterlimit="10"><path d="M1021.7 29l13.7-20.7h29.1v71.4h-98V8.3h57l-9.3 15.5 14.3 9.5 19-25.3" stroke-dasharray="20.901381508347402,397.7055423934758" stroke-dashoffset="418.606924"/><path d="M1064.7 20.3h10.5v69h-97.7v-8.5" stroke-dasharray="9.272150851977838,176.42784914802215" stroke-dashoffset="185.7"/><path d="M1064.7 65.6h-66.8S994.7 40.1 1012 28m13.5 9.8s-1.2 17.5-27.6 27.8" stroke-dasharray="5.433989171359564,103.39640037156101" stroke-dashoffset="108.83039"/></g><g fill="none" stroke="#1d71b8" stroke-width="3" stroke-miterlimit="10"><path d="M1141.7 29l13.7-20.7h29.1v71.4h-98V8.3h57l-9.3 15.5 14.3 9.5 19-25.3" stroke-dasharray="27.616207081744065,390.9907168200792" stroke-dashoffset="418.606924"/><path d="M1184.7 20.3h10.5v69h-97.7v-8.5" stroke-dasharray="12.250943217276145,173.44905678272386" stroke-dashoffset="185.7"/><path d="M1184.7 65.6h-66.8s-3.2-25.5 14.1-37.6m13.5 9.8s-1.2 17.5-27.6 27.8" stroke-dasharray="7.179724946711705,101.65066459620888" stroke-dashoffset="108.83039"/></g><g fill="none" stroke="#1d71b8" stroke-width="3" stroke-miterlimit="10"><path d="M1261.7 29l13.7-20.7h29.1v71.4h-98V8.3h57l-9.3 15.5 14.3 9.5 19-25.3" stroke-dasharray="35.62574386208312,382.9811800397401" stroke-dashoffset="418.606924"/><path d="M1304.7 20.3h10.5v69h-97.7v-8.5" stroke-dasharray="15.804087934150914,169.89591206584907" stroke-dashoffset="185.7"/><path d="M1304.7 65.6h-66.8s-3.2-25.5 14.1-37.6m13.5 9.8s-1.2 17.5-27.6 27.8" stroke-dasharray="9.262062715370034,99.56832682755055" stroke-dashoffset="108.83039"/></g><g fill="none" stroke="#1d71b8" stroke-width="3" stroke-miterlimit="10"><path d="M1381.7 29l13.7-20.7h29.1v71.4h-98V8.3h57l-9.3 15.5 14.3 9.5 19-25.3" stroke-dasharray="45.0679973139618,373.5389265878614" stroke-dashoffset="418.606924"/><path d="M1424.7 20.3h10.5v69h-97.7v-8.5" stroke-dasharray="19.992806194399055,165.70719380560092" stroke-dashoffset="185.7"/><path d="M1424.7 65.6h-66.8s-3.2-25.5 14.1-37.6m13.5 9.8s-1.2 17.5-27.6 27.8" stroke-dasharray="11.716881454994965,97.11350808792562" stroke-dashoffset="108.83039"/></g><g fill="none" stroke="#1d71b8" stroke-width="3" stroke-miterlimit="10"><path d="M1501.7 29l13.7-20.7h29.1v71.4h-98V8.3h57l-9.3 15.5 14.3 9.5 19-25.3" stroke-dasharray="56.071047481179725,362.5358764206435" stroke-dashoffset="418.606924"/><path d="M1544.7 20.3h10.5v69h-97.7v-8.5" stroke-dasharray="24.87391613163359,160.8260838683664" stroke-dashoffset="185.7"/><path d="M1544.7 65.6h-66.8s-3.2-25.5 14.1-37.6m13.5 9.8s-1.2 17.5-27.6 27.8" stroke-dasharray="14.577479709550996,94.25290983336959" stroke-dashoffset="108.83039"/></g><g fill="none" stroke="#1d71b8" stroke-width="3" stroke-miterlimit="10"><path d="M1621.7 29l13.7-20.7h29.1v71.4h-98V8.3h57l-9.3 15.5 14.3 9.5 19-25.3" stroke-dasharray="68.73070974295301,349.8762141588702" stroke-dashoffset="418.606924"/><path d="M1664.7 20.3h10.5v69h-97.7v-8.5" stroke-dasharray="30.48992281422411,155.21007718577587" stroke-dashoffset="185.7"/><path d="M1664.7 65.6h-66.8s-3.2-25.5 14.1-37.6m13.5 9.8s-1.2 17.5-27.6 27.8" stroke-dasharray="17.868767781397906,90.96162176152268" stroke-dashoffset="108.83039"/></g><g fill="none" stroke="#1d71b8" stroke-width="3" stroke-miterlimit="10"><path d="M1741.7 29l13.7-20.7h29.1v71.4h-98V8.3h57l-9.3 15.5 14.3 9.5 19-25.3" stroke-dasharray="83.07759223372551,335.5293316680977" stroke-dashoffset="418.606924"/><path d="M1784.7 20.3h10.5v69h-97.7v-8.5" stroke-dasharray="36.85440444702504,148.84559555297494" stroke-dashoffset="185.7"/><path d="M1784.7 65.6h-66.8s-3.2-25.5 14.1-37.6m13.5 9.8s-1.2 17.5-27.6 27.8" stroke-dasharray="21.59870324362994,87.23168629929064" stroke-dashoffset="108.83039"/></g><g fill="none" stroke="#1d71b8" stroke-width="3" stroke-miterlimit="10"><path d="M1861.7 29l13.7-20.7h29.1v71.4h-98V8.3h57l-9.3 15.5 14.3 9.5 19-25.3" stroke-dasharray="99.0371071994698,319.5698167023534" stroke-dashoffset="418.606924"/><path d="M1904.7 20.3h10.5v69h-97.7v-8.5" stroke-dasharray="43.93427283886701,141.765727161133" stroke-dashoffset="185.7"/><path d="M1904.7 65.6h-66.8s-3.2-25.5 14.1-37.6m13.5 9.8s-1.2 17.5-27.6 27.8" stroke-dasharray="25.747894600640024,83.08249494228056" stroke-dashoffset="108.83039"/></g><g fill="none" stroke="#1d71b8" stroke-width="3" stroke-miterlimit="10"><path d="M1981.7 29l13.7-20.7h29.1v71.4h-98V8.3h57l-9.3 15.5 14.3 9.5 19-25.3" stroke-dasharray="116.39513590773117,302.21178799409205" stroke-dashoffset="418.606924"/><path d="M2024.7 20.3h10.5v69h-97.7v-8.5" stroke-dasharray="51.63454186709772,134.06545813290228" stroke-dashoffset="185.7"/><path d="M2024.7 65.6h-66.8s-3.2-25.5 14.1-37.6m13.5 9.8s-1.2 17.5-27.6 27.8" stroke-dasharray="30.260674772571278,78.56971477034931" stroke-dashoffset="108.83039"/></g><g fill="none" stroke="#1d71b8" stroke-width="3" stroke-miterlimit="10"><path d="M2101.7 29l13.7-20.7h29.1v71.4h-98V8.3h57l-9.3 15.5 14.3 9.5 19-25.3" stroke-dasharray="134.790602145915,283.81632175590823" stroke-dashoffset="418.606924"/><path d="M2144.7 20.3h10.5v69h-97.7v-8.5" stroke-dasharray="59.7950329755341,125.90496702446589" stroke-dashoffset="185.7"/><path d="M2144.7 65.6h-66.8s-3.2-25.5 14.1-37.6m13.5 9.8s-1.2 17.5-27.6 27.8" stroke-dasharray="35.04317033634442,73.78721920657617" stroke-dashoffset="108.83039"/></g><g fill="none" stroke="#1d71b8" stroke-width="3" stroke-miterlimit="10"><path d="M2221.7 29l13.7-20.7h29.1v71.4h-98V8.3h57l-9.3 15.5 14.3 9.5 19-25.3" stroke-dasharray="153.7525266079401,264.8543972938831" stroke-dashoffset="418.606924"/><path d="M2264.7 20.3h10.5v69h-97.7v-8.5" stroke-dasharray="68.20681302870852,117.49318697129146" stroke-dashoffset="185.7"/><path d="M2264.7 65.6h-66.8s-3.2-25.5 14.1-37.6m13.5 9.8s-1.2 17.5-27.6 27.8" stroke-dasharray="39.97293501020732,68.85745453271326" stroke-dashoffset="108.83039"/></g><g fill="none" stroke="#1d71b8" stroke-width="3" stroke-miterlimit="10"><path d="M2341.7 29l13.7-20.7h29.1v71.4h-98V8.3h57l-9.3 15.5 14.3 9.5 19-25.3" stroke-dasharray="172.77645551916376,245.83046838265943" stroke-dashoffset="418.606924"/><path d="M2384.7 20.3h10.5v69h-97.7v-8.5" stroke-dasharray="76.6460991396157,109.05390086038427" stroke-dashoffset="185.7"/><path d="M2384.7 65.6h-66.8s-3.2-25.5 14.1-37.6m13.5 9.8s-1.2 17.5-27.6 27.8" stroke-dasharray="44.918819743186255,63.91156979973432" stroke-dashoffset="108.83039"/></g><g fill="none" stroke="#1d71b8" stroke-width="3" stroke-miterlimit="10"><path d="M2461.7 29l13.7-20.7h29.1v71.4h-98V8.3h57l-9.3 15.5 14.3 9.5 19-25.3" stroke-dasharray="191.4087442534974,227.19817964832583" stroke-dashoffset="418.606924"/><path d="M2504.7 20.3h10.5v69h-97.7v-8.5" stroke-dasharray="84.91164808399303,100.78835191600696" stroke-dashoffset="185.7"/><path d="M2504.7 65.6h-66.8s-3.2-25.5 14.1-37.6m13.5 9.8s-1.2 17.5-27.6 27.8" stroke-dasharray="49.7628849634483,59.067504579472285" stroke-dashoffset="108.83039"/></g><g fill="none" stroke="#1d71b8" stroke-width="3" stroke-miterlimit="10"><path d="M2581.7 29l13.7-20.7h29.1v71.4h-98V8.3h57l-9.3 15.5 14.3 9.5 19-25.3" stroke-dasharray="209.30346195091155,209.30346195091167" stroke-dashoffset="418.606924"/><path d="M2624.7 20.3h10.5v69h-97.7v-8.5" stroke-dasharray="92.84999999999998,92.85000000000001" stroke-dashoffset="185.7"/><path d="M2624.7 65.6h-66.8s-3.2-25.5 14.1-37.6m13.5 9.8s-1.2 17.5-27.6 27.8" stroke-dasharray="54.41519477146028,54.41519477146031" stroke-dashoffset="108.83039"/></g><g fill="none" stroke="#1d71b8" stroke-width="3" stroke-miterlimit="10"><path d="M2701.7 29l13.7-20.7h29.1v71.4h-98V8.3h57l-9.3 15.5 14.3 9.5 19-25.3" stroke-dasharray="226.23837172261125,192.36855217921197" stroke-dashoffset="418.606924"/><path d="M2744.7 20.3h10.5v69h-97.7v-8.5" stroke-dasharray="100.36256743508184,85.33743256491815" stroke-dashoffset="185.7"/><path d="M2744.7 65.6h-66.8s-3.2-25.5 14.1-37.6m13.5 9.8s-1.2 17.5-27.6 27.8" stroke-dasharray="58.817971510434006,50.01241803248658" stroke-dashoffset="108.83039"/></g><g fill="none" stroke="#1d71b8" stroke-width="3" stroke-miterlimit="10"><path d="M2821.7 29l13.7-20.7h29.1v71.4h-98V8.3h57l-9.3 15.5 14.3 9.5 19-25.3" stroke-dasharray="242.0999058864702,176.50701801535303" stroke-dashoffset="418.606924"/><path d="M2864.7 20.3h10.5v69h-97.7v-8.5" stroke-dasharray="107.39897014618325,78.30102985381674" stroke-dashoffset="185.7"/><path d="M2864.7 65.6h-66.8s-3.2-25.5 14.1-37.6m13.5 9.8s-1.2 17.5-27.6 27.8" stroke-dasharray="62.94168959352516,45.88869994939542" stroke-dashoffset="108.83039"/></g><g fill="none" stroke="#1d71b8" stroke-width="3" stroke-miterlimit="10"><path d="M2941.7 29l13.7-20.7h29.1v71.4h-98V8.3h57l-9.3 15.5 14.3 9.5 19-25.3" stroke-dasharray="256.8550093585688,161.75191454325443" stroke-dashoffset="418.606924"/><path d="M2984.7 20.3h10.5v69h-97.7v-8.5" stroke-dasharray="113.94454442677333,71.75545557322666" stroke-dashoffset="185.7"/><path d="M2984.7 65.6h-66.8s-3.2-25.5 14.1-37.6m13.5 9.8s-1.2 17.5-27.6 27.8" stroke-dasharray="66.77775528409458,42.052634258826004" stroke-dashoffset="108.83039"/></g><g fill="none" stroke="#1d71b8" stroke-width="3" stroke-miterlimit="10"><path d="M3061.7 29l13.7-20.7h29.1v71.4h-98V8.3h57l-9.3 15.5 14.3 9.5 19-25.3" stroke-dasharray="270.52309990529596,148.08382399652726" stroke-dashoffset="418.606924"/><path d="M3104.7 20.3h10.5v69h-97.7v-8.5" stroke-dasharray="120.00790427488354,65.69209572511645" stroke-dashoffset="185.7"/><path d="M3104.7 65.6h-66.8s-3.2-25.5 14.1-37.6m13.5 9.8s-1.2 17.5-27.6 27.8" stroke-dasharray="70.33121685764729,38.4991726852733" stroke-dashoffset="108.83039"/></g><g fill="none" stroke="#1d71b8" stroke-width="3" stroke-miterlimit="10"><path d="M3181.7 29l13.7-20.7h29.1v71.4h-98V8.3h57l-9.3 15.5 14.3 9.5 19-25.3" stroke-dasharray="283.15398438579217,135.45293951603105" stroke-dashoffset="418.606924"/><path d="M3224.7 20.3h10.5v69h-97.7v-8.5" stroke-dasharray="125.61114472338184,60.088855276618155" stroke-dashoffset="185.7"/><path d="M3224.7 65.6h-66.8s-3.2-25.5 14.1-37.6m13.5 9.8s-1.2 17.5-27.6 27.8" stroke-dasharray="73.61502321582024,35.21536632710034" stroke-dashoffset="108.83039"/></g><g fill="none" stroke="#1d71b8" stroke-width="3" stroke-miterlimit="10"><path d="M3301.7 29l13.7-20.7h29.1v71.4h-98V8.3h57l-9.3 15.5 14.3 9.5 19-25.3" stroke-dasharray="294.81260655111225,123.79431735071095" stroke-dashoffset="418.606924"/><path d="M3344.7 20.3h10.5v69h-97.7v-8.5" stroke-dasharray="130.78307574621343,54.91692425378656" stroke-dashoffset="185.7"/><path d="M3344.7 65.6h-66.8s-3.2-25.5 14.1-37.6m13.5 9.8s-1.2 17.5-27.6 27.8" stroke-dasharray="76.64605858417715,32.18433095874343" stroke-dashoffset="108.83039"/></g><g fill="none" stroke="#1d71b8" stroke-width="3" stroke-miterlimit="10"><path d="M3421.7 29l13.7-20.7h29.1v71.4h-98V8.3h57l-9.3 15.5 14.3 9.5 19-25.3" stroke-dasharray="305.56940490199133,113.03751899983189" stroke-dashoffset="418.606924"/><path d="M3464.7 20.3h10.5v69h-97.7v-8.5" stroke-dasharray="135.55494486662656,50.14505513337343" stroke-dashoffset="185.7"/><path d="M3464.7 65.6h-66.8s-3.2-25.5 14.1-37.6m13.5 9.8s-1.2 17.5-27.6 27.8" stroke-dasharray="79.44263572592403,29.387753816996554" stroke-dashoffset="108.83039"/></g><g fill="none" stroke="#1d71b8" stroke-width="3" stroke-miterlimit="10"><path d="M3541.7 29l13.7-20.7h29.1v71.4h-98V8.3h57l-9.3 15.5 14.3 9.5 19-25.3" stroke-dasharray="315.4946441877301,103.11227971409313" stroke-dashoffset="418.606924"/><path d="M3584.7 20.3h10.5v69h-97.7v-8.5" stroke-dasharray="139.95792252925585,45.742077470744135" stroke-dashoffset="185.7"/><path d="M3584.7 65.6h-66.8s-3.2-25.5 14.1-37.6m13.5 9.8s-1.2 17.5-27.6 27.8" stroke-dasharray="82.02302223196993,26.807367310950653" stroke-dashoffset="108.83039"/></g><g fill="none" stroke="#1d71b8" stroke-width="3" stroke-miterlimit="10"><path d="M3661.7 29l13.7-20.7h29.1v71.4h-98V8.3h57l-9.3 15.5 14.3 9.5 19-25.3" stroke-dasharray="324.65533474361644,93.95158915820679" stroke-dashoffset="418.606924"/><path d="M3704.7 20.3h10.5v69h-97.7v-8.5" stroke-dasharray="144.0217354742779,41.67826452572208" stroke-dashoffset="185.7"/><path d="M3704.7 65.6h-66.8s-3.2-25.5 14.1-37.6m13.5 9.8s-1.2 17.5-27.6 27.8" stroke-dasharray="84.40463960319403,24.425749939726558" stroke-dashoffset="108.83039"/></g><g fill="none" stroke="#1d71b8" stroke-width="3" stroke-miterlimit="10"><path d="M3781.7 29l13.7-20.7h29.1v71.4h-98V8.3h57l-9.3 15.5 14.3 9.5 19-25.3" stroke-dasharray="333.1137455737158,85.49317832810743" stroke-dashoffset="418.606924"/><path d="M3824.7 20.3h10.5v69h-97.7v-8.5" stroke-dasharray="147.7740071197365,37.92599288026349" stroke-dashoffset="185.7"/><path d="M3824.7 65.6h-66.8s-3.2-25.5 14.1-37.6m13.5 9.8s-1.2 17.5-27.6 27.8" stroke-dasharray="86.60367667829426,22.226712864626325" stroke-dashoffset="108.83039"/></g><g fill="none" stroke="#1d71b8" stroke-width="3" stroke-miterlimit="10"><path d="M3901.7 29l13.7-20.7h29.1v71.4h-98V8.3h57l-9.3 15.5 14.3 9.5 19-25.3" stroke-dasharray="340.9268558336056,77.68006806821761" stroke-dashoffset="418.606924"/><path d="M3944.7 20.3h10.5v69h-97.7v-8.5" stroke-dasharray="151.24001423146268,34.45998576853731" stroke-dashoffset="185.7"/><path d="M3944.7 65.6h-66.8s-3.2-25.5 14.1-37.6m13.5 9.8s-1.2 17.5-27.6 27.8" stroke-dasharray="88.63494702900881,20.195442513911765" stroke-dashoffset="108.83039"/></g><g fill="none" stroke="#1d71b8" stroke-width="3" stroke-miterlimit="10"><path d="M4021.7 29l13.7-20.7h29.1v71.4h-98V8.3h57l-9.3 15.5 14.3 9.5 19-25.3" stroke-dasharray="348.14633376647106,70.46059013535219" stroke-dashoffset="418.606924"/><path d="M4064.7 20.3h10.5v69h-97.7v-8.5" stroke-dasharray="154.44267757882656,31.257322421173434" stroke-dashoffset="185.7"/><path d="M4064.7 65.6h-66.8s-3.2-25.5 14.1-37.6m13.5 9.8s-1.2 17.5-27.6 27.8" stroke-dasharray="90.51188348387389,18.318506059046694" stroke-dashoffset="108.83039"/></g><g fill="none" stroke="#1d71b8" stroke-width="3" stroke-miterlimit="10"><path d="M4141.7 29l13.7-20.7h29.1v71.4h-98V8.3h57l-9.3 15.5 14.3 9.5 19-25.3" stroke-dasharray="354.81879400139513,63.788129900428075" stroke-dashoffset="418.606924"/><path d="M4184.7 20.3h10.5v69h-97.7v-8.5" stroke-dasharray="157.40267607592742,28.297323924072582" stroke-dashoffset="185.7"/><path d="M4184.7 65.6h-66.8s-3.2-25.5 14.1-37.6m13.5 9.8s-1.2 17.5-27.6 27.8" stroke-dasharray="92.24660502122417,16.58378452169642" stroke-dashoffset="108.83039"/></g><g fill="none" stroke="#1d71b8" stroke-width="3" stroke-miterlimit="10"><path d="M4261.7 29l13.7-20.7h29.1v71.4h-98V8.3h57l-9.3 15.5 14.3 9.5 19-25.3" stroke-dasharray="360.98618635608693,57.620737545736276" stroke-dashoffset="418.606924"/><path d="M4304.7 20.3h10.5v69h-97.7v-8.5" stroke-dasharray="160.1386192600274,25.561380739972567" stroke-dashoffset="185.7"/><path d="M4304.7 65.6h-66.8s-3.2-25.5 14.1-37.6m13.5 9.8s-1.2 17.5-27.6 27.8" stroke-dasharray="93.850017851019,14.980371691901574" stroke-dashoffset="108.83039"/></g><g fill="none" stroke="#1d71b8" stroke-width="3" stroke-miterlimit="10"><path d="M4381.7 29l13.7-20.7h29.1v71.4h-98V8.3h57l-9.3 15.5 14.3 9.5 19-25.3" stroke-dasharray="366.6862320127517,51.92069188907152" stroke-dashoffset="418.606924"/><path d="M4424.7 20.3h10.5v69h-97.7v-8.5" stroke-dasharray="162.66724078538684,23.03275921461314" stroke-dashoffset="185.7"/><path d="M4424.7 65.6h-66.8s-3.2-25.5 14.1-37.6m13.5 9.8s-1.2 17.5-27.6 27.8" stroke-dasharray="95.33192881284712,13.498460730073461" stroke-dashoffset="108.83039"/></g><g fill="none" stroke="#1d71b8" stroke-width="3" stroke-miterlimit="10"><path d="M4501.7 29l13.7-20.7h29.1v71.4h-98V8.3h57l-9.3 15.5 14.3 9.5 19-25.3" stroke-dasharray="371.95286065367065,46.65406324815257" stroke-dashoffset="418.606924"/><path d="M4544.7 20.3h10.5v69h-97.7v-8.5" stroke-dasharray="165.00359234283988,20.696407657160105" stroke-dashoffset="185.7"/><path d="M4544.7 65.6h-66.8s-3.2-25.5 14.1-37.6m13.5 9.8s-1.2 17.5-27.6 27.8" stroke-dasharray="96.70115902343852,12.12923051948206" stroke-dashoffset="108.83039"/></g><g fill="none" stroke="#1d71b8" stroke-width="3" stroke-miterlimit="10"><path d="M4621.7 29l13.7-20.7h29.1v71.4h-98V8.3h57l-9.3 15.5 14.3 9.5 19-25.3" stroke-dasharray="376.8166244416764,41.79029946014678" stroke-dashoffset="418.606924"/><path d="M4664.7 20.3h10.5v69h-97.7v-8.5" stroke-dasharray="167.16122730743618,18.538772692563807" stroke-dashoffset="185.7"/><path d="M4664.7 65.6h-66.8s-3.2-25.5 14.1-37.6m13.5 9.8s-1.2 17.5-27.6 27.8" stroke-dasharray="97.96565150425943,10.864738038661162" stroke-dashoffset="108.83039"/></g><g fill="none" stroke="#1d71b8" stroke-width="3" stroke-miterlimit="10"><path d="M4741.7 29l13.7-20.7h29.1v71.4h-98V8.3h57l-9.3 15.5 14.3 9.5 19-25.3" stroke-dasharray="381.30507767734383,37.30184622447938" stroke-dashoffset="418.606924"/><path d="M4784.7 20.3h10.5v69h-97.7v-8.5" stroke-dasharray="169.15236915978386,16.547630840216137" stroke-dashoffset="185.7"/><path d="M4784.7 65.6h-66.8s-3.2-25.5 14.1-37.6m13.5 9.8s-1.2 17.5-27.6 27.8" stroke-dasharray="99.13256988566066,9.69781965725993" stroke-dashoffset="108.83039"/></g><g fill="none" stroke="#1d71b8" stroke-width="3" stroke-miterlimit="10"><path d="M4861.7 29l13.7-20.7h29.1v71.4h-98V8.3h57l-9.3 15.5 14.3 9.5 19-25.3" stroke-dasharray="385.4431183046522,33.16380559717101" stroke-dashoffset="418.606924"/><path d="M4904.7 20.3h10.5v69h-97.7v-8.5" stroke-dasharray="170.98806298283057,14.711937017169424" stroke-dashoffset="185.7"/><path d="M4904.7 65.6h-66.8s-3.2-25.5 14.1-37.6m13.5 9.8s-1.2 17.5-27.6 27.8" stroke-dasharray="100.2083871923042,8.622002350616379" stroke-dashoffset="108.83039"/></g><g fill="none" stroke="#1d71b8" stroke-width="3" stroke-miterlimit="10"><path d="M4981.7 29l13.7-20.7h29.1v71.4h-98V8.3h57l-9.3 15.5 14.3 9.5 19-25.3" stroke-dasharray="389.2532914494084,29.353632452414818" stroke-dashoffset="418.606924"/><path d="M5024.7 20.3h10.5v69h-97.7v-8.5" stroke-dasharray="172.67831011583587,13.02168988416412" stroke-dashoffset="185.7"/><path d="M5024.7 65.6h-66.8s-3.2-25.5 14.1-37.6m13.5 9.8s-1.2 17.5-27.6 27.8" stroke-dasharray="101.19896475777955,7.631424785141032" stroke-dashoffset="108.83039"/></g><g fill="none" stroke="#1d71b8" stroke-width="3" stroke-miterlimit="10"><path d="M5101.7 29l13.7-20.7h29.1v71.4h-98V8.3h57l-9.3 15.5 14.3 9.5 19-25.3" stroke-dasharray="392.7560572347749,25.8508666670483" stroke-dashoffset="418.606924"/><path d="M5144.7 20.3h10.5v69h-97.7v-8.5" stroke-dasharray="174.232186961158,11.467813038842" stroke-dashoffset="185.7"/><path d="M5144.7 65.6h-66.8s-3.2-25.5 14.1-37.6m13.5 9.8s-1.2 17.5-27.6 27.8" stroke-dasharray="102.1096218518998,6.72076769102078" stroke-dashoffset="108.83039"/></g><g fill="none" stroke="#1d71b8" stroke-width="3" stroke-miterlimit="10"><path d="M5221.7 29l13.7-20.7h29.1v71.4h-98V8.3h57l-9.3 15.5 14.3 9.5 19-25.3" stroke-dasharray="395.9700260501626,22.636897851660667" stroke-dashoffset="418.606924"/><path d="M5264.7 20.3h10.5v69h-97.7v-8.5" stroke-dasharray="175.65794935288915,10.042050647110848" stroke-dashoffset="185.7"/><path d="M5264.7 65.6h-66.8s-3.2-25.5 14.1-37.6m13.5 9.8s-1.2 17.5-27.6 27.8" stroke-dasharray="102.9451968464488,5.8851926964717896" stroke-dashoffset="108.83039"/></g><g fill="none" stroke="#1d71b8" stroke-width="3" stroke-miterlimit="10"><path d="M5341.7 29l13.7-20.7h29.1v71.4h-98V8.3h57l-9.3 15.5 14.3 9.5 19-25.3" stroke-dasharray="398.9121647448709,19.694759156952312" stroke-dashoffset="418.606924"/><path d="M5384.7 20.3h10.5v69h-97.7v-8.5" stroke-dasharray="176.96312402729438,8.736875972705608" stroke-dashoffset="185.7"/><path d="M5384.7 65.6h-66.8s-3.2-25.5 14.1-37.6m13.5 9.8s-1.2 17.5-27.6 27.8" stroke-dasharray="103.71010082187732,5.120288721043266" stroke-dashoffset="108.83039"/></g><g fill="none" stroke="#1d71b8" stroke-width="3" stroke-miterlimit="10"><path d="M5461.7 29l13.7-20.7h29.1v71.4h-98V8.3h57l-9.3 15.5 14.3 9.5 19-25.3" stroke-dasharray="401.5979771671244,17.008946734698863" stroke-dashoffset="418.606924"/><path d="M5504.7 20.3h10.5v69h-97.7v-8.5" stroke-dasharray="178.15458871250212,7.5454112874978705" stroke-dashoffset="185.7"/><path d="M5504.7 65.6h-66.8s-3.2-25.5 14.1-37.6m13.5 9.8s-1.2 17.5-27.6 27.8" stroke-dasharray="104.40836450425638,4.422025038664207" stroke-dashoffset="108.83039"/></g><g fill="none" stroke="#1d71b8" stroke-width="3" stroke-miterlimit="10"><path d="M5581.7 29l13.7-20.7h29.1v71.4h-98V8.3h57l-9.3 15.5 14.3 9.5 19-25.3" stroke-dasharray="404.0416622430273,14.565261658795906" stroke-dashoffset="418.606924"/><path d="M5624.7 20.3h10.5v69h-97.7v-8.5" stroke-dasharray="179.23864225458257,6.461357745417405" stroke-dashoffset="185.7"/><path d="M5624.7 65.6h-66.8s-3.2-25.5 14.1-37.6m13.5 9.8s-1.2 17.5-27.6 27.8" stroke-dasharray="105.04367936300704,3.786710179913534" stroke-dashoffset="108.83039"/></g><g fill="none" stroke="#1d71b8" stroke-width="3" stroke-miterlimit="10"><path d="M5701.7 29l13.7-20.7h29.1v71.4h-98V8.3h57l-9.3 15.5 14.3 9.5 19-25.3" stroke-dasharray="406.2562524868778,12.350671414945403" stroke-dashoffset="418.606924"/><path d="M5744.7 20.3h10.5v69h-97.7v-8.5" stroke-dasharray="180.22106606269784,5.478933937302158" stroke-dashoffset="185.7"/><path d="M5744.7 65.6h-66.8s-3.2-25.5 14.1-37.6m13.5 9.8s-1.2 17.5-27.6 27.8" stroke-dasharray="105.61943362112994,3.2109559217906383" stroke-dashoffset="108.83039"/></g><g fill="none" stroke="#1d71b8" stroke-width="3" stroke-miterlimit="10"><path d="M5821.7 29l13.7-20.7h29.1v71.4h-98V8.3h57l-9.3 15.5 14.3 9.5 19-25.3" stroke-dasharray="408.2537355095906,10.353188392232578" stroke-dashoffset="418.606924"/><path d="M5864.7 20.3h10.5v69h-97.7v-8.5" stroke-dasharray="181.10717801197072,4.5928219880292716" stroke-dashoffset="185.7"/><path d="M5864.7 65.6h-66.8s-3.2-25.5 14.1-37.6m13.5 9.8s-1.2 17.5-27.6 27.8" stroke-dasharray="106.13874384524414,2.691645697676449" stroke-dashoffset="108.83039"/></g><g fill="none" stroke="#1d71b8" stroke-width="3" stroke-miterlimit="10"><path d="M5941.7 29l13.7-20.7h29.1v71.4h-98V8.3h57l-9.3 15.5 14.3 9.5 19-25.3" stroke-dasharray="410.0451607756033,8.561763126219915" stroke-dashoffset="418.606924"/><path d="M5984.7 20.3h10.5v69h-97.7v-8.5" stroke-dasharray="181.90187980237056,3.7981201976294243" stroke-dashoffset="185.7"/><path d="M5984.7 65.6h-66.8s-3.2-25.5 14.1-37.6m13.5 9.8s-1.2 17.5-27.6 27.8" stroke-dasharray="106.60448270049277,2.2259068424278126" stroke-dashoffset="108.83039"/></g><g fill="none" stroke="#1d71b8" stroke-width="3" stroke-miterlimit="10"><path d="M6061.7 29l13.7-20.7h29.1v71.4h-98V8.3h57l-9.3 15.5 14.3 9.5 19-25.3" stroke-dasharray="411.640733565475,6.966190336348242" stroke-dashoffset="418.606924"/><path d="M6104.7 20.3h10.5v69h-97.7v-8.5" stroke-dasharray="182.60969864186177,3.090301358138224" stroke-dashoffset="185.7"/><path d="M6104.7 65.6h-66.8s-3.2-25.5 14.1-37.6m13.5 9.8s-1.2 17.5-27.6 27.8" stroke-dasharray="107.01930337915537,1.8110861637652098" stroke-dashoffset="108.83039"/></g><g fill="none" stroke="#1d71b8" stroke-width="3" stroke-miterlimit="10"><path d="M6181.7 29l13.7-20.7h29.1v71.4h-98V8.3h57l-9.3 15.5 14.3 9.5 19-25.3" stroke-dasharray="413.04989783775386,5.557026064069355" stroke-dashoffset="418.606924"/><path d="M6224.7 20.3h10.5v69h-97.7v-8.5" stroke-dasharray="183.2348240051096,2.465175994890381" stroke-dashoffset="185.7"/><path d="M6224.7 65.6h-66.8s-3.2-25.5 14.1-37.6m13.5 9.8s-1.2 17.5-27.6 27.8" stroke-dasharray="107.38566114326643,1.4447283996541573" stroke-dashoffset="108.83039"/></g><g fill="none" stroke="#1d71b8" stroke-width="3" stroke-miterlimit="10"><path d="M6301.7 29l13.7-20.7h29.1v71.4h-98V8.3h57l-9.3 15.5 14.3 9.5 19-25.3" stroke-dasharray="414.2814094510313,4.3255144507918795" stroke-dashoffset="418.606924"/><path d="M6344.7 20.3h10.5v69h-97.7v-8.5" stroke-dasharray="183.7811401158275,1.9188598841724833" stroke-dashoffset="185.7"/><path d="M6344.7 65.6h-66.8s-3.2-25.5 14.1-37.6m13.5 9.8s-1.2 17.5-27.6 27.8" stroke-dasharray="107.7058323610532,1.1245571818673927" stroke-dashoffset="108.83039"/></g><g fill="none" stroke="#1d71b8" stroke-width="3" stroke-miterlimit="10"><path d="M6421.7 29l13.7-20.7h29.1v71.4h-98V8.3h57l-9.3 15.5 14.3 9.5 19-25.3" stroke-dasharray="415.34340100428585,3.263522897537345" stroke-dashoffset="418.606924"/><path d="M6464.7 20.3h10.5v69h-97.7v-8.5" stroke-dasharray="184.25225471087808,1.4477452891219256" stroke-dashoffset="185.7"/><path d="M6464.7 65.6h-66.8s-3.2-25.5 14.1-37.6m13.5 9.8s-1.2 17.5-27.6 27.8" stroke-dasharray="107.98193136427724,0.8484581786433352" stroke-dashoffset="108.83039"/></g><g fill="none" stroke="#1d71b8" stroke-width="3" stroke-miterlimit="10"><path d="M6541.7 29l13.7-20.7h29.1v71.4h-98V8.3h57l-9.3 15.5 14.3 9.5 19-25.3" stroke-dasharray="416.2434393782365,2.3634845235867252" stroke-dashoffset="418.606924"/><path d="M6584.7 20.3h10.5v69h-97.7v-8.5" stroke-dasharray="184.6515245664379,1.048475433562085" stroke-dashoffset="185.7"/><path d="M6584.7 65.6h-66.8s-3.2-25.5 14.1-37.6m13.5 9.8s-1.2 17.5-27.6 27.8" stroke-dasharray="108.21592540796773,0.6144641349528501" stroke-dashoffset="108.83039"/></g><g fill="none" stroke="#1d71b8" stroke-width="3" stroke-miterlimit="10"><path d="M6661.7 29l13.7-20.7h29.1v71.4h-98V8.3h57l-9.3 15.5 14.3 9.5 19-25.3" stroke-dasharray="416.98857690956123,1.6183469922619815" stroke-dashoffset="418.606924"/><path d="M6704.7 20.3h10.5v69h-97.7v-8.5" stroke-dasharray="184.9820781996106,0.7179218003893629" stroke-dashoffset="185.7"/><path d="M6704.7 65.6h-66.8s-3.2-25.5 14.1-37.6m13.5 9.8s-1.2 17.5-27.6 27.8" stroke-dasharray="108.40964797481219,0.4207415681083966" stroke-dashoffset="108.83039"/></g><g fill="none" stroke="#1d71b8" stroke-width="3" stroke-miterlimit="10"><path d="M6781.7 29l13.7-20.7h29.1v71.4h-98V8.3h57l-9.3 15.5 14.3 9.5 19-25.3" stroke-dasharray="417.5853970004867,1.0215269013365034" stroke-dashoffset="418.606924"/><path d="M6824.7 20.3h10.5v69h-97.7v-8.5" stroke-dasharray="185.24683610149103,0.4531638985089478" stroke-dashoffset="185.7"/><path d="M6824.7 65.6h-66.8s-3.2-25.5 14.1-37.6m13.5 9.8s-1.2 17.5-27.6 27.8" stroke-dasharray="108.56481063284241,0.2655789100781762" stroke-dashoffset="108.83039"/></g><g fill="none" stroke="#1d71b8" stroke-width="3" stroke-miterlimit="10"><path d="M6901.7 29l13.7-20.7h29.1v71.4h-98V8.3h57l-9.3 15.5 14.3 9.5 19-25.3" stroke-dasharray="418.0400548555657,0.5668690462575277" stroke-dashoffset="418.606924"/><path d="M6944.7 20.3h10.5v69h-97.7v-8.5" stroke-dasharray="185.44852880858053,0.25147119141945085" stroke-dashoffset="185.7"/><path d="M6944.7 65.6h-66.8s-3.2-25.5 14.1-37.6m13.5 9.8s-1.2 17.5-27.6 27.8" stroke-dasharray="108.68301362627545,0.14737591664513294" stroke-dashoffset="108.83039"/></g><g fill="none" stroke="#1d71b8" stroke-width="3" stroke-miterlimit="10"><path d="M7021.7 29l13.7-20.7h29.1v71.4h-98V8.3h57l-9.3 15.5 14.3 9.5 19-25.3" stroke-dasharray="418.3583139428224,0.24860995900080526" stroke-dashoffset="418.606924"/><path d="M7064.7 20.3h10.5v69h-97.7v-8.5" stroke-dasharray="185.58971307747103,0.11028692252896694" stroke-dashoffset="185.7"/><path d="M7064.7 65.6h-66.8s-3.2-25.5 14.1-37.6m13.5 9.8s-1.2 17.5-27.6 27.8" stroke-dasharray="108.76575535476594,0.06463418815464392" stroke-dashoffset="108.83039"/></g><g fill="none" stroke="#1d71b8" stroke-width="3" stroke-miterlimit="10"><path d="M7141.7 29l13.7-20.7h29.1v71.4h-98V8.3h57l-9.3 15.5 14.3 9.5 19-25.3" stroke-dasharray="418.54557869554475,0.061345206278472564" stroke-dashoffset="418.606924"/><path d="M7184.7 20.3h10.5v69h-97.7v-8.5" stroke-dasharray="185.67278639182618,0.027213608173820125" stroke-dashoffset="185.7"/><path d="M7184.7 65.6h-66.8s-3.2-25.5 14.1-37.6m13.5 9.8s-1.2 17.5-27.6 27.8" stroke-dasharray="108.81444087529309,0.015948667627491933" stroke-dashoffset="108.83039"/></g><g fill="none" stroke="#1d71b8" stroke-width="3" stroke-miterlimit="10"><path d="M7261.7 29l13.7-20.7h29.1v71.4h-98V8.3h57l-9.3 15.5 14.3 9.5 19-25.3"/><path d="M7304.7 20.3h10.5v69h-97.7v-8.5"/><path d="M7304.7 65.6h-66.8s-3.2-25.5 14.1-37.6m13.5 9.8s-1.2 17.5-27.6 27.8"/></g></svg>