<svg xmlns="http://www.w3.org/2000/svg" viewBox="0 0 7320 100" width="7320" height="100"><g fill="none" stroke="#1d71b8" stroke-width="3" stroke-miterlimit="10"><path d="M80.2 18.7L60 51.2l-21.7 13 3.2-24.5 21-31.4h-57v71.4h98V8.3H74.4L51.2 45.7" stroke-dasharray="0,496.95667160785723" stroke-dashoffset="496.956672"/><path d="M103.7 20.3h10.5v69H16.5v-8.5m87.2-15.2H36.9" stroke-dasharray="0,185.7" stroke-dashoffset="185.7"/></g><g fill="none" stroke="#1d71b8" stroke-width="3" stroke-miterlimit="10"><path d="M200.2 18.7L180 51.2l-21.7 13 3.2-24.5 21-31.4h-57v71.4h98V8.3h-29.1l-23.2 37.4" stroke-dasharray="0.5063901271005492,496.4502814807567" stroke-dashoffset="496.956672"/><path d="M223.7 20.3h10.5v69h-97.7v-8.5m87.2-15.2h-66.8" stroke-dasharray="0,185.7" stroke-dashoffset="185.7"/></g><g fill="none" stroke="#1d71b8" stroke-width="3" stroke-miterlimit="10"><path d="M320.2 18.7L300 51.2l-21.7 13 3.2-24.5 21-31.4h-57v71.4h98V8.3h-29.1l-23.2 37.4" stroke-dasharray="2.1188518902181883,494.83781971763904" stroke-dashoffset="496.956672"/><path d="M343.7 20.3h10.5v69h-97.7v-8.5m87.2-15.2h-66.8" stroke-dasharray="0,185.7" stroke-dashoffset="185.7"/></g><g fill="none" stroke="#1d71b8" stroke-width="3" stroke-miterlimit="10"><path d="M440.2 18.7L420 51.2l-21.7 13 3.2-24.5 21-31.4h-57v71.4h98V8.3h-29.1l-23.2 37.4" stroke-dasharray="4.99750828611907,491.9591633217382" stroke-dashoffset="496.956672"/><path d="M463.7 20.3h10.5v69h-97.7v-8.5m87.2-15.2h-66.8" stroke-dasharray="0,185.7" stroke-dashoffset="185.7"/></g><g fill="none" stroke="#1d71b8" stroke-width="3" stroke-miterlimit="10"><path d="M560.2 18.7L540 51.2l-21.7 13 3.2-24.5 21-31.4h-57v71.4h98V8.3h-29.1l-23.2 37.4" stroke-dasharray="9.333791406062264,487.622880201795" stroke-dashoffset="496.956672"/><path d="M583.7 20.3h10.5v69h-97.7v-8.5m87.2-15.2h-66.8" stroke-dasharray="0,185.7" stroke-dashoffset="185.7"/></g><g fill="none" stroke="#1d71b8" stroke-width="3" stroke-miterlimit="10"><path d="M680.2 18.7L660 51.2l-21.7 13 3.2-24.5 21-31.4h-57v71.4h98V8.3h-29.1l-23.2 37.4" stroke-dasharray="15.35615090241313,481.6005207054441" stroke-dashoffset="496.956672"/><path d="M703.7 20.3h10.5v69h-97.7v-8.5m87.2-15.2h-66.8" stroke-dasharray="0,185.7" stroke-dashoffset="185.7"/></g><g fill="none" stroke="#1d71b8" stroke-width="3" stroke-miterlimit="10"><path d="M800.2 18.7L780 51.2l-21.7 13 3.2-24.5 21-31.4h-57v71.4h98V8.3h-29.1l-23.2 37.4" stroke-dasharray="23.334918984934212,473.621752622923" stroke-dashoffset="496.956672"/><path d="M823.7 20.3h10.5v69h-97.7v-8.5m87.2-15.2h-66.8" stroke-dasharray="0,185.7" stroke-dashoffset="185.7"/></g><g fill="none" stroke="#1d71b8" stroke-width="3" stroke-miterlimit="10"><path d="M920.2 18.7L900 51.2l-21.7 13 3.2-24.5 21-31.4h-57v71.4h98V8.3h-29.1l-23.2 37.4" stroke-dasharray="33.583514426757,463.3731571811003" stroke-dashoffset="496.956672"/><path d="M943.7 20.3h10.5v69h-97.7v-8.5m87.2-15.2h-66.8" stroke-dasharray="0,185.7" stroke-dashoffset="185.7"/></g><g fill="none" stroke="#1d71b8" stroke-width="3" stroke-miterlimit="10"><path d="M1040.2 18.7L1020 51.2l-21.7 13 3.2-24.5 21-31.4h-57v71.4h98V8.3h-29.1l-23.2 37.4" stroke-dasharray="46.44998408226193,450.5066875255953" stroke-dashoffset="496.956672"/><path d="M1063.7 20.3h10.5v69h-97.7v-8.5m87.2-15.2h-66.8" stroke-dasharray="0,185.7" stroke-dashoffset="185.7"/></g><g fill="none" stroke="#1d71b8" stroke-width="3" stroke-miterlimit="10"><path d="M1160.2 18.7L1140 51.2l-21.7 13 3.2-24.5 21-31.4h-57v71.4h98V8.3h-29.1l-23.2 37.4" stroke-dasharray="62.28757182089798,434.66909978695924" stroke-dashoffset="496.956672"/><path d="M1183.7 20.3h10.5v69h-97.7v-8.5m87.2-15.2h-66.8" stroke-dasharray="0,185.7" stroke-dashoffset="185.7"/></g><g fill="none" stroke="#1d71b8" stroke-width="3" stroke-miterlimit="10"><path d="M1280.2 18.7L1260 51.2l-21.7 13 3.2-24.5 21-31.4h-57v71.4h98V8.3h-29.1l-23.2 37.4" stroke-dasharray="81.38683136229614,415.5698402455611" stroke-dashoffset="496.956672"/><path d="M1303.7 20.3h10.5v69h-97.7v-8.5m87.2-15.2h-66.8" stroke-dasharray="0,185.7" stroke-dashoffset="185.7"/></g><g fill="none" stroke="#1d71b8" stroke-width="3" stroke-miterlimit="10"><path d="M1400.2 18.7L1380 51.2l-21.7 13 3.2-24.5 21-31.4h-57v71.4h98V8.3h-29.1l-23.2 37.4" stroke-dasharray="103.85277319331915,393.1038984145381" stroke-dashoffset="496.956672"/><path d="M1423.7 20.3h10.5v69h-97.7v-8.5m87.2-15.2h-66.8" stroke-dasharray="0,185.7" stroke-dashoffset="185.7"/></g><g fill="none" stroke="#1d71b8" stroke-width="3" stroke-miterlimit="10"><path d="M1520.2 18.7L1500 51.2l-21.7 13 3.2-24.5 21-31.4h-57v71.4h98V8.3h-29.1l-23.2 37.4" stroke-dasharray="129.43881410021996,367.5178575076373" stroke-dashoffset="496.956672"/><path d="M1543.7 20.3h10.5v69h-97.7v-8.5m87.2-15.2h-66.8" stroke-dasharray="0,185.7" stroke-dashoffset="185.7"/></g><g fill="none" stroke="#1d71b8" stroke-width="3" stroke-miterlimit="10"><path d="M1640.2 18.7L1620 51.2l-21.7 13 3.2-24.5 21-31.4h-57v71.4h98V8.3h-29.1l-23.2 37.4" stroke-dasharray="157.42029921394908,339.53637239390815" stroke-dashoffset="496.956672"/><path d="M1663.7 20.3h10.5v69h-97.7v-8.5m87.2-15.2h-66.8" stroke-dasharray="0,185.7" stroke-dashoffset="185.7"/></g><g fill="none" stroke="#1d71b8" stroke-width="3" stroke-miterlimit="10"><path d="M1760.2 18.7L1740 51.2l-21.7 13 3.2-24.5 21-31.4h-57v71.4h98V8.3h-29.1l-23.2 37.4" stroke-dasharray="186.64797312421112,310.30869848364614" stroke-dashoffset="496.956672"/><path d="M1783.7 20.3h10.5v69h-97.7v-8.5m87.2-15.2h-66.8" stroke-dasharray="0,185.7" stroke-dashoffset="185.7"/></g><g fill="none" stroke="#1d71b8" stroke-width="3" stroke-miterlimit="10"><path d="M1880.2 18.7L1860 51.2l-21.7 13 3.2-24.5 21-31.4h-57v71.4h98V8.3h-29.1l-23.2 37.4" stroke-dasharray="215.83034072492362,281.1263308829336" stroke-dashoffset="496.956672"/><path d="M1903.7 20.3h10.5v69h-97.7v-8.5m87.2-15.2h-66.8" stroke-dasharray="0,185.7" stroke-dashoffset="185.7"/></g><g fill="none" stroke="#1d71b8" stroke-width="3" stroke-miterlimit="10"><path d="M2000.2 18.7L1980 51.2l-21.7 13 3.2-24.5 21-31.4h-57v71.4h98V8.3h-29.1l-23.2 37.4" stroke-dasharray="243.87908538490885,253.07758622294838" stroke-dashoffset="496.956672"/><path d="M2023.7 20.3h10.5v69h-97.7v-8.5m87.2-15.2h-66.8" stroke-dasharray="0,185.7" stroke-dashoffset="185.7"/></g><g fill="none" stroke="#1d71b8" stroke-width="3" stroke-miterlimit="10"><path d="M2120.2 18.7L2100 51.2l-21.7 13 3.2-24.5 21-31.4h-57v71.4h98V8.3h-29.1l-23.2 37.4" stroke-dasharray="270.096998106667,226.85967350119026" stroke-dashoffset="496.956672"/><path d="M2143.7 20.3h10.5v69h-97.7v-8.5m87.2-15.2h-66.8" stroke-dasharray="0,185.7" stroke-dashoffset="185.7"/></g><g fill="none" stroke="#1d71b8" stroke-width="3" stroke-miterlimit="10"><path d="M2240.2 18.7L2220 51.2l-21.7 13 3.2-24.5 21-31.4h-57v71.4h98V8.3h-29.1l-23.2 37.4" stroke-dasharray="294.1644513484288,202.7922202594284" stroke-dashoffset="496.956672"/><path d="M2263.7 20.3h10.5v69h-97.7v-8.5m87.2-15.2h-66.8" stroke-dasharray="0,185.7" stroke-dashoffset="185.7"/></g><g fill="none" stroke="#1d71b8" stroke-width="3" stroke-miterlimit="10"><path d="M2360.2 18.7L2340 51.2l-21.7 13 3.2-24.5 21-31.4h-57v71.4h98V8.3h-29.1l-23.2 37.4" stroke-dasharray="316.02639320814586,180.9302783997114" stroke-dashoffset="496.956672"/><path d="M2383.7 20.3h10.5v69h-97.7v-8.5m87.2-15.2h-66.8" stroke-dasharray="0,185.7" stroke-dashoffset="185.7"/></g><g fill="none" stroke="#1d71b8" stroke-width="3" stroke-miterlimit="10"><path d="M2480.2 18.7L2460 51.2l-21.7 13 3.2-24.5 21-31.4h-57v71.4h98V8.3h-29.1l-23.2 37.4" stroke-dasharray="335.77677570058216,161.17989590727507" stroke-dashoffset="496.956672"/><path d="M2503.7 20.3h10.5v69h-97.7v-8.5m87.2-15.2h-66.8" stroke-dasharray="0,185.7" stroke-dashoffset="185.7"/></g><g fill="none" stroke="#1d71b8" stroke-width="3" stroke-miterlimit="10"><path d="M2600.2 18.7L2580 51.2l-21.7 13 3.2-24.5 21-31.4h-57v71.4h98V8.3h-29.1l-23.2 37.4" stroke-dasharray="353.5774265648916,143.37924504296564" stroke-dashoffset="496.956672"/><path d="M2623.7 20.3h10.5v69h-97.7v-8.5m87.2-15.2h-66.8" stroke-dasharray="0,185.7" stroke-dashoffset="185.7"/></g><g fill="none" stroke="#1d71b8" stroke-width="3" stroke-miterlimit="10"><path d="M2720.2 18.7L2700 51.2l-21.7 13 3.2-24.5 21-31.4h-57v71.4h98V8.3h-29.1l-23.2 37.4" stroke-dasharray="369.61092891549515,127.3457426923621" stroke-dashoffset="496.956672"/><path d="M2743.7 20.3h10.5v69h-97.7v-8.5m87.2-15.2h-66.8" stroke-dasharray="0,185.7" stroke-dashoffset="185.7"/></g><g fill="none" stroke="#1d71b8" stroke-width="3" stroke-miterlimit="10"><path d="M2840.2 18.7L2820 51.2l-21.7 13 3.2-24.5 21-31.4h-57v71.4h98V8.3h-29.1l-23.2 37.4" stroke-dasharray="384.0566129333961,112.90005867446118" stroke-dashoffset="496.956672"/><path d="M2863.7 20.3h10.5v69h-97.7v-8.5m87.2-15.2h-66.8" stroke-dasharray="0,185.7" stroke-dashoffset="185.7"/></g><g fill="none" stroke="#1d71b8" stroke-width="3" stroke-miterlimit="10"><path d="M2960.2 18.7L2940 51.2l-21.7 13 3.2-24.5 21-31.4h-57v71.4h98V8.3h-29.1l-23.2 37.4" stroke-dasharray="397.0799062743985,99.87676533345869" stroke-dashoffset="496.956672"/><path d="M2983.7 20.3h10.5v69h-97.7v-8.5m87.2-15.2h-66.8" stroke-dasharray="0,185.7" stroke-dashoffset="185.7"/></g><g fill="none" stroke="#1d71b8" stroke-width="3" stroke-miterlimit="10"><path d="M3080.2 18.7L3060 51.2l-21.7 13 3.2-24.5 21-31.4h-57v71.4h98V8.3h-29.1l-23.2 37.4" stroke-dasharray="408.8287060769325,88.1279655309247" stroke-dashoffset="496.956672"/><path d="M3103.7 20.3h10.5v69h-97.7v-8.5m87.2-15.2h-66.8" stroke-dasharray="0,185.7" stroke-dashoffset="185.7"/></g><g fill="none" stroke="#1d71b8" stroke-width="3" stroke-miterlimit="10"><path d="M3200.2 18.7L3180 51.2l-21.7 13 3.2-24.5 21-31.4h-57v71.4h98V8.3h-29.1l-23.2 37.4" stroke-dasharray="419.4331655270524,77.52350608080486" stroke-dashoffset="496.956672"/><path d="M3223.7 20.3h10.5v69h-97.7v-8.5m87.2-15.2h-66.8" stroke-dasharray="0,185.7" stroke-dashoffset="185.7"/></g><g fill="none" stroke="#1d71b8" stroke-width="3" stroke-miterlimit="10"><path d="M3320.2 18.7L3300 51.2l-21.7 13 3.2-24.5 21-31.4h-57v71.4h98V8.3h-29.1l-23.2 37.4" stroke-dasharray="429.00698312430376,67.94968848355347" stroke-dashoffset="496.956672"/><path d="M3343.7 20.3h10.5v69h-97.7v-8.5m87.2-15.2h-66.8" stroke-dasharray="0,185.7" stroke-dashoffset="185.7"/></g><g fill="none" stroke="#1d71b8" stroke-width="3" stroke-miterlimit="10"><path d="M3440.2 18.7L3420 51.2l-21.7 13 3.2-24.5 21-31.4h-57v71.4h98V8.3h-29.1l-23.2 37.4" stroke-dasharray="437.6492309410047,59.307440666852536" stroke-dashoffset="496.956672"/><path d="M3463.7 20.3h10.5v69h-97.7v-8.5m87.2-15.2h-66.8" stroke-dasharray="0,185.7" stroke-dashoffset="185.7"/></g><g fill="none" stroke="#1d71b8" stroke-width="3" stroke-miterlimit="10"><path d="M3560.2 18.7L3540 51.2l-21.7 13 3.2-24.5 21-31.4h-57v71.4h98V8.3h-29.1l-23.2 37.4" stroke-dasharray="445.4462607818941,51.510410825963085" stroke-dashoffset="496.956672"/><path d="M3583.7 20.3h10.5v69h-97.7v-8.5m87.2-15.2h-66.8" stroke-dasharray="0,185.7" stroke-dashoffset="185.7"/></g><g fill="none" stroke="#1d71b8" stroke-width="3" stroke-miterlimit="10"><path d="M3680.2 18.7L3660 51.2l-21.7 13 3.2-24.5 21-31.4h-57v71.4h98V8.3h-29.1l-23.2 37.4" stroke-dasharray="452.4734846584153,44.48318694944192" stroke-dashoffset="496.956672"/><path d="M3703.7 20.3h10.5v69h-97.7v-8.5m87.2-15.2h-66.8" stroke-dasharray="0.0020920886820640066,185.6979079113179" stroke-dashoffset="185.7"/></g><g fill="none" stroke="#1d71b8" stroke-width="3" stroke-miterlimit="10"><path d="M3800.2 18.7L3780 51.2l-21.7 13 3.2-24.5 21-31.4h-57v71.4h98V8.3h-29.1l-23.2 37.4" stroke-dasharray="458.7969539601256,38.15971764773161" stroke-dashoffset="496.956672"/><path d="M3823.7 20.3h10.5v69h-97.7v-8.5m87.2-15.2h-66.8" stroke-dasharray="0.7064021034864119,184.9935978965136" stroke-dashoffset="185.7"/></g><g fill="none" stroke="#1d71b8" stroke-width="3" stroke-miterlimit="10"><path d="M3920.2 18.7L3900 51.2l-21.7 13 3.2-24.5 21-31.4h-57v71.4h98V8.3h-29.1l-23.2 37.4" stroke-dasharray="464.47472279459834,32.48194881325887" stroke-dashoffset="496.956672"/><path d="M3943.7 20.3h10.5v69h-97.7v-8.5m87.2-15.2h-66.8" stroke-dasharray="2.905602861823761,182.7943971381762" stroke-dashoffset="185.7"/></g><g fill="none" stroke="#1d71b8" stroke-width="3" stroke-miterlimit="10"><path d="M4040.2 18.7L4020 51.2l-21.7 13 3.2-24.5 21-31.4h-57v71.4h98V8.3h-29.1l-23.2 37.4" stroke-dasharray="469.5580081565062,27.398663451351002" stroke-dashoffset="496.956672"/><path d="M4063.7 20.3h10.5v69h-97.7v-8.5m87.2-15.2h-66.8" stroke-dasharray="7.032268658549867,178.66773134145012" stroke-dashoffset="185.7"/></g><g fill="none" stroke="#1d71b8" stroke-width="3" stroke-miterlimit="10"><path d="M4160.2 18.7L4140 51.2l-21.7 13 3.2-24.5 21-31.4h-57v71.4h98V8.3h-29.1l-23.2 37.4" stroke-dasharray="474.0921699625547,22.864501645302557" stroke-dashoffset="496.956672"/><path d="M4183.7 20.3h10.5v69h-97.7v-8.5m87.2-15.2h-66.8" stroke-dasharray="13.669600420956543,172.03039957904346" stroke-dashoffset="185.7"/></g><g fill="none" stroke="#1d71b8" stroke-width="3" stroke-miterlimit="10"><path d="M4280.2 18.7L4260 51.2l-21.7 13 3.2-24.5 21-31.4h-57v71.4h98V8.3h-29.1l-23.2 37.4" stroke-dasharray="478.11753630847886,18.8391352993784" stroke-dashoffset="496.956672"/><path d="M4303.7 20.3h10.5v69h-97.7v-8.5m87.2-15.2h-66.8" stroke-dasharray="23.5361755450043,162.16382445499568" stroke-dashoffset="185.7"/></g><g fill="none" stroke="#1d71b8" stroke-width="3" stroke-miterlimit="10"><path d="M4400.2 18.7L4380 51.2l-21.7 13 3.2-24.5 21-31.4h-57v71.4h98V8.3h-29.1l-23.2 37.4" stroke-dasharray="481.6700980036218,15.28657360423548" stroke-dashoffset="496.956672"/><path d="M4423.7 20.3h10.5v69h-97.7v-8.5m87.2-15.2h-66.8" stroke-dasharray="37.261848207762895,148.4381517922371" stroke-dashoffset="185.7"/></g><g fill="none" stroke="#1d71b8" stroke-width="3" stroke-miterlimit="10"><path d="M4520.2 18.7L4500 51.2l-21.7 13 3.2-24.5 21-31.4h-57v71.4h98V8.3h-29.1l-23.2 37.4" stroke-dasharray="484.78209372529966,12.17457788255757" stroke-dashoffset="496.956672"/><path d="M4543.7 20.3h10.5v69h-97.7v-8.5m87.2-15.2h-66.8" stroke-dasharray="54.696009325406834,131.00399067459315" stroke-dashoffset="185.7"/></g><g fill="none" stroke="#1d71b8" stroke-width="3" stroke-miterlimit="10"><path d="M4640.2 18.7L4620 51.2l-21.7 13 3.2-24.5 21-31.4h-57v71.4h98V8.3h-29.1l-23.2 37.4" stroke-dasharray="487.4825040736144,9.474167534242817" stroke-dashoffset="496.956672"/><path d="M4663.7 20.3h10.5v69h-97.7v-8.5m87.2-15.2h-66.8" stroke-dasharray="74.13003712272858,111.56996287727142" stroke-dashoffset="185.7"/></g><g fill="none" stroke="#1d71b8" stroke-width="3" stroke-miterlimit="10"><path d="M4760.2 18.7L4740 51.2l-21.7 13 3.2-24.5 21-31.4h-57v71.4h98V8.3h-29.1l-23.2 37.4" stroke-dasharray="489.79746988054706,7.159201727310187" stroke-dashoffset="496.956672"/><path d="M4783.7 20.3h10.5v69h-97.7v-8.5m87.2-15.2h-66.8" stroke-dasharray="93.0114780982051,92.68852190179489" stroke-dashoffset="185.7"/></g><g fill="none" stroke="#1d71b8" stroke-width="3" stroke-miterlimit="10"><path d="M4880.2 18.7L4860 51.2l-21.7 13 3.2-24.5 21-31.4h-57v71.4h98V8.3h-29.1l-23.2 37.4" stroke-dasharray="491.7506475271102,5.206024080747029" stroke-dashoffset="496.956672"/><path d="M4903.7 20.3h10.5v69h-97.7v-8.5m87.2-15.2h-66.8" stroke-dasharray="109.68654894172728,76.01345105827271" stroke-dashoffset="185.7"/></g><g fill="none" stroke="#1d71b8" stroke-width="3" stroke-miterlimit="10"><path d="M5000.2 18.7L4980 51.2l-21.7 13 3.2-24.5 21-31.4h-57v71.4h98V8.3h-29.1l-23.2 37.4" stroke-dasharray="493.363511799837,3.5931598080202396" stroke-dashoffset="496.956672"/><path d="M5023.7 20.3h10.5v69h-97.7v-8.5m87.2-15.2h-66.8" stroke-dasharray="123.76289237646539,61.9371076235346" stroke-dashoffset="185.7"/></g><g fill="none" stroke="#1d71b8" stroke-width="3" stroke-miterlimit="10"><path d="M5120.2 18.7L5100 51.2l-21.7 13 3.2-24.5 21-31.4h-57v71.4h98V8.3h-29.1l-23.2 37.4" stroke-dasharray="494.6556149590364,2.3010566488208046" stroke-dashoffset="496.956672"/><path d="M5143.7 20.3h10.5v69h-97.7v-8.5m87.2-15.2h-66.8" stroke-dasharray="135.4698266937275,50.230173306272484" stroke-dashoffset="185.7"/></g><g fill="none" stroke="#1d71b8" stroke-width="3" stroke-miterlimit="10"><path d="M5240.2 18.7L5220 51.2l-21.7 13 3.2-24.5 21-31.4h-57v71.4h98V8.3h-29.1l-23.2 37.4" stroke-dasharray="495.64480915599364,1.3118624518636097" stroke-dashoffset="496.956672"/><path d="M5263.7 20.3h10.5v69h-97.7v-8.5m87.2-15.2h-66.8" stroke-dasharray="145.18512239360513,40.51487760639486" stroke-dashoffset="185.7"/></g><g fill="none" stroke="#1d71b8" stroke-width="3" stroke-miterlimit="10"><path d="M5360.2 18.7L5340 51.2l-21.7 13 3.2-24.5 21-31.4h-57v71.4h98V8.3h-29.1l-23.2 37.4" stroke-dasharray="496.3474380772985,0.6092335305587648" stroke-dashoffset="496.956672"/><path d="M5383.7 20.3h10.5v69h-97.7v-8.5m87.2-15.2h-66.8" stroke-dasharray="153.2610640584677,32.43893594153228" stroke-dashoffset="185.7"/></g><g fill="none" stroke="#1d71b8" stroke-width="3" stroke-miterlimit="10"><path d="M5480.2 18.7L5460 51.2l-21.7 13 3.2-24.5 21-31.4h-57v71.4h98V8.3h-29.1l-23.2 37.4" stroke-dasharray="496.7785026657915,0.17816894206570288" stroke-dashoffset="496.956672"/><path d="M5503.7 20.3h10.5v69h-97.7v-8.5m87.2-15.2h-66.8" stroke-dasharray="159.9857388907563,25.714261109243694" stroke-dashoffset="185.7"/></g><g fill="none" stroke="#1d71b8" stroke-width="3" stroke-miterlimit="10"><path d="M5600.2 18.7L5580 51.2l-21.7 13 3.2-24.5 21-31.4h-57v71.4h98V8.3h-29.1l-23.2 37.4" stroke-dasharray="496.9518049282691,0.004866679588144884" stroke-dashoffset="496.956672"/><path d="M5623.7 20.3h10.5v69h-97.7v-8.5m87.2-15.2h-66.8" stroke-dasharray="165.5860491886704,20.113950811329616" stroke-dashoffset="185.7"/></g><g fill="none" stroke="#1d71b8" stroke-width="3" stroke-miterlimit="10"><path d="M5720.2 18.7L5700 51.2l-21.7 13 3.2-24.5 21-31.4h-57v71.4h98V8.3h-29.1l-23.2 37.4"/><path d="M5743.7 20.3h10.5v69h-97.7v-8.5m87.2-15.2h-66.8" stroke-dasharray="170.2396558408879,15.460344159112077" stroke-dashoffset="185.7"/></g><g fill="none" stroke="#1d71b8" stroke-width="3" stroke-miterlimit="10"><path d="M5840.2 18.7L5820 51.2l-21.7 13 3.2-24.5 21-31.4h-57v71.4h98V8.3h-29.1l-23.2 37.4"/><path d="M5863.7 20.3h10.5v69h-97.7v-8.5m87.2-15.2h-66.8" stroke-dasharray="174.08652598955567,11.61347401044433" stroke-dashoffset="185.7"/></g><g fill="none" stroke="#1d71b8" stroke-width="3" stroke-miterlimit="10"><path d="M5960.2 18.7L5940 51.2l-21.7 13 3.2-24.5 21-31.4h-57v71.4h98V8.3h-29.1l-23.2 37.4"/><path d="M5983.7 20.3h10.5v69h-97.7v-8.5m87.2-15.2h-66.8" stroke-dasharray="177.23812048137336,8.461879518626622" stroke-dashoffset="185.7"/></g><g fill="none" stroke="#1d71b8" stroke-width="3" stroke-miterlimit="10"><path d="M6080.2 18.7L6060 51.2l-21.7 13 3.2-24.5 21-31.4h-57v71.4h98V8.3h-29.1l-23.2 37.4"/><path d="M6103.7 20.3h10.5v69h-97.7v-8.5m87.2-15.2h-66.8" stroke-dasharray="179.78428371194434,5.915716288055637" stroke-dashoffset="185.7"/></g><g fill="none" stroke="#1d71b8" stroke-width="3" stroke-miterlimit="10"><path d="M6200.2 18.7L6180 51.2l-21.7 13 3.2-24.5 21-31.4h-57v71.4h98V8.3h-29.1l-23.2 37.4"/><path d="M6223.7 20.3h10.5v69h-97.7v-8.5m87.2-15.2h-66.8" stroke-dasharray="181.79832268514474,3.9016773148552435" stroke-dashoffset="185.7"/></g><g fill="none" stroke="#1d71b8" stroke-width="3" stroke-miterlimit="10"><path d="M6320.2 18.7L6300 51.2l-21.7 13 3.2-24.5 21-31.4h-57v71.4h98V8.3h-29.1l-23.2 37.4"/><path d="M6343.7 20.3h10.5v69h-97.7v-8.5m87.2-15.2h-66.8" stroke-dasharray="183.34074955611501,2.3592504438849837" stroke-dashoffset="185.7"/></g><g fill="none" stroke="#1d71b8" stroke-width="3" stroke-miterlimit="10"><path d="M6440.2 18.7L6420 51.2l-21.7 13 3.2-24.5 21-31.4h-57v71.4h98V8.3h-29.1l-23.2 37.4"/><path d="M6463.7 20.3h10.5v69h-97.7v-8.5m87.2-15.2h-66.8" stroke-dasharray="184.46205828890245,1.2379417110975268" stroke-dashoffset="185.7"/></g><g fill="none" stroke="#1d71b8" stroke-width="3" stroke-miterlimit="10"><path d="M6560.2 18.7L6540 51.2l-21.7 13 3.2-24.5 21-31.4h-57v71.4h98V8.3h-29.1l-23.2 37.4"/><path d="M6583.7 20.3h10.5v69h-97.7v-8.5m87.2-15.2h-66.8" stroke-dasharray="185.2048054699036,0.49519453009639375" stroke-dashoffset="185.7"/></g><g fill="none" stroke="#1d71b8" stroke-width="3" stroke-miterlimit="10"><path d="M6680.2 18.7L6660 51.2l-21.7 13 3.2-24.5 21-31.4h-57v71.4h98V8.3h-29.1l-23.2 37.4"/><path d="M6703.7 20.3h10.5v69h-97.7v-8.5m87.2-15.2h-66.8" stroke-dasharray="185.60518732777672,0.09481267222326067" stroke-dashoffset="185.7"/></g><g fill="none" stroke="#1d71b8" stroke-width="3" stroke-miterlimit="10"><path d="M6800.2 18.7L6780 51.2l-21.7 13 3.2-24.5 21-31.4h-57v71.4h98V8.3h-29.1l-23.2 37.4"/><path d="M6823.7 20.3h10.5v69h-97.7v-8.5m87.2-15.2h-66.8"/></g><g fill="none" stroke="#1d71b8" stroke-width="3" stroke-miterlimit="10"><path d="M6920.2 18.7L6900 51.2l-21.7 13 3.2-24.5 21-31.4h-57v71.4h98V8.3h-29.1l-23.2 37.4"/><path d="M6943.7 20.3h10.5v69h-97.7v-8.5m87.2-15.2h-66.8"/></g><g fill="none" stroke="#1d71b8" stroke-width="3" stroke-miterlimit="10"><path d="M7040.2 18.7L7020 51.2l-21.7 13 3.2-24.5 21-31.4h-57v71.4h98V8.3h-29.1l-23.2 37.4"/><path d="M7063.7 20.3h10.5v69h-97.7v-8.5m87.2-15.2h-66.8"/></g><g fill="none" stroke="#1d71b8" stroke-width="3" stroke-miterlimit="10"><path d="M7160.2 18.7L7140 51.2l-21.7 13 3.2-24.5 21-31.4h-57v71.4h98V8.3h-29.1l-23.2 37.4"/><path d="M7183.7 20.3h10.5v69h-97.7v-8.5m87.2-15.2h-66.8"/></g><g fill="none" stroke="#1d71b8" stroke-width="3" stroke-miterlimit="10"><path d="M7280.2 18.7L7260 51.2l-21.7 13 3.2-24.5 21-31.4h-57v71.4h98V8.3h-29.1l-23.2 37.4"/><path d="M7303.7 20.3h10.5v69h-97.7v-8.5m87.2-15.2h-66.8"/></g></svg>