<?xml version="1.0" encoding="utf-8"?>
<!-- Generator: Adobe Illustrator 22.0.1, SVG Export Plug-In . SVG Version: 6.00 Build 0)  -->
<svg version="1.1" id="Ebene_1" xmlns="http://www.w3.org/2000/svg" xmlns:xlink="http://www.w3.org/1999/xlink" x="0px" y="0px"
	 viewBox="0 0 48 48" style="enable-background:new 0 0 48 48;" xml:space="preserve">
<style type="text/css">
	.st0{fill:#FA6F6F;}
</style>
<path class="st0" d="M17.3,45l-3.8-6.5L5.9,37l0.8-7.4L2,24l4.8-5.5L6,11.1l7.5-1.6L17.3,3L24,6.1L30.7,3l3.8,6.6l7.5,1.6l-0.8,7.4
	L46,24l-4.8,5.6L42,37l-7.5,1.5L30.7,45L24,41.9L17.3,45z M18.6,41l5.4-2.2l5.5,2.2l3.3-5l5.8-1.5l-0.6-6l4-4.6l-4-4.7l0.6-5.9
	l-5.8-1.4l-3.5-5L24,9.2l-5.5-2.2l-3.4,5l-5.9,1.4l0.6,5.9l-4,4.7l4,4.6l-0.6,6.1l5.9,1.4L18.6,41z M21.9,30.6l11.4-11.2l-2.2-2
	l-9.1,9l-4.8-4.9l-2.3,2.2L21.9,30.6z"/>
</svg>
