<svg width="47" height="30" viewBox="0 0 47 30" fill="none" xmlns="http://www.w3.org/2000/svg">
<path d="M46.4322 16.396C47.2032 15.605 47.187 14.3388 46.396 13.5678L33.5062 1.00387C32.7152 0.23289 31.4489 0.249103 30.678 1.04009C29.907 1.83107 29.9232 3.0973 30.7142 3.86828L42.1718 15.0362L31.0039 26.4938C30.2329 27.2848 30.2491 28.5511 31.0401 29.322C31.8311 30.093 33.0973 30.0768 33.8683 29.2858L46.4322 16.396ZM1.02561 17.5632C1.05917 17.5628 1.09276 17.5624 1.1264 17.5619C1.16003 17.5615 1.1937 17.5611 1.22741 17.5606C1.26112 17.5602 1.29486 17.5598 1.32864 17.5593C1.36242 17.5589 1.39623 17.5585 1.43008 17.558C1.46393 17.5576 1.49782 17.5572 1.53174 17.5567C1.56566 17.5563 1.59962 17.5559 1.63361 17.5554C1.6676 17.555 1.70163 17.5546 1.73569 17.5541C1.76975 17.5537 1.80385 17.5533 1.83798 17.5528C1.87211 17.5524 1.90628 17.5519 1.94048 17.5515C1.97468 17.5511 2.00891 17.5506 2.04318 17.5502C2.07745 17.5498 2.11175 17.5493 2.14609 17.5489C2.18042 17.5484 2.21479 17.548 2.2492 17.5476C2.2836 17.5471 2.31804 17.5467 2.35251 17.5462C2.38698 17.5458 2.42148 17.5453 2.45602 17.5449C2.49056 17.5445 2.52512 17.544 2.55973 17.5436C2.59433 17.5431 2.62896 17.5427 2.66363 17.5422C2.6983 17.5418 2.733 17.5414 2.76773 17.5409C2.80246 17.5405 2.83722 17.54 2.87202 17.5396C2.90682 17.5391 2.94164 17.5387 2.9765 17.5382C3.01136 17.5378 3.04625 17.5373 3.08117 17.5369C3.1161 17.5365 3.15105 17.536 3.18603 17.5356C3.22102 17.5351 3.25603 17.5347 3.29108 17.5342C3.32613 17.5338 3.3612 17.5333 3.39631 17.5329C3.43142 17.5324 3.46656 17.532 3.50173 17.5315C3.53689 17.5311 3.57209 17.5306 3.60732 17.5302C3.64255 17.5297 3.67781 17.5293 3.7131 17.5288C3.74838 17.5284 3.7837 17.5279 3.81905 17.5275C3.8544 17.527 3.88977 17.5265 3.92518 17.5261C3.96058 17.5256 3.99602 17.5252 4.03148 17.5247C4.06695 17.5243 4.10244 17.5238 4.13796 17.5234C4.17348 17.5229 4.20903 17.5225 4.24461 17.522C4.28019 17.5215 4.31579 17.5211 4.35143 17.5206C4.38706 17.5202 4.42273 17.5197 4.45842 17.5193C4.49411 17.5188 4.52983 17.5184 4.56557 17.5179C4.60132 17.5174 4.63709 17.517 4.67289 17.5165C4.70869 17.5161 4.74452 17.5156 4.78037 17.5151C4.81623 17.5147 4.85211 17.5142 4.88802 17.5138C4.92393 17.5133 4.95986 17.5128 4.99582 17.5124C5.03179 17.5119 5.06777 17.5115 5.10379 17.511C5.1398 17.5105 5.17584 17.5101 5.21191 17.5096C5.24797 17.5092 5.28407 17.5087 5.32018 17.5082C5.3563 17.5078 5.39244 17.5073 5.42861 17.5068C5.46478 17.5064 5.50098 17.5059 5.5372 17.5055C5.57341 17.505 5.60966 17.5045 5.64593 17.5041C5.6822 17.5036 5.71849 17.5031 5.75481 17.5027C5.79113 17.5022 5.82747 17.5017 5.86384 17.5013C5.9002 17.5008 5.9366 17.5003 5.97301 17.4999C6.00943 17.4994 6.04586 17.4989 6.08233 17.4985C6.11879 17.498 6.15528 17.4975 6.19179 17.4971C6.2283 17.4966 6.26483 17.4961 6.30139 17.4957C6.33794 17.4952 6.37452 17.4947 6.41113 17.4943C6.44773 17.4938 6.48436 17.4933 6.521 17.4929C6.55765 17.4924 6.59432 17.4919 6.63102 17.4914C6.66771 17.491 6.70443 17.4905 6.74116 17.49C6.7779 17.4896 6.81466 17.4891 6.85144 17.4886C6.88822 17.4882 6.92503 17.4877 6.96185 17.4872C6.99868 17.4867 7.03552 17.4863 7.07239 17.4858C7.10926 17.4853 7.14615 17.4849 7.18306 17.4844C7.21997 17.4839 7.2569 17.4834 7.29385 17.483C7.33081 17.4825 7.36778 17.482 7.40477 17.4815C7.44176 17.4811 7.47878 17.4806 7.51581 17.4801C7.55284 17.4796 7.5899 17.4792 7.62697 17.4787C7.66405 17.4782 7.70114 17.4777 7.73825 17.4773C7.77537 17.4768 7.8125 17.4763 7.84965 17.4758C7.8868 17.4754 7.92398 17.4749 7.96117 17.4744C7.99836 17.4739 8.03557 17.4735 8.0728 17.473C8.11002 17.4725 8.14727 17.472 8.18454 17.4716C8.2218 17.4711 8.25909 17.4706 8.29639 17.4701C8.33369 17.4696 8.37102 17.4692 8.40835 17.4687C8.44569 17.4682 8.48305 17.4677 8.52043 17.4673C8.5578 17.4668 8.59519 17.4663 8.6326 17.4658C8.67001 17.4653 8.70744 17.4649 8.74489 17.4644C8.78233 17.4639 8.81979 17.4634 8.85727 17.4629C8.89475 17.4625 8.93225 17.462 8.96976 17.4615C9.00727 17.461 9.0448 17.4605 9.08235 17.4601C9.11989 17.4596 9.15745 17.4591 9.19503 17.4586C9.23261 17.4581 9.27021 17.4577 9.30782 17.4572C9.34543 17.4567 9.38305 17.4562 9.42069 17.4557C9.45833 17.4552 9.49599 17.4548 9.53366 17.4543C9.57134 17.4538 9.60902 17.4533 9.64673 17.4528C9.68443 17.4524 9.72215 17.4519 9.75988 17.4514C9.79761 17.4509 9.83536 17.4504 9.87312 17.4499C9.91088 17.4495 9.94866 17.449 9.98645 17.4485C10.0242 17.448 10.062 17.4475 10.0999 17.447C10.1377 17.4465 10.1755 17.4461 10.2134 17.4456C10.2512 17.4451 10.2891 17.4446 10.3269 17.4441C10.3648 17.4436 10.4027 17.4432 10.4406 17.4427C10.4785 17.4422 10.5164 17.4417 10.5543 17.4412C10.5923 17.4407 10.6302 17.4402 10.6681 17.4398C10.7061 17.4393 10.7441 17.4388 10.782 17.4383C10.82 17.4378 10.858 17.4373 10.896 17.4368C10.934 17.4364 10.972 17.4359 11.01 17.4354C11.0481 17.4349 11.0861 17.4344 11.1241 17.4339C11.1622 17.4334 11.2003 17.4329 11.2383 17.4325C11.2764 17.432 11.3145 17.4315 11.3526 17.431C11.3907 17.4305 11.4288 17.43 11.4669 17.4295C11.505 17.429 11.5431 17.4286 11.5813 17.4281C11.6194 17.4276 11.6575 17.4271 11.6957 17.4266C11.7338 17.4261 11.772 17.4256 11.8102 17.4251C11.8484 17.4246 11.8865 17.4242 11.9247 17.4237C11.9629 17.4232 12.0011 17.4227 12.0394 17.4222C12.0776 17.4217 12.1158 17.4212 12.154 17.4207C12.1923 17.4202 12.2305 17.4198 12.2687 17.4193C12.307 17.4188 12.3453 17.4183 12.3835 17.4178C12.4218 17.4173 12.4601 17.4168 12.4983 17.4163C12.5366 17.4158 12.5749 17.4153 12.6132 17.4149C12.6515 17.4144 12.6898 17.4139 12.7281 17.4134C12.7665 17.4129 12.8048 17.4124 12.8431 17.4119C12.8815 17.4114 12.9198 17.4109 12.9581 17.4104C12.9965 17.4099 13.0348 17.4095 13.0732 17.409C13.1116 17.4085 13.1499 17.408 13.1883 17.4075C13.2267 17.407 13.265 17.4065 13.3034 17.406C13.3418 17.4055 13.3802 17.405 13.4186 17.4045C13.457 17.404 13.4954 17.4036 13.5338 17.4031C13.5722 17.4026 13.6106 17.4021 13.6491 17.4016C13.6875 17.4011 13.7259 17.4006 13.7644 17.4001C13.8028 17.3996 13.8412 17.3991 13.8797 17.3986C13.9181 17.3981 13.9566 17.3977 13.995 17.3972C14.0335 17.3967 14.0719 17.3962 14.1104 17.3957C14.1488 17.3952 14.1873 17.3947 14.2258 17.3942C14.2642 17.3937 14.3027 17.3932 14.3412 17.3927C14.3797 17.3922 14.4182 17.3917 14.4566 17.3912C14.4951 17.3908 14.5336 17.3903 14.5721 17.3898C14.6106 17.3893 14.6491 17.3888 14.6876 17.3883C14.7261 17.3878 14.7646 17.3873 14.8031 17.3868C14.8416 17.3863 14.8801 17.3858 14.9186 17.3853C14.9571 17.3848 14.9956 17.3843 15.0342 17.3839C15.0727 17.3834 15.1112 17.3829 15.1497 17.3824C15.1882 17.3819 15.2268 17.3814 15.2653 17.3809C15.3038 17.3804 15.3423 17.3799 15.3809 17.3794C15.4194 17.3789 15.4579 17.3784 15.4964 17.3779C15.535 17.3774 15.5735 17.3769 15.612 17.3765C15.6506 17.376 15.6891 17.3755 15.7276 17.375C15.7661 17.3745 15.8047 17.374 15.8432 17.3735C15.8817 17.373 15.9203 17.3725 15.9588 17.372C15.9973 17.3715 16.0359 17.371 16.0744 17.3705C16.1129 17.37 16.1515 17.3695 16.19 17.3691C16.2285 17.3686 16.2671 17.3681 16.3056 17.3676C16.3441 17.3671 16.3827 17.3666 16.4212 17.3661C16.4597 17.3656 16.4983 17.3651 16.5368 17.3646C16.5753 17.3641 16.6138 17.3636 16.6524 17.3631C16.6909 17.3626 16.7294 17.3621 16.7679 17.3617C16.8065 17.3612 16.845 17.3607 16.8835 17.3602C16.922 17.3597 16.9605 17.3592 16.999 17.3587C17.0376 17.3582 17.0761 17.3577 17.1146 17.3572C17.1531 17.3567 17.1916 17.3562 17.2301 17.3557C17.2686 17.3552 17.3071 17.3547 17.3456 17.3543C17.3841 17.3538 17.4226 17.3533 17.4611 17.3528C17.4996 17.3523 17.5381 17.3518 17.5765 17.3513C17.615 17.3508 17.6535 17.3503 17.692 17.3498C17.7305 17.3493 17.7689 17.3488 17.8074 17.3483C17.8459 17.3479 17.8843 17.3474 17.9228 17.3469C17.9612 17.3464 17.9997 17.3459 18.0381 17.3454C18.0766 17.3449 18.115 17.3444 18.1535 17.3439C18.1919 17.3434 18.2303 17.3429 18.2688 17.3424C18.3072 17.3419 18.3456 17.3415 18.384 17.341C18.4225 17.3405 18.4609 17.34 18.4993 17.3395C18.5377 17.339 18.5761 17.3385 18.6145 17.338C18.6529 17.3375 18.6913 17.337 18.7296 17.3365C18.768 17.336 18.8064 17.3356 18.8448 17.3351C18.8831 17.3346 18.9215 17.3341 18.9598 17.3336C18.9982 17.3331 19.0366 17.3326 19.0749 17.3321C19.1132 17.3316 19.1516 17.3311 19.1899 17.3306C19.2282 17.3302 19.2665 17.3297 19.3048 17.3292C19.3432 17.3287 19.3815 17.3282 19.4198 17.3277C19.458 17.3272 19.4963 17.3267 19.5346 17.3262C19.5729 17.3257 19.6112 17.3252 19.6494 17.3248C19.6877 17.3243 19.7259 17.3238 19.7642 17.3233C19.8024 17.3228 19.8407 17.3223 19.8789 17.3218C19.9171 17.3213 19.9553 17.3208 19.9935 17.3204C20.0317 17.3199 20.0699 17.3194 20.1081 17.3189C20.1463 17.3184 20.1845 17.3179 20.2227 17.3174C20.2608 17.3169 20.299 17.3164 20.3371 17.316C20.3753 17.3155 20.4134 17.315 20.4515 17.3145C20.4897 17.314 20.5278 17.3135 20.5659 17.313C20.604 17.3125 20.6421 17.312 20.6802 17.3116C20.7183 17.3111 20.7563 17.3106 20.7944 17.3101C20.8325 17.3096 20.8705 17.3091 20.9086 17.3086C20.9466 17.3081 20.9846 17.3077 21.0226 17.3072C21.0607 17.3067 21.0987 17.3062 21.1366 17.3057C21.1746 17.3052 21.2126 17.3047 21.2506 17.3043C21.2886 17.3038 21.3265 17.3033 21.3644 17.3028C21.4024 17.3023 21.4403 17.3018 21.4782 17.3013C21.5162 17.3009 21.5541 17.3004 21.5919 17.2999C21.6298 17.2994 21.6677 17.2989 21.7056 17.2984C21.7434 17.2979 21.7813 17.2975 21.8191 17.297C21.857 17.2965 21.8948 17.296 21.9326 17.2955C21.9704 17.295 22.0082 17.2946 22.046 17.2941C22.0838 17.2936 22.1215 17.2931 22.1593 17.2926C22.197 17.2921 22.2348 17.2917 22.2725 17.2912C22.3102 17.2907 22.3479 17.2902 22.3856 17.2897C22.4233 17.2892 22.461 17.2888 22.4986 17.2883C22.5363 17.2878 22.5739 17.2873 22.6116 17.2868C22.6492 17.2863 22.6868 17.2859 22.7244 17.2854C22.762 17.2849 22.7996 17.2844 22.8372 17.2839C22.8747 17.2835 22.9123 17.283 22.9498 17.2825C22.9873 17.282 23.0249 17.2815 23.0624 17.2811C23.0999 17.2806 23.1373 17.2801 23.1748 17.2796C23.2123 17.2791 23.2497 17.2787 23.2872 17.2782C23.3246 17.2777 23.362 17.2772 23.3994 17.2767C23.4368 17.2763 23.4742 17.2758 23.5116 17.2753C23.5489 17.2748 23.5863 17.2743 23.6236 17.2739C23.6609 17.2734 23.6982 17.2729 23.7355 17.2724C23.7728 17.272 23.8101 17.2715 23.8473 17.271C23.8846 17.2705 23.9218 17.2701 23.959 17.2696C23.9962 17.2691 24.0334 17.2686 24.0706 17.2681C24.1078 17.2677 24.1449 17.2672 24.1821 17.2667C24.2192 17.2662 24.2563 17.2658 24.2934 17.2653C24.3305 17.2648 24.3676 17.2643 24.4047 17.2639C24.4417 17.2634 24.4788 17.2629 24.5158 17.2624C24.5528 17.262 24.5898 17.2615 24.6268 17.261C24.6638 17.2606 24.7007 17.2601 24.7377 17.2596C24.7746 17.2591 24.8115 17.2587 24.8484 17.2582C24.8853 17.2577 24.9222 17.2572 24.959 17.2568C24.9959 17.2563 25.0327 17.2558 25.0695 17.2554C25.1063 17.2549 25.1431 17.2544 25.1799 17.2539C25.2167 17.2535 25.2534 17.253 25.2901 17.2525C25.3268 17.2521 25.3635 17.2516 25.4002 17.2511C25.4369 17.2507 25.4736 17.2502 25.5102 17.2497C25.5468 17.2492 25.5834 17.2488 25.62 17.2483C25.6566 17.2478 25.6932 17.2474 25.7297 17.2469C25.7662 17.2464 25.8028 17.246 25.8393 17.2455C25.8757 17.245 25.9122 17.2446 25.9487 17.2441C25.9851 17.2436 26.0215 17.2432 26.0579 17.2427C26.0943 17.2422 26.1307 17.2418 26.1671 17.2413C26.2034 17.2408 26.2397 17.2404 26.276 17.2399C26.3123 17.2394 26.3486 17.239 26.3849 17.2385C26.4211 17.2381 26.4573 17.2376 26.4935 17.2371C26.5297 17.2367 26.5659 17.2362 26.6021 17.2357C26.6382 17.2353 26.6743 17.2348 26.7104 17.2343C26.7465 17.2339 26.7826 17.2334 26.8187 17.233C26.8547 17.2325 26.8907 17.232 26.9267 17.2316C26.9627 17.2311 26.9987 17.2307 27.0346 17.2302C27.0706 17.2297 27.1065 17.2293 27.1424 17.2288C27.1783 17.2284 27.2141 17.2279 27.25 17.2274C27.2858 17.227 27.3216 17.2265 27.3574 17.2261C27.3932 17.2256 27.4289 17.2251 27.4646 17.2247C27.5004 17.2242 27.5361 17.2238 27.5717 17.2233C27.6074 17.2229 27.6431 17.2224 27.6787 17.2219C27.7143 17.2215 27.7499 17.221 27.7854 17.2206C27.821 17.2201 27.8565 17.2197 27.892 17.2192C27.9275 17.2188 27.963 17.2183 27.9984 17.2179C28.0339 17.2174 28.0693 17.2169 28.1047 17.2165C28.1401 17.216 28.1754 17.2156 28.2107 17.2151C28.2461 17.2147 28.2814 17.2142 28.3166 17.2138C28.3519 17.2133 28.3871 17.2129 28.4223 17.2124C28.4575 17.212 28.4927 17.2115 28.5279 17.2111C28.563 17.2106 28.5981 17.2102 28.6332 17.2097C28.6683 17.2093 28.7034 17.2088 28.7384 17.2084C28.7734 17.2079 28.8084 17.2075 28.8434 17.207C28.8783 17.2066 28.9133 17.2061 28.9482 17.2057C28.9831 17.2052 29.0179 17.2048 29.0528 17.2044C29.0876 17.2039 29.1224 17.2035 29.1572 17.203C29.1919 17.2026 29.2267 17.2021 29.2614 17.2017C29.2961 17.2012 29.3308 17.2008 29.3654 17.2004C29.4001 17.1999 29.4347 17.1995 29.4693 17.199C29.5038 17.1986 29.5384 17.1981 29.5729 17.1977C29.6074 17.1973 29.6419 17.1968 29.6763 17.1964C29.7108 17.1959 29.7452 17.1955 29.7796 17.195C29.8139 17.1946 29.8483 17.1942 29.8826 17.1937C29.9169 17.1933 29.9512 17.1929 29.9854 17.1924C30.0197 17.192 30.0539 17.1915 30.0881 17.1911C30.1222 17.1907 30.1564 17.1902 30.1905 17.1898C30.2246 17.1894 30.2587 17.1889 30.2927 17.1885C30.3267 17.188 30.3607 17.1876 30.3947 17.1872C30.4287 17.1867 30.4626 17.1863 30.4965 17.1859C30.5304 17.1854 30.5643 17.185 30.5981 17.1846C30.6319 17.1841 30.6657 17.1837 30.6995 17.1833C30.7332 17.1828 30.7669 17.1824 30.8006 17.182C30.8343 17.1815 30.8679 17.1811 30.9015 17.1807C30.9351 17.1803 30.9687 17.1798 31.0023 17.1794C31.0358 17.179 31.0693 17.1785 31.1027 17.1781C31.1362 17.1777 31.1696 17.1773 31.203 17.1768C31.2364 17.1764 31.2697 17.176 31.3031 17.1755C31.3364 17.1751 31.3696 17.1747 31.4029 17.1743C31.4361 17.1738 31.4693 17.1734 31.5025 17.173C31.5356 17.1726 31.5687 17.1721 31.6018 17.1717C31.6349 17.1713 31.668 17.1709 31.701 17.1704C31.734 17.17 31.7669 17.1696 31.7999 17.1692C31.8328 17.1688 31.8657 17.1683 31.8985 17.1679C31.9314 17.1675 31.9642 17.1671 31.997 17.1667C32.0297 17.1662 32.0625 17.1658 32.0951 17.1654C32.1278 17.165 32.1605 17.1646 32.1931 17.1641C32.2257 17.1637 32.2583 17.1633 32.2908 17.1629C32.3233 17.1625 32.3558 17.1621 32.3883 17.1616C32.4207 17.1612 32.4531 17.1608 32.4855 17.1604C32.5179 17.16 32.5502 17.1596 32.5825 17.1592C32.6148 17.1587 32.647 17.1583 32.6792 17.1579C32.7114 17.1575 32.7436 17.1571 32.7757 17.1567C32.8078 17.1563 32.8399 17.1559 32.8719 17.1555C32.904 17.155 32.936 17.1546 32.9679 17.1542C32.9999 17.1538 33.0318 17.1534 33.0636 17.153C33.0955 17.1526 33.1273 17.1522 33.1591 17.1518C33.1909 17.1514 33.2226 17.151 33.2543 17.1506C33.286 17.1502 33.3177 17.1497 33.3493 17.1493C33.3809 17.1489 33.4125 17.1485 33.444 17.1481C33.4755 17.1477 33.507 17.1473 33.5384 17.1469C33.5699 17.1465 33.6012 17.1461 33.6326 17.1457C33.6639 17.1453 33.6952 17.1449 33.7265 17.1445C33.7578 17.1441 33.789 17.1437 33.8201 17.1433C33.8513 17.1429 33.8824 17.1425 33.9135 17.1421C33.9446 17.1417 33.9756 17.1413 34.0066 17.1409C34.0376 17.1405 34.0685 17.1401 34.0994 17.1397C34.1303 17.1393 34.1612 17.1389 34.192 17.1386C34.2228 17.1382 34.2536 17.1378 34.2843 17.1374C34.315 17.137 34.3457 17.1366 34.3763 17.1362C34.4069 17.1358 34.4375 17.1354 34.468 17.135C34.4985 17.1346 34.529 17.1342 34.5595 17.1338C34.5899 17.1335 34.6203 17.1331 34.6506 17.1327C34.681 17.1323 34.7113 17.1319 34.7415 17.1315C34.7718 17.1311 34.802 17.1307 34.8321 17.1304C34.8623 17.13 34.8924 17.1296 34.9224 17.1292C34.9525 17.1288 34.9825 17.1284 35.0124 17.128C35.0424 17.1277 35.0723 17.1273 35.1022 17.1269C35.132 17.1265 35.1619 17.1261 35.1916 17.1258C35.2214 17.1254 35.2511 17.125 35.2808 17.1246C35.3104 17.1242 35.3401 17.1239 35.3696 17.1235C35.3992 17.1231 35.4287 17.1227 35.4582 17.1223C35.4877 17.122 35.5171 17.1216 35.5465 17.1212C35.5758 17.1208 35.6052 17.1205 35.6344 17.1201C35.6637 17.1197 35.6929 17.1193 35.7221 17.119C35.7513 17.1186 35.7804 17.1182 35.8094 17.1178C35.8385 17.1175 35.8675 17.1171 35.8965 17.1167C35.9255 17.1164 35.9544 17.116 35.9833 17.1156C36.0121 17.1152 36.0409 17.1149 36.0697 17.1145C36.0985 17.1141 36.1272 17.1138 36.1558 17.1134C36.1845 17.113 36.2131 17.1127 36.2416 17.1123C36.2702 17.1119 36.2987 17.1116 36.3272 17.1112C36.3556 17.1108 36.384 17.1105 36.4124 17.1101C36.4407 17.1098 36.469 17.1094 36.4972 17.109C36.5255 17.1087 36.5537 17.1083 36.5818 17.108C36.6099 17.1076 36.638 17.1072 36.666 17.1069C36.6941 17.1065 36.722 17.1062 36.75 17.1058C36.7779 17.1054 36.8058 17.1051 36.8336 17.1047C36.8614 17.1044 36.8891 17.104 36.9168 17.1037C36.9446 17.1033 36.9722 17.103 36.9998 17.1026C37.0274 17.1022 37.0549 17.1019 37.0824 17.1015C37.1099 17.1012 37.1374 17.1008 37.1647 17.1005C37.1921 17.1001 37.2194 17.0998 37.2467 17.0994C37.274 17.0991 37.3012 17.0987 37.3283 17.0984C37.3555 17.098 37.3826 17.0977 37.4096 17.0974C37.4367 17.097 37.4637 17.0967 37.4906 17.0963C37.5175 17.096 37.5444 17.0956 37.5712 17.0953C37.598 17.0949 37.6248 17.0946 37.6515 17.0943C37.6782 17.0939 37.7049 17.0936 37.7315 17.0932C37.7581 17.0929 37.7846 17.0926 37.8111 17.0922C37.8376 17.0919 37.864 17.0915 37.8903 17.0912C37.9167 17.0909 37.943 17.0905 37.9693 17.0902C37.9955 17.0899 38.0217 17.0895 38.0478 17.0892C38.074 17.0888 38.1001 17.0885 38.1261 17.0882C38.1521 17.0878 38.178 17.0875 38.2039 17.0872C38.2298 17.0869 38.2557 17.0865 38.2815 17.0862C38.3073 17.0859 38.333 17.0855 38.3586 17.0852C38.3843 17.0849 38.4099 17.0845 38.4355 17.0842C38.461 17.0839 38.4865 17.0836 38.5119 17.0832C38.5374 17.0829 38.5627 17.0826 38.588 17.0823C38.6133 17.0819 38.6386 17.0816 38.6638 17.0813C38.689 17.081 38.7141 17.0807 38.7392 17.0803C38.7642 17.08 38.7892 17.0797 38.8142 17.0794C38.8391 17.079 38.864 17.0787 38.8888 17.0784C38.9137 17.0781 38.9384 17.0778 38.9631 17.0775C38.9878 17.0771 39.0125 17.0768 39.037 17.0765C39.0616 17.0762 39.0861 17.0759 39.1106 17.0756C39.135 17.0753 39.1594 17.0749 39.1838 17.0746C39.2081 17.0743 39.2324 17.074 39.2566 17.0737C39.2808 17.0734 39.3049 17.0731 39.329 17.0728C39.3531 17.0725 39.3771 17.0722 39.4011 17.0719C39.425 17.0715 39.4489 17.0712 39.4728 17.0709C39.4966 17.0706 39.5203 17.0703 39.5441 17.07C39.5678 17.0697 39.5914 17.0694 39.615 17.0691C39.6386 17.0688 39.6621 17.0685 39.6855 17.0682C39.709 17.0679 39.7323 17.0676 39.7557 17.0673C39.779 17.067 39.8022 17.0667 39.8254 17.0664C39.8486 17.0661 39.8718 17.0658 39.8948 17.0655C39.9179 17.0652 39.9409 17.0649 39.9638 17.0646C39.9867 17.0644 40.0096 17.0641 40.0324 17.0638C40.0552 17.0635 40.078 17.0632 40.1006 17.0629C40.1233 17.0626 40.1459 17.0623 40.1684 17.062C40.191 17.0617 40.2135 17.0615 40.2359 17.0612C40.2583 17.0609 40.2806 17.0606 40.3029 17.0603C40.3252 17.06 40.3474 17.0597 40.3695 17.0595C40.3917 17.0592 40.4137 17.0589 40.4357 17.0586C40.4577 17.0583 40.4797 17.058 40.5016 17.0578C40.5234 17.0575 40.5452 17.0572 40.567 17.0569C40.5887 17.0566 40.6104 17.0564 40.632 17.0561C40.6536 17.0558 40.6751 17.0555 40.6966 17.0553C40.7181 17.055 40.7395 17.0547 40.7608 17.0544C40.7821 17.0542 40.8034 17.0539 40.8246 17.0536C40.8458 17.0534 40.8669 17.0531 40.888 17.0528C40.909 17.0525 40.93 17.0523 40.9509 17.052C40.9718 17.0517 40.9927 17.0515 41.0135 17.0512C41.0342 17.0509 41.055 17.0507 41.0756 17.0504C41.0962 17.0501 41.1168 17.0499 41.1373 17.0496C41.1578 17.0494 41.1782 17.0491 41.1986 17.0488C41.219 17.0486 41.2393 17.0483 41.2595 17.0481C41.2797 17.0478 41.2998 17.0475 41.3199 17.0473C41.34 17.047 41.36 17.0468 41.3799 17.0465C41.3999 17.0463 41.4198 17.046 41.4395 17.0458C41.4593 17.0455 41.4791 17.0452 41.4987 17.045C41.5184 17.0447 41.5379 17.0445 41.5575 17.0442C41.577 17.044 41.5964 17.0437 41.6158 17.0435C41.6351 17.0432 41.6544 17.043 41.6736 17.0428C41.6929 17.0425 41.712 17.0423 41.7311 17.042C41.7502 17.0418 41.7692 17.0415 41.7881 17.0413C41.807 17.041 41.8259 17.0408 41.8447 17.0406C41.8634 17.0403 41.8821 17.0401 41.9008 17.0398C41.9194 17.0396 41.938 17.0394 41.9565 17.0391C41.975 17.0389 41.9934 17.0387 42.0117 17.0384C42.0301 17.0382 42.0483 17.038 42.0665 17.0377C42.0847 17.0375 42.1028 17.0373 42.1209 17.037C42.1389 17.0368 42.1569 17.0366 42.1748 17.0363C42.1927 17.0361 42.2105 17.0359 42.2282 17.0357C42.246 17.0354 42.2636 17.0352 42.2812 17.035C42.2988 17.0348 42.3163 17.0345 42.3338 17.0343C42.3512 17.0341 42.3686 17.0339 42.3859 17.0336C42.4032 17.0334 42.4204 17.0332 42.4375 17.033C42.4547 17.0328 42.4717 17.0325 42.4887 17.0323C42.5057 17.0321 42.5226 17.0319 42.5394 17.0317C42.5563 17.0315 42.573 17.0312 42.5897 17.031C42.6064 17.0308 42.623 17.0306 42.6395 17.0304C42.656 17.0302 42.6725 17.03 42.6889 17.0298C42.7052 17.0295 42.7215 17.0293 42.7377 17.0291C42.7539 17.0289 42.7701 17.0287 42.7861 17.0285C42.8022 17.0283 42.8182 17.0281 42.8341 17.0279C42.85 17.0277 42.8658 17.0275 42.8815 17.0273C42.8973 17.0271 42.913 17.0269 42.9285 17.0267C42.9441 17.0265 42.9596 17.0263 42.9751 17.0261C42.9905 17.0259 43.0058 17.0257 43.0211 17.0255C43.0364 17.0253 43.0516 17.0251 43.0667 17.0249C43.0818 17.0247 43.0968 17.0245 43.1118 17.0243C43.1267 17.0241 43.1416 17.024 43.1564 17.0238C43.1712 17.0236 43.1859 17.0234 43.2005 17.0232C43.2152 17.023 43.2297 17.0228 43.2442 17.0226C43.2586 17.0225 43.273 17.0223 43.2873 17.0221C43.3016 17.0219 43.3159 17.0217 43.33 17.0215C43.3442 17.0214 43.3582 17.0212 43.3722 17.021C43.3862 17.0208 43.4001 17.0206 43.4139 17.0205C43.4277 17.0203 43.4414 17.0201 43.4551 17.0199C43.4687 17.0198 43.4823 17.0196 43.4958 17.0194C43.5093 17.0193 43.5227 17.0191 43.536 17.0189C43.5493 17.0187 43.5626 17.0186 43.5757 17.0184C43.5889 17.0182 43.602 17.0181 43.615 17.0179C43.628 17.0177 43.6409 17.0176 43.6537 17.0174C43.6665 17.0172 43.6793 17.0171 43.6919 17.0169C43.7046 17.0168 43.7171 17.0166 43.7296 17.0164C43.7421 17.0163 43.7545 17.0161 43.7668 17.016C43.7792 17.0158 43.7914 17.0156 43.8036 17.0155C43.8157 17.0153 43.8278 17.0152 43.8398 17.015C43.8517 17.0149 43.8636 17.0147 43.8754 17.0146C43.8873 17.0144 43.899 17.0143 43.9106 17.0141C43.9223 17.014 43.9338 17.0138 43.9453 17.0137C43.9568 17.0135 43.9681 17.0134 43.9794 17.0132C43.9907 17.0131 44.002 17.0129 44.0131 17.0128C44.0242 17.0127 44.0352 17.0125 44.0462 17.0124C44.0571 17.0122 44.068 17.0121 44.0788 17.012C44.0896 17.0118 44.1003 17.0117 44.1109 17.0115C44.1215 17.0114 44.132 17.0113 44.1424 17.0111C44.1529 17.011 44.1632 17.0109 44.1735 17.0107C44.1837 17.0106 44.1939 17.0105 44.204 17.0104C44.214 17.0102 44.224 17.0101 44.2339 17.01C44.2439 17.0098 44.2537 17.0097 44.2634 17.0096C44.2731 17.0095 44.2828 17.0093 44.2923 17.0092C44.3019 17.0091 44.3113 17.009 44.3207 17.0089C44.3301 17.0087 44.3394 17.0086 44.3486 17.0085C44.3577 17.0084 44.3669 17.0083 44.3759 17.0082C44.3849 17.008 44.3938 17.0079 44.4026 17.0078C44.4115 17.0077 44.4202 17.0076 44.4289 17.0075C44.4375 17.0074 44.4461 17.0073 44.4546 17.0071C44.4631 17.007 44.4715 17.0069 44.4797 17.0068C44.488 17.0067 44.4962 17.0066 44.5044 17.0065C44.5125 17.0064 44.5205 17.0063 44.5284 17.0062C44.5364 17.0061 44.5442 17.006 44.552 17.0059C44.5597 17.0058 44.5674 17.0057 44.5749 17.0056C44.5825 17.0055 44.59 17.0054 44.5973 17.0053C44.6047 17.0052 44.612 17.0051 44.6192 17.005C44.6264 17.0049 44.6335 17.0049 44.6405 17.0048C44.6476 17.0047 44.6545 17.0046 44.6613 17.0045C44.6681 17.0044 44.6749 17.0043 44.6815 17.0042C44.6882 17.0042 44.6947 17.0041 44.7012 17.004C44.7076 17.0039 44.714 17.0038 44.7202 17.0037C44.7265 17.0037 44.7327 17.0036 44.7388 17.0035C44.7449 17.0034 44.7508 17.0034 44.7567 17.0033C44.7626 17.0032 44.7684 17.0031 44.7741 17.0031C44.7798 17.003 44.7854 17.0029 44.791 17.0028C44.7965 17.0028 44.8019 17.0027 44.8072 17.0026C44.8125 17.0026 44.8178 17.0025 44.8229 17.0024C44.8281 17.0024 44.8331 17.0023 44.838 17.0022C44.843 17.0022 44.8478 17.0021 44.8526 17.0021C44.8573 17.002 44.862 17.0019 44.8666 17.0019C44.8711 17.0018 44.8756 17.0018 44.88 17.0017C44.8843 17.0016 44.8886 17.0016 44.8928 17.0015C44.897 17.0015 44.901 17.0014 44.905 17.0014C44.909 17.0013 44.9129 17.0013 44.9167 17.0012C44.9205 17.0012 44.9242 17.0011 44.9278 17.0011C44.9313 17.001 44.9348 17.001 44.9382 17.001C44.9416 17.0009 44.9449 17.0009 44.9481 17.0008C44.9514 17.0008 44.9545 17.0007 44.9575 17.0007C44.9605 17.0007 44.9634 17.0006 44.9662 17.0006C44.969 17.0006 44.9717 17.0005 44.9743 17.0005C44.9769 17.0005 44.9795 17.0004 44.9819 17.0004C44.9843 17.0004 44.9866 17.0003 44.9888 17.0003C44.9911 17.0003 44.9932 17.0003 44.9952 17.0002C44.9972 17.0002 44.9991 17.0002 45.0009 17.0002C45.0028 17.0001 45.0045 17.0001 45.0061 17.0001C45.0077 17.0001 45.0092 17 45.0107 17C45.0121 17 45.0134 17 45.0146 17C45.0158 17 45.0169 16.9999 45.018 16.9999C45.019 16.9999 45.0199 16.9999 45.0207 16.9999C45.0215 16.9999 45.0222 16.9999 45.0229 16.9999C45.0235 16.9999 45.024 16.9999 45.0244 16.9999C45.0248 16.9998 45.0251 16.9998 45.0253 16.9998C45.0255 16.9998 45.0256 16.9998 45 15C44.9744 13.0002 44.9743 13.0002 44.9741 13.0002C44.9739 13.0002 44.9736 13.0002 44.9732 13.0002C44.9728 13.0002 44.9722 13.0002 44.9716 13.0002C44.971 13.0002 44.9703 13.0002 44.9695 13.0002C44.9687 13.0002 44.9678 13.0002 44.9668 13.0003C44.9657 13.0003 44.9646 13.0003 44.9634 13.0003C44.9622 13.0003 44.9609 13.0003 44.9594 13.0004C44.958 13.0004 44.9565 13.0004 44.9549 13.0004C44.9533 13.0004 44.9516 13.0005 44.9497 13.0005C44.9479 13.0005 44.946 13.0005 44.944 13.0006C44.942 13.0006 44.9398 13.0006 44.9376 13.0006C44.9354 13.0007 44.9331 13.0007 44.9307 13.0007C44.9283 13.0008 44.9257 13.0008 44.9231 13.0008C44.9205 13.0009 44.9178 13.0009 44.915 13.0009C44.9122 13.001 44.9093 13.001 44.9063 13.001C44.9033 13.0011 44.9001 13.0011 44.8969 13.0012C44.8937 13.0012 44.8904 13.0012 44.887 13.0013C44.8836 13.0013 44.8801 13.0014 44.8765 13.0014C44.8729 13.0015 44.8693 13.0015 44.8655 13.0016C44.8617 13.0016 44.8578 13.0017 44.8538 13.0017C44.8498 13.0018 44.8457 13.0018 44.8416 13.0019C44.8374 13.0019 44.8331 13.002 44.8287 13.002C44.8244 13.0021 44.8199 13.0021 44.8153 13.0022C44.8108 13.0023 44.8061 13.0023 44.8014 13.0024C44.7966 13.0024 44.7918 13.0025 44.7868 13.0026C44.7819 13.0026 44.7768 13.0027 44.7717 13.0028C44.7666 13.0028 44.7613 13.0029 44.756 13.003C44.7507 13.003 44.7453 13.0031 44.7397 13.0032C44.7342 13.0032 44.7286 13.0033 44.7229 13.0034C44.7172 13.0035 44.7114 13.0035 44.7055 13.0036C44.6996 13.0037 44.6936 13.0038 44.6876 13.0038C44.6815 13.0039 44.6753 13.004 44.669 13.0041C44.6628 13.0042 44.6564 13.0042 44.6499 13.0043C44.6435 13.0044 44.6369 13.0045 44.6303 13.0046C44.6237 13.0047 44.6169 13.0047 44.6101 13.0048C44.6033 13.0049 44.5963 13.005 44.5893 13.0051C44.5823 13.0052 44.5752 13.0053 44.568 13.0054C44.5608 13.0055 44.5535 13.0056 44.5461 13.0056C44.5388 13.0057 44.5313 13.0058 44.5237 13.0059C44.5161 13.006 44.5085 13.0061 44.5007 13.0062C44.493 13.0063 44.4851 13.0064 44.4772 13.0065C44.4693 13.0066 44.4613 13.0067 44.4531 13.0068C44.445 13.0069 44.4368 13.007 44.4285 13.0072C44.4202 13.0073 44.4119 13.0074 44.4034 13.0075C44.3949 13.0076 44.3863 13.0077 44.3777 13.0078C44.369 13.0079 44.3603 13.008 44.3514 13.0081C44.3426 13.0083 44.3337 13.0084 44.3247 13.0085C44.3156 13.0086 44.3065 13.0087 44.2973 13.0088C44.2881 13.009 44.2789 13.0091 44.2695 13.0092C44.2601 13.0093 44.2507 13.0094 44.2411 13.0096C44.2315 13.0097 44.2219 13.0098 44.2122 13.0099C44.2025 13.01 44.1926 13.0102 44.1827 13.0103C44.1728 13.0104 44.1628 13.0106 44.1528 13.0107C44.1427 13.0108 44.1325 13.0109 44.1222 13.0111C44.112 13.0112 44.1016 13.0113 44.0912 13.0115C44.0808 13.0116 44.0703 13.0117 44.0597 13.0119C44.0491 13.012 44.0384 13.0121 44.0276 13.0123C44.0168 13.0124 44.0059 13.0126 43.995 13.0127C43.984 13.0128 43.973 13.013 43.9619 13.0131C43.9507 13.0133 43.9395 13.0134 43.9282 13.0136C43.9169 13.0137 43.9055 13.0138 43.8941 13.014C43.8826 13.0141 43.8711 13.0143 43.8594 13.0144C43.8478 13.0146 43.836 13.0147 43.8242 13.0149C43.8124 13.015 43.8005 13.0152 43.7885 13.0153C43.7766 13.0155 43.7645 13.0157 43.7523 13.0158C43.7402 13.016 43.728 13.0161 43.7156 13.0163C43.7033 13.0164 43.6909 13.0166 43.6784 13.0168C43.6659 13.0169 43.6534 13.0171 43.6407 13.0172C43.628 13.0174 43.6153 13.0176 43.6025 13.0177C43.5897 13.0179 43.5767 13.0181 43.5638 13.0182C43.5508 13.0184 43.5377 13.0186 43.5245 13.0187C43.5114 13.0189 43.4981 13.0191 43.4848 13.0192C43.4715 13.0194 43.4581 13.0196 43.4446 13.0198C43.4311 13.0199 43.4175 13.0201 43.4039 13.0203C43.3902 13.0204 43.3765 13.0206 43.3627 13.0208C43.3489 13.021 43.335 13.0212 43.321 13.0213C43.307 13.0215 43.2929 13.0217 43.2788 13.0219C43.2647 13.0221 43.2504 13.0222 43.2361 13.0224C43.2218 13.0226 43.2074 13.0228 43.193 13.023C43.1785 13.0232 43.1639 13.0233 43.1493 13.0235C43.1347 13.0237 43.12 13.0239 43.1052 13.0241C43.0904 13.0243 43.0755 13.0245 43.0606 13.0247C43.0456 13.0249 43.0306 13.0251 43.0155 13.0252C43.0004 13.0254 42.9852 13.0256 42.9699 13.0258C42.9546 13.026 42.9393 13.0262 42.9239 13.0264C42.9084 13.0266 42.8929 13.0268 42.8773 13.027C42.8617 13.0272 42.8461 13.0274 42.8303 13.0276C42.8146 13.0278 42.7988 13.028 42.7829 13.0282C42.767 13.0284 42.751 13.0286 42.7349 13.0288C42.7189 13.029 42.7027 13.0293 42.6865 13.0295C42.6703 13.0297 42.654 13.0299 42.6376 13.0301C42.6213 13.0303 42.6048 13.0305 42.5883 13.0307C42.5718 13.0309 42.5552 13.0311 42.5385 13.0314C42.5218 13.0316 42.5051 13.0318 42.4882 13.032C42.4714 13.0322 42.4545 13.0324 42.4375 13.0326C42.4205 13.0329 42.4035 13.0331 42.3863 13.0333C42.3692 13.0335 42.352 13.0337 42.3347 13.034C42.3174 13.0342 42.3 13.0344 42.2826 13.0346C42.2651 13.0349 42.2476 13.0351 42.23 13.0353C42.2124 13.0355 42.1948 13.0358 42.177 13.036C42.1593 13.0362 42.1415 13.0364 42.1236 13.0367C42.1057 13.0369 42.0877 13.0371 42.0697 13.0374C42.0516 13.0376 42.0335 13.0378 42.0153 13.0381C41.9971 13.0383 41.9788 13.0385 41.9605 13.0388C41.9422 13.039 41.9237 13.0392 41.9053 13.0395C41.8868 13.0397 41.8682 13.0399 41.8496 13.0402C41.8309 13.0404 41.8122 13.0407 41.7934 13.0409C41.7747 13.0411 41.7558 13.0414 41.7369 13.0416C41.7179 13.0419 41.6989 13.0421 41.6799 13.0423C41.6608 13.0426 41.6416 13.0428 41.6224 13.0431C41.6032 13.0433 41.5839 13.0436 41.5646 13.0438C41.5452 13.0441 41.5258 13.0443 41.5062 13.0446C41.4867 13.0448 41.4672 13.0451 41.4475 13.0453C41.4279 13.0456 41.4081 13.0458 41.3883 13.0461C41.3685 13.0463 41.3487 13.0466 41.3287 13.0468C41.3088 13.0471 41.2888 13.0474 41.2687 13.0476C41.2486 13.0479 41.2285 13.0481 41.2083 13.0484C41.188 13.0486 41.1678 13.0489 41.1474 13.0492C41.127 13.0494 41.1066 13.0497 41.0861 13.05C41.0656 13.0502 41.045 13.0505 41.0244 13.0507C41.0037 13.051 40.983 13.0513 40.9623 13.0515C40.9415 13.0518 40.9206 13.0521 40.8997 13.0523C40.8788 13.0526 40.8578 13.0529 40.8367 13.0531C40.8157 13.0534 40.7946 13.0537 40.7734 13.054C40.7522 13.0542 40.7309 13.0545 40.7096 13.0548C40.6882 13.055 40.6668 13.0553 40.6454 13.0556C40.6239 13.0559 40.6024 13.0561 40.5808 13.0564C40.5592 13.0567 40.5375 13.057 40.5158 13.0573C40.494 13.0575 40.4722 13.0578 40.4503 13.0581C40.4285 13.0584 40.4065 13.0587 40.3845 13.0589C40.3625 13.0592 40.3404 13.0595 40.3183 13.0598C40.2962 13.0601 40.2739 13.0603 40.2517 13.0606C40.2294 13.0609 40.2071 13.0612 40.1846 13.0615C40.1622 13.0618 40.1398 13.0621 40.1172 13.0624C40.0947 13.0626 40.0721 13.0629 40.0494 13.0632C40.0267 13.0635 40.004 13.0638 39.9812 13.0641C39.9584 13.0644 39.9355 13.0647 39.9126 13.065C39.8897 13.0653 39.8667 13.0656 39.8436 13.0659C39.8205 13.0662 39.7974 13.0665 39.7742 13.0667C39.751 13.067 39.7278 13.0673 39.7045 13.0676C39.6811 13.0679 39.6578 13.0682 39.6343 13.0685C39.6109 13.0688 39.5873 13.0691 39.5638 13.0694C39.5402 13.0697 39.5165 13.07 39.4928 13.0704C39.4691 13.0707 39.4454 13.071 39.4215 13.0713C39.3977 13.0716 39.3738 13.0719 39.3499 13.0722C39.3259 13.0725 39.3019 13.0728 39.2778 13.0731C39.2537 13.0734 39.2296 13.0737 39.2054 13.074C39.1812 13.0743 39.1569 13.0747 39.1326 13.075C39.1082 13.0753 39.0838 13.0756 39.0594 13.0759C39.0349 13.0762 39.0104 13.0765 38.9858 13.0768C38.9612 13.0772 38.9366 13.0775 38.9119 13.0778C38.8872 13.0781 38.8624 13.0784 38.8376 13.0787C38.8128 13.0791 38.7879 13.0794 38.763 13.0797C38.738 13.08 38.713 13.0803 38.6879 13.0807C38.6629 13.081 38.6377 13.0813 38.6126 13.0816C38.5874 13.0819 38.5621 13.0823 38.5368 13.0826C38.5115 13.0829 38.4861 13.0832 38.4607 13.0836C38.4353 13.0839 38.4098 13.0842 38.3842 13.0845C38.3587 13.0849 38.3331 13.0852 38.3074 13.0855C38.2818 13.0859 38.256 13.0862 38.2303 13.0865C38.2045 13.0868 38.1786 13.0872 38.1527 13.0875C38.1268 13.0878 38.1009 13.0882 38.0749 13.0885C38.0488 13.0888 38.0228 13.0892 37.9966 13.0895C37.9705 13.0898 37.9443 13.0902 37.9181 13.0905C37.8918 13.0909 37.8655 13.0912 37.8391 13.0915C37.8128 13.0919 37.7863 13.0922 37.7599 13.0925C37.7334 13.0929 37.7069 13.0932 37.6803 13.0936C37.6537 13.0939 37.627 13.0942 37.6003 13.0946C37.5736 13.0949 37.5468 13.0953 37.52 13.0956C37.4932 13.096 37.4663 13.0963 37.4394 13.0966C37.4125 13.097 37.3855 13.0973 37.3584 13.0977C37.3314 13.098 37.3043 13.0984 37.2771 13.0987C37.25 13.0991 37.2227 13.0994 37.1955 13.0998C37.1682 13.1001 37.1409 13.1005 37.1135 13.1008C37.0861 13.1012 37.0587 13.1015 37.0312 13.1019C37.0037 13.1022 36.9762 13.1026 36.9486 13.1029C36.921 13.1033 36.8933 13.1036 36.8656 13.104C36.8379 13.1043 36.8102 13.1047 36.7824 13.1051C36.7545 13.1054 36.7267 13.1058 36.6988 13.1061C36.6708 13.1065 36.6429 13.1068 36.6148 13.1072C36.5868 13.1076 36.5587 13.1079 36.5306 13.1083C36.5025 13.1086 36.4743 13.109 36.446 13.1094C36.4178 13.1097 36.3895 13.1101 36.3611 13.1104C36.3328 13.1108 36.3044 13.1112 36.2759 13.1115C36.2475 13.1119 36.219 13.1123 36.1904 13.1126C36.1619 13.113 36.1333 13.1134 36.1046 13.1137C36.076 13.1141 36.0472 13.1145 36.0185 13.1148C35.9897 13.1152 35.9609 13.1156 35.932 13.1159C35.9032 13.1163 35.8743 13.1167 35.8453 13.1171C35.8163 13.1174 35.7873 13.1178 35.7582 13.1182C35.7292 13.1185 35.7 13.1189 35.6709 13.1193C35.6417 13.1197 35.6125 13.12 35.5832 13.1204C35.5539 13.1208 35.5246 13.1212 35.4952 13.1215C35.4659 13.1219 35.4365 13.1223 35.407 13.1227C35.3775 13.123 35.348 13.1234 35.3184 13.1238C35.2889 13.1242 35.2592 13.1246 35.2296 13.1249C35.1999 13.1253 35.1702 13.1257 35.1404 13.1261C35.1106 13.1265 35.0808 13.1268 35.051 13.1272C35.0211 13.1276 34.9912 13.128 34.9612 13.1284C34.9313 13.1288 34.9013 13.1291 34.8712 13.1295C34.8412 13.1299 34.8111 13.1303 34.7809 13.1307C34.7507 13.1311 34.7205 13.1315 34.6903 13.1318C34.6601 13.1322 34.6298 13.1326 34.5994 13.133C34.5691 13.1334 34.5387 13.1338 34.5083 13.1342C34.4778 13.1346 34.4473 13.135 34.4168 13.1353C34.3863 13.1357 34.3557 13.1361 34.3251 13.1365C34.2945 13.1369 34.2638 13.1373 34.2331 13.1377C34.2024 13.1381 34.1716 13.1385 34.1408 13.1389C34.11 13.1393 34.0791 13.1397 34.0482 13.1401C34.0173 13.1405 33.9864 13.1409 33.9554 13.1413C33.9244 13.1417 33.8934 13.142 33.8623 13.1424C33.8312 13.1428 33.8001 13.1432 33.7689 13.1436C33.7378 13.144 33.7065 13.1444 33.6753 13.1448C33.644 13.1452 33.6127 13.1456 33.5814 13.146C33.55 13.1464 33.5186 13.1468 33.4872 13.1472C33.4558 13.1477 33.4243 13.1481 33.3928 13.1485C33.3613 13.1489 33.3297 13.1493 33.2981 13.1497C33.2665 13.1501 33.2348 13.1505 33.2031 13.1509C33.1714 13.1513 33.1397 13.1517 33.1079 13.1521C33.0761 13.1525 33.0443 13.1529 33.0124 13.1533C32.9806 13.1537 32.9487 13.1541 32.9167 13.1546C32.8848 13.155 32.8528 13.1554 32.8207 13.1558C32.7887 13.1562 32.7566 13.1566 32.7245 13.157C32.6924 13.1574 32.6602 13.1578 32.628 13.1582C32.5958 13.1587 32.5636 13.1591 32.5313 13.1595C32.499 13.1599 32.4667 13.1603 32.4343 13.1607C32.4019 13.1611 32.3695 13.1616 32.3371 13.162C32.3046 13.1624 32.2721 13.1628 32.2396 13.1632C32.2071 13.1636 32.1745 13.1641 32.1419 13.1645C32.1093 13.1649 32.0766 13.1653 32.0439 13.1657C32.0112 13.1661 31.9785 13.1666 31.9457 13.167C31.913 13.1674 31.8802 13.1678 31.8473 13.1682C31.8145 13.1687 31.7816 13.1691 31.7486 13.1695C31.7157 13.1699 31.6828 13.1704 31.6497 13.1708C31.6167 13.1712 31.5837 13.1716 31.5506 13.172C31.5175 13.1725 31.4844 13.1729 31.4513 13.1733C31.4181 13.1737 31.3849 13.1742 31.3517 13.1746C31.3184 13.175 31.2852 13.1754 31.2518 13.1759C31.2185 13.1763 31.1852 13.1767 31.1518 13.1772C31.1184 13.1776 31.085 13.178 31.0515 13.1784C31.0181 13.1789 30.9846 13.1793 30.951 13.1797C30.9175 13.1802 30.8839 13.1806 30.8503 13.181C30.8167 13.1814 30.7831 13.1819 30.7494 13.1823C30.7157 13.1827 30.682 13.1832 30.6482 13.1836C30.6145 13.184 30.5807 13.1845 30.5469 13.1849C30.5131 13.1853 30.4792 13.1858 30.4453 13.1862C30.4114 13.1866 30.3775 13.1871 30.3435 13.1875C30.3095 13.1879 30.2755 13.1884 30.2415 13.1888C30.2075 13.1892 30.1734 13.1897 30.1393 13.1901C30.1052 13.1906 30.071 13.191 30.0369 13.1914C30.0027 13.1919 29.9685 13.1923 29.9342 13.1927C29.9 13.1932 29.8657 13.1936 29.8314 13.1941C29.7971 13.1945 29.7627 13.1949 29.7284 13.1954C29.694 13.1958 29.6596 13.1963 29.6251 13.1967C29.5907 13.1971 29.5562 13.1976 29.5217 13.198C29.4872 13.1985 29.4526 13.1989 29.418 13.1994C29.3835 13.1998 29.3489 13.2002 29.3142 13.2007C29.2796 13.2011 29.2449 13.2016 29.2102 13.202C29.1755 13.2025 29.1407 13.2029 29.106 13.2033C29.0712 13.2038 29.0364 13.2042 29.0015 13.2047C28.9667 13.2051 28.9318 13.2056 28.8969 13.206C28.862 13.2065 28.8271 13.2069 28.7921 13.2074C28.7572 13.2078 28.7222 13.2083 28.6872 13.2087C28.6521 13.2092 28.6171 13.2096 28.582 13.2101C28.5469 13.2105 28.5118 13.211 28.4767 13.2114C28.4415 13.2119 28.4063 13.2123 28.3711 13.2128C28.3359 13.2132 28.3007 13.2137 28.2654 13.2141C28.2301 13.2146 28.1949 13.215 28.1595 13.2155C28.1242 13.2159 28.0888 13.2164 28.0535 13.2168C28.0181 13.2173 27.9827 13.2177 27.9472 13.2182C27.9118 13.2186 27.8763 13.2191 27.8408 13.2195C27.8053 13.22 27.7698 13.2205 27.7342 13.2209C27.6987 13.2214 27.6631 13.2218 27.6275 13.2223C27.5918 13.2227 27.5562 13.2232 27.5205 13.2236C27.4849 13.2241 27.4492 13.2246 27.4134 13.225C27.3777 13.2255 27.342 13.2259 27.3062 13.2264C27.2704 13.2268 27.2346 13.2273 27.1987 13.2278C27.1629 13.2282 27.1271 13.2287 27.0912 13.2291C27.0553 13.2296 27.0194 13.2301 26.9834 13.2305C26.9475 13.231 26.9115 13.2314 26.8755 13.2319C26.8395 13.2324 26.8035 13.2328 26.7674 13.2333C26.7314 13.2338 26.6953 13.2342 26.6592 13.2347C26.6231 13.2351 26.587 13.2356 26.5508 13.2361C26.5147 13.2365 26.4785 13.237 26.4423 13.2375C26.4061 13.2379 26.3699 13.2384 26.3336 13.2388C26.2974 13.2393 26.2611 13.2398 26.2248 13.2402C26.1885 13.2407 26.1522 13.2412 26.1158 13.2416C26.0795 13.2421 26.0431 13.2426 26.0067 13.243C25.9703 13.2435 25.9339 13.244 25.8975 13.2444C25.861 13.2449 25.8245 13.2454 25.788 13.2458C25.7515 13.2463 25.715 13.2468 25.6785 13.2472C25.642 13.2477 25.6054 13.2482 25.5688 13.2486C25.5322 13.2491 25.4956 13.2496 25.459 13.25C25.4223 13.2505 25.3857 13.251 25.349 13.2515C25.3123 13.2519 25.2756 13.2524 25.2389 13.2529C25.2022 13.2533 25.1654 13.2538 25.1287 13.2543C25.0919 13.2547 25.0551 13.2552 25.0183 13.2557C24.9815 13.2562 24.9447 13.2566 24.9078 13.2571C24.871 13.2576 24.8341 13.258 24.7972 13.2585C24.7603 13.259 24.7234 13.2595 24.6865 13.2599C24.6495 13.2604 24.6126 13.2609 24.5756 13.2614C24.5386 13.2618 24.5016 13.2623 24.4646 13.2628C24.4276 13.2632 24.3905 13.2637 24.3535 13.2642C24.3164 13.2647 24.2793 13.2651 24.2422 13.2656C24.2051 13.2661 24.168 13.2666 24.1309 13.267C24.0937 13.2675 24.0566 13.268 24.0194 13.2685C23.9822 13.269 23.945 13.2694 23.9078 13.2699C23.8706 13.2704 23.8334 13.2709 23.7961 13.2713C23.7589 13.2718 23.7216 13.2723 23.6843 13.2728C23.647 13.2732 23.6097 13.2737 23.5724 13.2742C23.535 13.2747 23.4977 13.2752 23.4603 13.2756C23.423 13.2761 23.3856 13.2766 23.3482 13.2771C23.3108 13.2775 23.2734 13.278 23.236 13.2785C23.1985 13.279 23.1611 13.2795 23.1236 13.2799C23.0861 13.2804 23.0487 13.2809 23.0112 13.2814C22.9737 13.2819 22.9361 13.2823 22.8986 13.2828C22.8611 13.2833 22.8235 13.2838 22.7859 13.2843C22.7484 13.2848 22.7108 13.2852 22.6732 13.2857C22.6356 13.2862 22.598 13.2867 22.5604 13.2872C22.5227 13.2876 22.4851 13.2881 22.4474 13.2886C22.4098 13.2891 22.3721 13.2896 22.3344 13.2901C22.2967 13.2905 22.259 13.291 22.2213 13.2915C22.1835 13.292 22.1458 13.2925 22.1081 13.2929C22.0703 13.2934 22.0325 13.2939 21.9948 13.2944C21.957 13.2949 21.9192 13.2954 21.8814 13.2959C21.8436 13.2963 21.8058 13.2968 21.7679 13.2973C21.7301 13.2978 21.6922 13.2983 21.6544 13.2988C21.6165 13.2992 21.5786 13.2997 21.5407 13.3002C21.5028 13.3007 21.4649 13.3012 21.427 13.3017C21.3891 13.3022 21.3512 13.3026 21.3132 13.3031C21.2753 13.3036 21.2373 13.3041 21.1994 13.3046C21.1614 13.3051 21.1234 13.3056 21.0854 13.306C21.0474 13.3065 21.0094 13.307 20.9714 13.3075C20.9334 13.308 20.8954 13.3085 20.8573 13.309C20.8193 13.3095 20.7813 13.3099 20.7432 13.3104C20.7051 13.3109 20.6671 13.3114 20.629 13.3119C20.5909 13.3124 20.5528 13.3129 20.5147 13.3134C20.4766 13.3138 20.4385 13.3143 20.4003 13.3148C20.3622 13.3153 20.3241 13.3158 20.2859 13.3163C20.2478 13.3168 20.2096 13.3173 20.1714 13.3177C20.1333 13.3182 20.0951 13.3187 20.0569 13.3192C20.0187 13.3197 19.9805 13.3202 19.9423 13.3207C19.9041 13.3212 19.8659 13.3217 19.8277 13.3221C19.7894 13.3226 19.7512 13.3231 19.713 13.3236C19.6747 13.3241 19.6365 13.3246 19.5982 13.3251C19.5599 13.3256 19.5217 13.3261 19.4834 13.3266C19.4451 13.327 19.4068 13.3275 19.3685 13.328C19.3302 13.3285 19.2919 13.329 19.2536 13.3295C19.2153 13.33 19.177 13.3305 19.1387 13.331C19.1004 13.3315 19.062 13.332 19.0237 13.3324C18.9853 13.3329 18.947 13.3334 18.9086 13.3339C18.8703 13.3344 18.8319 13.3349 18.7936 13.3354C18.7552 13.3359 18.7168 13.3364 18.6784 13.3369C18.64 13.3374 18.6017 13.3378 18.5633 13.3383C18.5249 13.3388 18.4865 13.3393 18.4481 13.3398C18.4097 13.3403 18.3712 13.3408 18.3328 13.3413C18.2944 13.3418 18.256 13.3423 18.2176 13.3428C18.1791 13.3433 18.1407 13.3437 18.1023 13.3442C18.0638 13.3447 18.0254 13.3452 17.9869 13.3457C17.9485 13.3462 17.91 13.3467 17.8716 13.3472C17.8331 13.3477 17.7946 13.3482 17.7562 13.3487C17.7177 13.3492 17.6792 13.3497 17.6408 13.3501C17.6023 13.3506 17.5638 13.3511 17.5253 13.3516C17.4868 13.3521 17.4484 13.3526 17.4099 13.3531C17.3714 13.3536 17.3329 13.3541 17.2944 13.3546C17.2559 13.3551 17.2174 13.3556 17.1789 13.3561C17.1404 13.3566 17.1019 13.357 17.0634 13.3575C17.0249 13.358 16.9863 13.3585 16.9478 13.359C16.9093 13.3595 16.8708 13.36 16.8323 13.3605C16.7938 13.361 16.7553 13.3615 16.7167 13.362C16.6782 13.3625 16.6397 13.363 16.6012 13.3635C16.5626 13.364 16.5241 13.3644 16.4856 13.3649C16.4471 13.3654 16.4085 13.3659 16.37 13.3664C16.3315 13.3669 16.2929 13.3674 16.2544 13.3679C16.2159 13.3684 16.1773 13.3689 16.1388 13.3694C16.1003 13.3699 16.0617 13.3704 16.0232 13.3709C15.9847 13.3714 15.9461 13.3718 15.9076 13.3723C15.8691 13.3728 15.8305 13.3733 15.792 13.3738C15.7535 13.3743 15.7149 13.3748 15.6764 13.3753C15.6379 13.3758 15.5993 13.3763 15.5608 13.3768C15.5223 13.3773 15.4837 13.3778 15.4452 13.3783C15.4067 13.3788 15.3682 13.3792 15.3296 13.3797C15.2911 13.3802 15.2526 13.3807 15.2141 13.3812C15.1755 13.3817 15.137 13.3822 15.0985 13.3827C15.06 13.3832 15.0215 13.3837 14.9829 13.3842C14.9444 13.3847 14.9059 13.3852 14.8674 13.3857C14.8289 13.3862 14.7904 13.3866 14.7519 13.3871C14.7134 13.3876 14.6749 13.3881 14.6364 13.3886C14.5979 13.3891 14.5594 13.3896 14.5209 13.3901C14.4824 13.3906 14.4439 13.3911 14.4054 13.3916C14.3669 13.3921 14.3285 13.3926 14.29 13.3931C14.2515 13.3935 14.213 13.394 14.1746 13.3945C14.1361 13.395 14.0976 13.3955 14.0592 13.396C14.0207 13.3965 13.9822 13.397 13.9438 13.3975C13.9053 13.398 13.8669 13.3985 13.8285 13.399C13.79 13.3995 13.7516 13.3999 13.7131 13.4004C13.6747 13.4009 13.6363 13.4014 13.5979 13.4019C13.5594 13.4024 13.521 13.4029 13.4826 13.4034C13.4442 13.4039 13.4058 13.4044 13.3674 13.4049C13.329 13.4054 13.2906 13.4058 13.2522 13.4063C13.2138 13.4068 13.1755 13.4073 13.1371 13.4078C13.0987 13.4083 13.0603 13.4088 13.022 13.4093C12.9836 13.4098 12.9453 13.4103 12.9069 13.4108C12.8686 13.4113 12.8302 13.4117 12.7919 13.4122C12.7536 13.4127 12.7153 13.4132 12.6769 13.4137C12.6386 13.4142 12.6003 13.4147 12.562 13.4152C12.5237 13.4157 12.4854 13.4162 12.4471 13.4166C12.4089 13.4171 12.3706 13.4176 12.3323 13.4181C12.294 13.4186 12.2558 13.4191 12.2175 13.4196C12.1793 13.4201 12.141 13.4206 12.1028 13.4211C12.0646 13.4215 12.0264 13.422 11.9881 13.4225C11.9499 13.423 11.9117 13.4235 11.8735 13.424C11.8353 13.4245 11.7971 13.425 11.759 13.4255C11.7208 13.4259 11.6826 13.4264 11.6445 13.4269C11.6063 13.4274 11.5682 13.4279 11.53 13.4284C11.4919 13.4289 11.4538 13.4294 11.4157 13.4299C11.3776 13.4303 11.3394 13.4308 11.3014 13.4313C11.2633 13.4318 11.2252 13.4323 11.1871 13.4328C11.149 13.4333 11.111 13.4338 11.0729 13.4342C11.0349 13.4347 10.9969 13.4352 10.9588 13.4357C10.9208 13.4362 10.8828 13.4367 10.8448 13.4372C10.8068 13.4377 10.7688 13.4381 10.7308 13.4386C10.6929 13.4391 10.6549 13.4396 10.6169 13.4401C10.579 13.4406 10.541 13.4411 10.5031 13.4415C10.4652 13.442 10.4273 13.4425 10.3894 13.443C10.3515 13.4435 10.3136 13.444 10.2757 13.4445C10.2379 13.4449 10.2 13.4454 10.1621 13.4459C10.1243 13.4464 10.0865 13.4469 10.0486 13.4474C10.0108 13.4478 9.97303 13.4483 9.93524 13.4488C9.89744 13.4493 9.85967 13.4498 9.82191 13.4503C9.78415 13.4507 9.7464 13.4512 9.70867 13.4517C9.67093 13.4522 9.63322 13.4527 9.59551 13.4532C9.55781 13.4536 9.52012 13.4541 9.48245 13.4546C9.44478 13.4551 9.40712 13.4556 9.36948 13.4561C9.33184 13.4565 9.29421 13.457 9.2566 13.4575C9.21899 13.458 9.1814 13.4585 9.14382 13.4589C9.10624 13.4594 9.06868 13.4599 9.03113 13.4604C8.99359 13.4609 8.95606 13.4614 8.91855 13.4618C8.88104 13.4623 8.84354 13.4628 8.80606 13.4633C8.76858 13.4638 8.73112 13.4642 8.69367 13.4647C8.65623 13.4652 8.6188 13.4657 8.58139 13.4661C8.54398 13.4666 8.50659 13.4671 8.46921 13.4676C8.43184 13.4681 8.39448 13.4685 8.35714 13.469C8.3198 13.4695 8.28248 13.47 8.24518 13.4705C8.20788 13.4709 8.17059 13.4714 8.13333 13.4719C8.09606 13.4724 8.05881 13.4728 8.02158 13.4733C7.98435 13.4738 7.94714 13.4743 7.90995 13.4747C7.87276 13.4752 7.83559 13.4757 7.79844 13.4762C7.76129 13.4766 7.72415 13.4771 7.68704 13.4776C7.64993 13.4781 7.61283 13.4785 7.57576 13.479C7.53869 13.4795 7.50163 13.48 7.4646 13.4804C7.42756 13.4809 7.39055 13.4814 7.35356 13.4819C7.31656 13.4823 7.27959 13.4828 7.24264 13.4833C7.20569 13.4838 7.16876 13.4842 7.13185 13.4847C7.09494 13.4852 7.05805 13.4857 7.02118 13.4861C6.98431 13.4866 6.94747 13.4871 6.91064 13.4875C6.87382 13.488 6.83701 13.4885 6.80023 13.489C6.76345 13.4894 6.72669 13.4899 6.68995 13.4904C6.65321 13.4908 6.6165 13.4913 6.5798 13.4918C6.54311 13.4922 6.50644 13.4927 6.46979 13.4932C6.43314 13.4937 6.39652 13.4941 6.35991 13.4946C6.32331 13.4951 6.28673 13.4955 6.25018 13.496C6.21362 13.4965 6.17709 13.4969 6.14057 13.4974C6.10406 13.4979 6.06758 13.4983 6.03111 13.4988C5.99465 13.4993 5.95821 13.4997 5.9218 13.5002C5.88538 13.5007 5.84899 13.5011 5.81262 13.5016C5.77626 13.5021 5.73991 13.5025 5.7036 13.503C5.66728 13.5035 5.63098 13.5039 5.59471 13.5044C5.55845 13.5049 5.5222 13.5053 5.48598 13.5058C5.44976 13.5062 5.41357 13.5067 5.3774 13.5072C5.34123 13.5076 5.30509 13.5081 5.26897 13.5086C5.23285 13.509 5.19676 13.5095 5.1607 13.5099C5.12463 13.5104 5.08859 13.5109 5.05257 13.5113C5.01656 13.5118 4.98057 13.5123 4.94461 13.5127C4.90865 13.5132 4.87271 13.5136 4.83681 13.5141C4.8009 13.5146 4.76502 13.515 4.72916 13.5155C4.69331 13.5159 4.65748 13.5164 4.62168 13.5168C4.58588 13.5173 4.5501 13.5178 4.51436 13.5182C4.47861 13.5187 4.44289 13.5191 4.4072 13.5196C4.37151 13.5201 4.33585 13.5205 4.30022 13.521C4.26458 13.5214 4.22898 13.5219 4.1934 13.5223C4.15782 13.5228 4.12227 13.5232 4.08675 13.5237C4.05123 13.5242 4.01573 13.5246 3.98027 13.5251C3.94481 13.5255 3.90937 13.526 3.87397 13.5264C3.83856 13.5269 3.80318 13.5273 3.76784 13.5278C3.73249 13.5282 3.69717 13.5287 3.66188 13.5291C3.62659 13.5296 3.59134 13.53 3.55611 13.5305C3.52088 13.5309 3.48568 13.5314 3.45051 13.5318C3.41534 13.5323 3.38021 13.5327 3.3451 13.5332C3.30999 13.5336 3.27491 13.5341 3.23987 13.5345C3.20482 13.535 3.16981 13.5354 3.13482 13.5359C3.09984 13.5363 3.06488 13.5368 3.02996 13.5372C2.99504 13.5377 2.96015 13.5381 2.92529 13.5386C2.89043 13.539 2.8556 13.5395 2.82081 13.5399C2.78601 13.5404 2.75125 13.5408 2.71652 13.5412C2.68178 13.5417 2.64709 13.5421 2.61242 13.5426C2.57775 13.543 2.54312 13.5435 2.50851 13.5439C2.47391 13.5443 2.43934 13.5448 2.40481 13.5452C2.37027 13.5457 2.33577 13.5461 2.3013 13.5466C2.26683 13.547 2.23239 13.5474 2.19798 13.5479C2.16358 13.5483 2.12921 13.5488 2.09488 13.5492C2.06054 13.5496 2.02624 13.5501 1.99197 13.5505C1.9577 13.551 1.92346 13.5514 1.88926 13.5518C1.85506 13.5523 1.8209 13.5527 1.78677 13.5531C1.75264 13.5536 1.71854 13.554 1.68448 13.5545C1.65042 13.5549 1.61639 13.5553 1.5824 13.5558C1.5484 13.5562 1.51445 13.5566 1.48053 13.5571C1.4466 13.5575 1.41272 13.5579 1.37887 13.5584C1.34502 13.5588 1.3112 13.5592 1.27742 13.5597C1.24365 13.5601 1.2099 13.5605 1.1762 13.561C1.14249 13.5614 1.10882 13.5618 1.07519 13.5623C1.04155 13.5627 1.00795 13.5631 0.974394 13.5635L1.02561 17.5632Z" fill="white"/>
</svg>
