<svg xmlns="http://www.w3.org/2000/svg" viewBox="0 0 7320 100" width="7320" height="100"><path d="M85.7 20.7L66.2 52c-.5.8-1.1 1.4-1.9 1.8L43.9 66.2l3-23.2c.1-.9.4-1.7.9-2.4L68 10.3H16.6c-3.1 0-5.6 2.5-5.6 5.6v60.2c0 3.1 2.5 5.6 5.6 5.6h86.9c3.1 0 5.6-2.5 5.6-5.6V15.9c0-3.1-2.5-5.6-5.6-5.6H79.9L56.7 47.7m52.5 19.9H42.4M42 91.5h36.2" fill="none" stroke="#1d71b8" stroke-width="3" stroke-dasharray="0,487.3182141188042" stroke-dashoffset="487.318214" stroke-miterlimit="10"/><path d="M205.7 20.7L186.2 52c-.5.8-1.1 1.4-1.9 1.8l-20.4 12.4 3-23.2c.1-.9.4-1.7.9-2.4L188 10.3h-51.4c-3.1 0-5.6 2.5-5.6 5.6v60.2c0 3.1 2.5 5.6 5.6 5.6h86.9c3.1 0 5.6-2.5 5.6-5.6V15.9c0-3.1-2.5-5.6-5.6-5.6h-23.6l-23.2 37.4m52.5 19.9h-66.8m-.4 23.9h36.2" fill="none" stroke="#1d71b8" stroke-width="3" stroke-dasharray="0.2914655123990815,487.0267486064051" stroke-dashoffset="487.318214" stroke-miterlimit="10"/><path d="M325.7 20.7L306.2 52c-.5.8-1.1 1.4-1.9 1.8l-20.4 12.4 3-23.2c.1-.9.4-1.7.9-2.4L308 10.3h-51.4c-3.1 0-5.6 2.5-5.6 5.6v60.2c0 3.1 2.5 5.6 5.6 5.6h86.9c3.1 0 5.6-2.5 5.6-5.6V15.9c0-3.1-2.5-5.6-5.6-5.6h-23.6l-23.2 37.4m52.5 19.9h-66.8m-.4 23.9h36.2" fill="none" stroke="#1d71b8" stroke-width="3" stroke-dasharray="1.2063408272368945,486.1118732915673" stroke-dashoffset="487.318214" stroke-miterlimit="10"/><path d="M445.7 20.7L426.2 52c-.5.8-1.1 1.4-1.9 1.8l-20.4 12.4 3-23.2c.1-.9.4-1.7.9-2.4L428 10.3h-51.4c-3.1 0-5.6 2.5-5.6 5.6v60.2c0 3.1 2.5 5.6 5.6 5.6h86.9c3.1 0 5.6-2.5 5.6-5.6V15.9c0-3.1-2.5-5.6-5.6-5.6h-23.6l-23.2 37.4m52.5 19.9h-66.8m-.4 23.9h36.2" fill="none" stroke="#1d71b8" stroke-width="3" stroke-dasharray="2.811929521507478,484.5062845972967" stroke-dashoffset="487.318214" stroke-miterlimit="10"/><path d="M565.7 20.7L546.2 52c-.5.8-1.1 1.4-1.9 1.8l-20.4 12.4 3-23.2c.1-.9.4-1.7.9-2.4L548 10.3h-51.4c-3.1 0-5.6 2.5-5.6 5.6v60.2c0 3.1 2.5 5.6 5.6 5.6h86.9c3.1 0 5.6-2.5 5.6-5.6V15.9c0-3.1-2.5-5.6-5.6-5.6h-23.6l-23.2 37.4m52.5 19.9h-66.8m-.4 23.9h36.2" fill="none" stroke="#1d71b8" stroke-width="3" stroke-dasharray="5.185433653837151,482.132780464967" stroke-dashoffset="487.318214" stroke-miterlimit="10"/><path d="M685.7 20.7L666.2 52c-.5.8-1.1 1.4-1.9 1.8l-20.4 12.4 3-23.2c.1-.9.4-1.7.9-2.4L668 10.3h-51.4c-3.1 0-5.6 2.5-5.6 5.6v60.2c0 3.1 2.5 5.6 5.6 5.6h86.9c3.1 0 5.6-2.5 5.6-5.6V15.9c0-3.1-2.5-5.6-5.6-5.6h-23.6l-23.2 37.4m52.5 19.9h-66.8m-.4 23.9h36.2" fill="none" stroke="#1d71b8" stroke-width="3" stroke-dasharray="8.415452787150985,478.90276133165315" stroke-dashoffset="487.318214" stroke-miterlimit="10"/><path d="M805.7 20.7L786.2 52c-.5.8-1.1 1.4-1.9 1.8l-20.4 12.4 3-23.2c.1-.9.4-1.7.9-2.4L788 10.3h-51.4c-3.1 0-5.6 2.5-5.6 5.6v60.2c0 3.1 2.5 5.6 5.6 5.6h86.9c3.1 0 5.6-2.5 5.6-5.6V15.9c0-3.1-2.5-5.6-5.6-5.6h-23.6l-23.2 37.4m52.5 19.9h-66.8m-.4 23.9h36.2" fill="none" stroke="#1d71b8" stroke-width="3" stroke-dasharray="12.603518228611417,474.7146958901928" stroke-dashoffset="487.318214" stroke-miterlimit="10"/><path d="M925.7 20.7L906.2 52c-.5.8-1.1 1.4-1.9 1.8l-20.4 12.4 3-23.2c.1-.9.4-1.7.9-2.4L908 10.3h-51.4c-3.1 0-5.6 2.5-5.6 5.6v60.2c0 3.1 2.5 5.6 5.6 5.6h86.9c3.1 0 5.6-2.5 5.6-5.6V15.9c0-3.1-2.5-5.6-5.6-5.6h-23.6l-23.2 37.4m52.5 19.9h-66.8m-.4 23.9h36.2" fill="none" stroke="#1d71b8" stroke-width="3" stroke-dasharray="17.86545831390692,469.45275580489727" stroke-dashoffset="487.318214" stroke-miterlimit="10"/><path d="M1045.7 20.7L1026.2 52c-.5.8-1.1 1.4-1.9 1.8l-20.4 12.4 3-23.2c.1-.9.4-1.7.9-2.4l20.2-30.3h-51.4c-3.1 0-5.6 2.5-5.6 5.6v60.2c0 3.1 2.5 5.6 5.6 5.6h86.9c3.1 0 5.6-2.5 5.6-5.6V15.9c0-3.1-2.5-5.6-5.6-5.6h-23.6l-23.2 37.4m52.5 19.9h-66.8m-.4 23.9h36.2" fill="none" stroke="#1d71b8" stroke-width="3" stroke-dasharray="24.332191675961166,462.98602244284297" stroke-dashoffset="487.318214" stroke-miterlimit="10"/><path d="M1165.7 20.7L1146.2 52c-.5.8-1.1 1.4-1.9 1.8l-20.4 12.4 3-23.2c.1-.9.4-1.7.9-2.4l20.2-30.3h-51.4c-3.1 0-5.6 2.5-5.6 5.6v60.2c0 3.1 2.5 5.6 5.6 5.6h86.9c3.1 0 5.6-2.5 5.6-5.6V15.9c0-3.1-2.5-5.6-5.6-5.6h-23.6l-23.2 37.4m52.5 19.9h-66.8m-.4 23.9h36.2" fill="none" stroke="#1d71b8" stroke-width="3" stroke-dasharray="32.149207161625675,455.1690069571785" stroke-dashoffset="487.318214" stroke-miterlimit="10"/><path d="M1285.7 20.7L1266.2 52c-.5.8-1.1 1.4-1.9 1.8l-20.4 12.4 3-23.2c.1-.9.4-1.7.9-2.4l20.2-30.3h-51.4c-3.1 0-5.6 2.5-5.6 5.6v60.2c0 3.1 2.5 5.6 5.6 5.6h86.9c3.1 0 5.6-2.5 5.6-5.6V15.9c0-3.1-2.5-5.6-5.6-5.6h-23.6l-23.2 37.4m52.5 19.9h-66.8m-.4 23.9h36.2" fill="none" stroke="#1d71b8" stroke-width="3" stroke-dasharray="41.4734513077381,445.84476281106606" stroke-dashoffset="487.318214" stroke-miterlimit="10"/><path d="M1405.7 20.7L1386.2 52c-.5.8-1.1 1.4-1.9 1.8l-20.4 12.4 3-23.2c.1-.9.4-1.7.9-2.4l20.2-30.3h-51.4c-3.1 0-5.6 2.5-5.6 5.6v60.2c0 3.1 2.5 5.6 5.6 5.6h86.9c3.1 0 5.6-2.5 5.6-5.6V15.9c0-3.1-2.5-5.6-5.6-5.6h-23.6l-23.2 37.4m52.5 19.9h-66.8m-.4 23.9h36.2" fill="none" stroke="#1d71b8" stroke-width="3" stroke-dasharray="52.46558217489453,434.85263194390967" stroke-dashoffset="487.318214" stroke-miterlimit="10"/><path d="M1525.7 20.7L1506.2 52c-.5.8-1.1 1.4-1.9 1.8l-20.4 12.4 3-23.2c.1-.9.4-1.7.9-2.4l20.2-30.3h-51.4c-3.1 0-5.6 2.5-5.6 5.6v60.2c0 3.1 2.5 5.6 5.6 5.6h86.9c3.1 0 5.6-2.5 5.6-5.6V15.9c0-3.1-2.5-5.6-5.6-5.6h-23.6l-23.2 37.4m52.5 19.9h-66.8m-.4 23.9h36.2" fill="none" stroke="#1d71b8" stroke-width="3" stroke-dasharray="65.27470321706298,422.0435109017412" stroke-dashoffset="487.318214" stroke-miterlimit="10"/><path d="M1645.7 20.7L1626.2 52c-.5.8-1.1 1.4-1.9 1.8l-20.4 12.4 3-23.2c.1-.9.4-1.7.9-2.4l20.2-30.3h-51.4c-3.1 0-5.6 2.5-5.6 5.6v60.2c0 3.1 2.5 5.6 5.6 5.6h86.9c3.1 0 5.6-2.5 5.6-5.6V15.9c0-3.1-2.5-5.6-5.6-5.6h-23.6l-23.2 37.4m52.5 19.9h-66.8m-.4 23.9h36.2" fill="none" stroke="#1d71b8" stroke-width="3" stroke-dasharray="80.01235721296649,407.3058569058377" stroke-dashoffset="487.318214" stroke-miterlimit="10"/><path d="M1765.7 20.7L1746.2 52c-.5.8-1.1 1.4-1.9 1.8l-20.4 12.4 3-23.2c.1-.9.4-1.7.9-2.4l20.2-30.3h-51.4c-3.1 0-5.6 2.5-5.6 5.6v60.2c0 3.1 2.5 5.6 5.6 5.6h86.9c3.1 0 5.6-2.5 5.6-5.6V15.9c0-3.1-2.5-5.6-5.6-5.6h-23.6l-23.2 37.4m52.5 19.9h-66.8m-.4 23.9h36.2" fill="none" stroke="#1d71b8" stroke-width="3" stroke-dasharray="96.7141764003035,390.60403771850065" stroke-dashoffset="487.318214" stroke-miterlimit="10"/><path d="M1885.7 20.7L1866.2 52c-.5.8-1.1 1.4-1.9 1.8l-20.4 12.4 3-23.2c.1-.9.4-1.7.9-2.4l20.2-30.3h-51.4c-3.1 0-5.6 2.5-5.6 5.6v60.2c0 3.1 2.5 5.6 5.6 5.6h86.9c3.1 0 5.6-2.5 5.6-5.6V15.9c0-3.1-2.5-5.6-5.6-5.6h-23.6l-23.2 37.4m52.5 19.9h-66.8m-.4 23.9h36.2" fill="none" stroke="#1d71b8" stroke-width="3" stroke-dasharray="115.29332998624102,372.02488413256316" stroke-dashoffset="487.318214" stroke-miterlimit="10"/><path d="M2005.7 20.7L1986.2 52c-.5.8-1.1 1.4-1.9 1.8l-20.4 12.4 3-23.2c.1-.9.4-1.7.9-2.4l20.2-30.3h-51.4c-3.1 0-5.6 2.5-5.6 5.6v60.2c0 3.1 2.5 5.6 5.6 5.6h86.9c3.1 0 5.6-2.5 5.6-5.6V15.9c0-3.1-2.5-5.6-5.6-5.6h-23.6l-23.2 37.4m52.5 19.9h-66.8m-.4 23.9h36.2" fill="none" stroke="#1d71b8" stroke-width="3" stroke-dasharray="135.50055320148996,351.81766091731424" stroke-dashoffset="487.318214" stroke-miterlimit="10"/><path d="M2125.7 20.7L2106.2 52c-.5.8-1.1 1.4-1.9 1.8l-20.4 12.4 3-23.2c.1-.9.4-1.7.9-2.4l20.2-30.3h-51.4c-3.1 0-5.6 2.5-5.6 5.6v60.2c0 3.1 2.5 5.6 5.6 5.6h86.9c3.1 0 5.6-2.5 5.6-5.6V15.9c0-3.1-2.5-5.6-5.6-5.6h-23.6l-23.2 37.4m52.5 19.9h-66.8m-.4 23.9h36.2" fill="none" stroke="#1d71b8" stroke-width="3" stroke-dasharray="156.915501792204,330.4027123266002" stroke-dashoffset="487.318214" stroke-miterlimit="10"/><path d="M2245.7 20.7L2226.2 52c-.5.8-1.1 1.4-1.9 1.8l-20.4 12.4 3-23.2c.1-.9.4-1.7.9-2.4l20.2-30.3h-51.4c-3.1 0-5.6 2.5-5.6 5.6v60.2c0 3.1 2.5 5.6 5.6 5.6h86.9c3.1 0 5.6-2.5 5.6-5.6V15.9c0-3.1-2.5-5.6-5.6-5.6h-23.6l-23.2 37.4m52.5 19.9h-66.8m-.4 23.9h36.2" fill="none" stroke="#1d71b8" stroke-width="3" stroke-dasharray="178.9898886154304,308.3283255033738" stroke-dashoffset="487.318214" stroke-miterlimit="10"/><path d="M2365.7 20.7L2346.2 52c-.5.8-1.1 1.4-1.9 1.8l-20.4 12.4 3-23.2c.1-.9.4-1.7.9-2.4l20.2-30.3h-51.4c-3.1 0-5.6 2.5-5.6 5.6v60.2c0 3.1 2.5 5.6 5.6 5.6h86.9c3.1 0 5.6-2.5 5.6-5.6V15.9c0-3.1-2.5-5.6-5.6-5.6h-23.6l-23.2 37.4m52.5 19.9h-66.8m-.4 23.9h36.2" fill="none" stroke="#1d71b8" stroke-width="3" stroke-dasharray="201.13645746844557,286.1817566503586" stroke-dashoffset="487.318214" stroke-miterlimit="10"/><path d="M2485.7 20.7L2466.2 52c-.5.8-1.1 1.4-1.9 1.8l-20.4 12.4 3-23.2c.1-.9.4-1.7.9-2.4l20.2-30.3h-51.4c-3.1 0-5.6 2.5-5.6 5.6v60.2c0 3.1 2.5 5.6 5.6 5.6h86.9c3.1 0 5.6-2.5 5.6-5.6V15.9c0-3.1-2.5-5.6-5.6-5.6h-23.6l-23.2 37.4m52.5 19.9h-66.8m-.4 23.9h36.2" fill="none" stroke="#1d71b8" stroke-width="3" stroke-dasharray="222.82710125027393,264.49111286853025" stroke-dashoffset="487.318214" stroke-miterlimit="10"/><path d="M2605.7 20.7L2586.2 52c-.5.8-1.1 1.4-1.9 1.8l-20.4 12.4 3-23.2c.1-.9.4-1.7.9-2.4l20.2-30.3h-51.4c-3.1 0-5.6 2.5-5.6 5.6v60.2c0 3.1 2.5 5.6 5.6 5.6h86.9c3.1 0 5.6-2.5 5.6-5.6V15.9c0-3.1-2.5-5.6-5.6-5.6h-23.6l-23.2 37.4m52.5 19.9h-66.8m-.4 23.9h36.2" fill="none" stroke="#1d71b8" stroke-width="3" stroke-dasharray="243.65910705940203,243.65910705940215" stroke-dashoffset="487.318214" stroke-miterlimit="10"/><path d="M2725.7 20.7L2706.2 52c-.5.8-1.1 1.4-1.9 1.8l-20.4 12.4 3-23.2c.1-.9.4-1.7.9-2.4l20.2-30.3h-51.4c-3.1 0-5.6 2.5-5.6 5.6v60.2c0 3.1 2.5 5.6 5.6 5.6h86.9c3.1 0 5.6-2.5 5.6-5.6V15.9c0-3.1-2.5-5.6-5.6-5.6h-23.6l-23.2 37.4m52.5 19.9h-66.8m-.4 23.9h36.2" fill="none" stroke="#1d71b8" stroke-width="3" stroke-dasharray="263.37375943372183,223.94445468508235" stroke-dashoffset="487.318214" stroke-miterlimit="10"/><path d="M2845.7 20.7L2826.2 52c-.5.8-1.1 1.4-1.9 1.8l-20.4 12.4 3-23.2c.1-.9.4-1.7.9-2.4l20.2-30.3h-51.4c-3.1 0-5.6 2.5-5.6 5.6v60.2c0 3.1 2.5 5.6 5.6 5.6h86.9c3.1 0 5.6-2.5 5.6-5.6V15.9c0-3.1-2.5-5.6-5.6-5.6h-23.6l-23.2 37.4m52.5 19.9h-66.8m-.4 23.9h36.2" fill="none" stroke="#1d71b8" stroke-width="3" stroke-dasharray="281.8388493798427,205.4793647389615" stroke-dashoffset="487.318214" stroke-miterlimit="10"/><path d="M2965.7 20.7L2946.2 52c-.5.8-1.1 1.4-1.9 1.8l-20.4 12.4 3-23.2c.1-.9.4-1.7.9-2.4l20.2-30.3h-51.4c-3.1 0-5.6 2.5-5.6 5.6v60.2c0 3.1 2.5 5.6 5.6 5.6h86.9c3.1 0 5.6-2.5 5.6-5.6V15.9c0-3.1-2.5-5.6-5.6-5.6h-23.6l-23.2 37.4m52.5 19.9h-66.8m-.4 23.9h36.2" fill="none" stroke="#1d71b8" stroke-width="3" stroke-dasharray="299.0158960615828,188.30231805722138" stroke-dashoffset="487.318214" stroke-miterlimit="10"/><path d="M3085.7 20.7L3066.2 52c-.5.8-1.1 1.4-1.9 1.8l-20.4 12.4 3-23.2c.1-.9.4-1.7.9-2.4l20.2-30.3h-51.4c-3.1 0-5.6 2.5-5.6 5.6v60.2c0 3.1 2.5 5.6 5.6 5.6h86.9c3.1 0 5.6-2.5 5.6-5.6V15.9c0-3.1-2.5-5.6-5.6-5.6h-23.6l-23.2 37.4m52.5 19.9h-66.8m-.4 23.9h36.2" fill="none" stroke="#1d71b8" stroke-width="3" stroke-dasharray="314.92750453083823,172.39070958796597" stroke-dashoffset="487.318214" stroke-miterlimit="10"/><path d="M3205.7 20.7L3186.2 52c-.5.8-1.1 1.4-1.9 1.8l-20.4 12.4 3-23.2c.1-.9.4-1.7.9-2.4l20.2-30.3h-51.4c-3.1 0-5.6 2.5-5.6 5.6v60.2c0 3.1 2.5 5.6 5.6 5.6h86.9c3.1 0 5.6-2.5 5.6-5.6V15.9c0-3.1-2.5-5.6-5.6-5.6h-23.6l-23.2 37.4m52.5 19.9h-66.8m-.4 23.9h36.2" fill="none" stroke="#1d71b8" stroke-width="3" stroke-dasharray="329.631657081406,157.6865570373982" stroke-dashoffset="487.318214" stroke-miterlimit="10"/><path d="M3325.7 20.7L3306.2 52c-.5.8-1.1 1.4-1.9 1.8l-20.4 12.4 3-23.2c.1-.9.4-1.7.9-2.4l20.2-30.3h-51.4c-3.1 0-5.6 2.5-5.6 5.6v60.2c0 3.1 2.5 5.6 5.6 5.6h86.9c3.1 0 5.6-2.5 5.6-5.6V15.9c0-3.1-2.5-5.6-5.6-5.6h-23.6l-23.2 37.4m52.5 19.9h-66.8m-.4 23.9h36.2" fill="none" stroke="#1d71b8" stroke-width="3" stroke-dasharray="343.2039575100109,144.11425660879328" stroke-dashoffset="487.318214" stroke-miterlimit="10"/><path d="M3445.7 20.7L3426.2 52c-.5.8-1.1 1.4-1.9 1.8l-20.4 12.4 3-23.2c.1-.9.4-1.7.9-2.4l20.2-30.3h-51.4c-3.1 0-5.6 2.5-5.6 5.6v60.2c0 3.1 2.5 5.6 5.6 5.6h86.9c3.1 0 5.6-2.5 5.6-5.6V15.9c0-3.1-2.5-5.6-5.6-5.6h-23.6l-23.2 37.4m52.5 19.9h-66.8m-.4 23.9h36.2" fill="none" stroke="#1d71b8" stroke-width="3" stroke-dasharray="355.72640628636196,131.59180783244219" stroke-dashoffset="487.318214" stroke-miterlimit="10"/><path d="M3565.7 20.7L3546.2 52c-.5.8-1.1 1.4-1.9 1.8l-20.4 12.4 3-23.2c.1-.9.4-1.7.9-2.4l20.2-30.3h-51.4c-3.1 0-5.6 2.5-5.6 5.6v60.2c0 3.1 2.5 5.6 5.6 5.6h86.9c3.1 0 5.6-2.5 5.6-5.6V15.9c0-3.1-2.5-5.6-5.6-5.6h-23.6l-23.2 37.4m52.5 19.9h-66.8m-.4 23.9h36.2" fill="none" stroke="#1d71b8" stroke-width="3" stroke-dasharray="367.2808016086964,120.03741251010781" stroke-dashoffset="487.318214" stroke-miterlimit="10"/><path d="M3685.7 20.7L3666.2 52c-.5.8-1.1 1.4-1.9 1.8l-20.4 12.4 3-23.2c.1-.9.4-1.7.9-2.4l20.2-30.3h-51.4c-3.1 0-5.6 2.5-5.6 5.6v60.2c0 3.1 2.5 5.6 5.6 5.6h86.9c3.1 0 5.6-2.5 5.6-5.6V15.9c0-3.1-2.5-5.6-5.6-5.6h-23.6l-23.2 37.4m52.5 19.9h-66.8m-.4 23.9h36.2" fill="none" stroke="#1d71b8" stroke-width="3" stroke-dasharray="377.94515307278374,109.37306104602042" stroke-dashoffset="487.318214" stroke-miterlimit="10"/><path d="M3805.7 20.7L3786.2 52c-.5.8-1.1 1.4-1.9 1.8l-20.4 12.4 3-23.2c.1-.9.4-1.7.9-2.4l20.2-30.3h-51.4c-3.1 0-5.6 2.5-5.6 5.6v60.2c0 3.1 2.5 5.6 5.6 5.6h86.9c3.1 0 5.6-2.5 5.6-5.6V15.9c0-3.1-2.5-5.6-5.6-5.6h-23.6l-23.2 37.4m52.5 19.9h-66.8m-.4 23.9h36.2" fill="none" stroke="#1d71b8" stroke-width="3" stroke-dasharray="387.7919506880423,99.52626343076192" stroke-dashoffset="487.318214" stroke-miterlimit="10"/><path d="M3925.7 20.7L3906.2 52c-.5.8-1.1 1.4-1.9 1.8l-20.4 12.4 3-23.2c.1-.9.4-1.7.9-2.4l20.2-30.3h-51.4c-3.1 0-5.6 2.5-5.6 5.6v60.2c0 3.1 2.5 5.6 5.6 5.6h86.9c3.1 0 5.6-2.5 5.6-5.6V15.9c0-3.1-2.5-5.6-5.6-5.6h-23.6l-23.2 37.4m52.5 19.9h-66.8m-.4 23.9h36.2" fill="none" stroke="#1d71b8" stroke-width="3" stroke-dasharray="396.8875263251423,90.43068779366187" stroke-dashoffset="487.318214" stroke-miterlimit="10"/><path d="M4045.7 20.7L4026.2 52c-.5.8-1.1 1.4-1.9 1.8l-20.4 12.4 3-23.2c.1-.9.4-1.7.9-2.4l20.2-30.3h-51.4c-3.1 0-5.6 2.5-5.6 5.6v60.2c0 3.1 2.5 5.6 5.6 5.6h86.9c3.1 0 5.6-2.5 5.6-5.6V15.9c0-3.1-2.5-5.6-5.6-5.6h-23.6l-23.2 37.4m52.5 19.9h-66.8m-.4 23.9h36.2" fill="none" stroke="#1d71b8" stroke-width="3" stroke-dasharray="405.29202919461517,82.026184924189" stroke-dashoffset="487.318214" stroke-miterlimit="10"/><path d="M4165.7 20.7L4146.2 52c-.5.8-1.1 1.4-1.9 1.8l-20.4 12.4 3-23.2c.1-.9.4-1.7.9-2.4l20.2-30.3h-51.4c-3.1 0-5.6 2.5-5.6 5.6v60.2c0 3.1 2.5 5.6 5.6 5.6h86.9c3.1 0 5.6-2.5 5.6-5.6V15.9c0-3.1-2.5-5.6-5.6-5.6h-23.6l-23.2 37.4m52.5 19.9h-66.8m-.4 23.9h36.2" fill="none" stroke="#1d71b8" stroke-width="3" stroke-dasharray="413.0597253787914,74.25848874001272" stroke-dashoffset="487.318214" stroke-miterlimit="10"/><path d="M4285.7 20.7L4266.2 52c-.5.8-1.1 1.4-1.9 1.8l-20.4 12.4 3-23.2c.1-.9.4-1.7.9-2.4l20.2-30.3h-51.4c-3.1 0-5.6 2.5-5.6 5.6v60.2c0 3.1 2.5 5.6 5.6 5.6h86.9c3.1 0 5.6-2.5 5.6-5.6V15.9c0-3.1-2.5-5.6-5.6-5.6h-23.6l-23.2 37.4m52.5 19.9h-66.8m-.4 23.9h36.2" fill="none" stroke="#1d71b8" stroke-width="3" stroke-dasharray="420.2394504536764,67.07876366512778" stroke-dashoffset="487.318214" stroke-miterlimit="10"/><path d="M4405.7 20.7L4386.2 52c-.5.8-1.1 1.4-1.9 1.8l-20.4 12.4 3-23.2c.1-.9.4-1.7.9-2.4l20.2-30.3h-51.4c-3.1 0-5.6 2.5-5.6 5.6v60.2c0 3.1 2.5 5.6 5.6 5.6h86.9c3.1 0 5.6-2.5 5.6-5.6V15.9c0-3.1-2.5-5.6-5.6-5.6h-23.6l-23.2 37.4m52.5 19.9h-66.8m-.4 23.9h36.2" fill="none" stroke="#1d71b8" stroke-width="3" stroke-dasharray="426.87511725992584,60.443096858878334" stroke-dashoffset="487.318214" stroke-miterlimit="10"/><path d="M4525.7 20.7L4506.2 52c-.5.8-1.1 1.4-1.9 1.8l-20.4 12.4 3-23.2c.1-.9.4-1.7.9-2.4l20.2-30.3h-51.4c-3.1 0-5.6 2.5-5.6 5.6v60.2c0 3.1 2.5 5.6 5.6 5.6h86.9c3.1 0 5.6-2.5 5.6-5.6V15.9c0-3.1-2.5-5.6-5.6-5.6h-23.6l-23.2 37.4m52.5 19.9h-66.8m-.4 23.9h36.2" fill="none" stroke="#1d71b8" stroke-width="3" stroke-dasharray="433.00622479106045,54.31198932774371" stroke-dashoffset="487.318214" stroke-miterlimit="10"/><path d="M4645.7 20.7L4626.2 52c-.5.8-1.1 1.4-1.9 1.8l-20.4 12.4 3-23.2c.1-.9.4-1.7.9-2.4l20.2-30.3h-51.4c-3.1 0-5.6 2.5-5.6 5.6v60.2c0 3.1 2.5 5.6 5.6 5.6h86.9c3.1 0 5.6-2.5 5.6-5.6V15.9c0-3.1-2.5-5.6-5.6-5.6h-23.6l-23.2 37.4m52.5 19.9h-66.8m-.4 23.9h36.2" fill="none" stroke="#1d71b8" stroke-width="3" stroke-dasharray="438.66834012583354,48.64987399297065" stroke-dashoffset="487.318214" stroke-miterlimit="10"/><path d="M4765.7 20.7L4746.2 52c-.5.8-1.1 1.4-1.9 1.8l-20.4 12.4 3-23.2c.1-.9.4-1.7.9-2.4l20.2-30.3h-51.4c-3.1 0-5.6 2.5-5.6 5.6v60.2c0 3.1 2.5 5.6 5.6 5.6h86.9c3.1 0 5.6-2.5 5.6-5.6V15.9c0-3.1-2.5-5.6-5.6-5.6h-23.6l-23.2 37.4m52.5 19.9h-66.8m-.4 23.9h36.2" fill="none" stroke="#1d71b8" stroke-width="3" stroke-dasharray="443.8935404033956,43.424673715408595" stroke-dashoffset="487.318214" stroke-miterlimit="10"/><path d="M4885.7 20.7L4866.2 52c-.5.8-1.1 1.4-1.9 1.8l-20.4 12.4 3-23.2c.1-.9.4-1.7.9-2.4l20.2-30.3h-51.4c-3.1 0-5.6 2.5-5.6 5.6v60.2c0 3.1 2.5 5.6 5.6 5.6h86.9c3.1 0 5.6-2.5 5.6-5.6V15.9c0-3.1-2.5-5.6-5.6-5.6h-23.6l-23.2 37.4m52.5 19.9h-66.8m-.4 23.9h36.2" fill="none" stroke="#1d71b8" stroke-width="3" stroke-dasharray="448.7108103846344,38.60740373416979" stroke-dashoffset="487.318214" stroke-miterlimit="10"/><path d="M5005.7 20.7L4986.2 52c-.5.8-1.1 1.4-1.9 1.8l-20.4 12.4 3-23.2c.1-.9.4-1.7.9-2.4l20.2-30.3h-51.4c-3.1 0-5.6 2.5-5.6 5.6v60.2c0 3.1 2.5 5.6 5.6 5.6h86.9c3.1 0 5.6-2.5 5.6-5.6V15.9c0-3.1-2.5-5.6-5.6-5.6h-23.6l-23.2 37.4m52.5 19.9h-66.8m-.4 23.9h36.2" fill="none" stroke="#1d71b8" stroke-width="3" stroke-dasharray="453.1463958142282,34.17181830457597" stroke-dashoffset="487.318214" stroke-miterlimit="10"/><path d="M5125.7 20.7L5106.2 52c-.5.8-1.1 1.4-1.9 1.8l-20.4 12.4 3-23.2c.1-.9.4-1.7.9-2.4l20.2-30.3h-51.4c-3.1 0-5.6 2.5-5.6 5.6v60.2c0 3.1 2.5 5.6 5.6 5.6h86.9c3.1 0 5.6-2.5 5.6-5.6V15.9c0-3.1-2.5-5.6-5.6-5.6h-23.6l-23.2 37.4m52.5 19.9h-66.8m-.4 23.9h36.2" fill="none" stroke="#1d71b8" stroke-width="3" stroke-dasharray="457.2241151961503,30.094098922653853" stroke-dashoffset="487.318214" stroke-miterlimit="10"/><path d="M5245.7 20.7L5226.2 52c-.5.8-1.1 1.4-1.9 1.8l-20.4 12.4 3-23.2c.1-.9.4-1.7.9-2.4l20.2-30.3h-51.4c-3.1 0-5.6 2.5-5.6 5.6v60.2c0 3.1 2.5 5.6 5.6 5.6h86.9c3.1 0 5.6-2.5 5.6-5.6V15.9c0-3.1-2.5-5.6-5.6-5.6h-23.6l-23.2 37.4m52.5 19.9h-66.8m-.4 23.9h36.2" fill="none" stroke="#1d71b8" stroke-width="3" stroke-dasharray="460.9656336802439,26.35258043856026" stroke-dashoffset="487.318214" stroke-miterlimit="10"/><path d="M5365.7 20.7L5346.2 52c-.5.8-1.1 1.4-1.9 1.8l-20.4 12.4 3-23.2c.1-.9.4-1.7.9-2.4l20.2-30.3h-51.4c-3.1 0-5.6 2.5-5.6 5.6v60.2c0 3.1 2.5 5.6 5.6 5.6h86.9c3.1 0 5.6-2.5 5.6-5.6V15.9c0-3.1-2.5-5.6-5.6-5.6h-23.6l-23.2 37.4m52.5 19.9h-66.8m-.4 23.9h36.2" fill="none" stroke="#1d71b8" stroke-width="3" stroke-dasharray="464.390703101053,22.92751101775114" stroke-dashoffset="487.318214" stroke-miterlimit="10"/><path d="M5485.7 20.7L5466.2 52c-.5.8-1.1 1.4-1.9 1.8l-20.4 12.4 3-23.2c.1-.9.4-1.7.9-2.4l20.2-30.3h-51.4c-3.1 0-5.6 2.5-5.6 5.6v60.2c0 3.1 2.5 5.6 5.6 5.6h86.9c3.1 0 5.6-2.5 5.6-5.6V15.9c0-3.1-2.5-5.6-5.6-5.6h-23.6l-23.2 37.4m52.5 19.9h-66.8m-.4 23.9h36.2" fill="none" stroke="#1d71b8" stroke-width="3" stroke-dasharray="467.5173721510318,19.80084196777237" stroke-dashoffset="487.318214" stroke-miterlimit="10"/><path d="M5605.7 20.7L5586.2 52c-.5.8-1.1 1.4-1.9 1.8l-20.4 12.4 3-23.2c.1-.9.4-1.7.9-2.4l20.2-30.3h-51.4c-3.1 0-5.6 2.5-5.6 5.6v60.2c0 3.1 2.5 5.6 5.6 5.6h86.9c3.1 0 5.6-2.5 5.6-5.6V15.9c0-3.1-2.5-5.6-5.6-5.6h-23.6l-23.2 37.4m52.5 19.9h-66.8m-.4 23.9h36.2" fill="none" stroke="#1d71b8" stroke-width="3" stroke-dasharray="470.3621704070136,16.956043711790592" stroke-dashoffset="487.318214" stroke-miterlimit="10"/><path d="M5725.7 20.7L5706.2 52c-.5.8-1.1 1.4-1.9 1.8l-20.4 12.4 3-23.2c.1-.9.4-1.7.9-2.4l20.2-30.3h-51.4c-3.1 0-5.6 2.5-5.6 5.6v60.2c0 3.1 2.5 5.6 5.6 5.6h86.9c3.1 0 5.6-2.5 5.6-5.6V15.9c0-3.1-2.5-5.6-5.6-5.6h-23.6l-23.2 37.4m52.5 19.9h-66.8m-.4 23.9h36.2" fill="none" stroke="#1d71b8" stroke-width="3" stroke-dasharray="472.9402695759878,14.37794454281635" stroke-dashoffset="487.318214" stroke-miterlimit="10"/><path d="M5845.7 20.7L5826.2 52c-.5.8-1.1 1.4-1.9 1.8l-20.4 12.4 3-23.2c.1-.9.4-1.7.9-2.4l20.2-30.3h-51.4c-3.1 0-5.6 2.5-5.6 5.6v60.2c0 3.1 2.5 5.6 5.6 5.6h86.9c3.1 0 5.6-2.5 5.6-5.6V15.9c0-3.1-2.5-5.6-5.6-5.6h-23.6l-23.2 37.4m52.5 19.9h-66.8m-.4 23.9h36.2" fill="none" stroke="#1d71b8" stroke-width="3" stroke-dasharray="475.2656249482495,12.052589170554661" stroke-dashoffset="487.318214" stroke-miterlimit="10"/><path d="M5965.7 20.7L5946.2 52c-.5.8-1.1 1.4-1.9 1.8l-20.4 12.4 3-23.2c.1-.9.4-1.7.9-2.4l20.2-30.3h-51.4c-3.1 0-5.6 2.5-5.6 5.6v60.2c0 3.1 2.5 5.6 5.6 5.6h86.9c3.1 0 5.6-2.5 5.6-5.6V15.9c0-3.1-2.5-5.6-5.6-5.6h-23.6l-23.2 37.4m52.5 19.9h-66.8m-.4 23.9h36.2" fill="none" stroke="#1d71b8" stroke-width="3" stroke-dasharray="477.3510996776769,9.967114441127253" stroke-dashoffset="487.318214" stroke-miterlimit="10"/><path d="M6085.7 20.7L6066.2 52c-.5.8-1.1 1.4-1.9 1.8l-20.4 12.4 3-23.2c.1-.9.4-1.7.9-2.4l20.2-30.3h-51.4c-3.1 0-5.6 2.5-5.6 5.6v60.2c0 3.1 2.5 5.6 5.6 5.6h86.9c3.1 0 5.6-2.5 5.6-5.6V15.9c0-3.1-2.5-5.6-5.6-5.6h-23.6l-23.2 37.4m52.5 19.9h-66.8m-.4 23.9h36.2" fill="none" stroke="#1d71b8" stroke-width="3" stroke-dasharray="479.2085741676096,8.109639951194586" stroke-dashoffset="487.318214" stroke-miterlimit="10"/><path d="M6205.7 20.7L6186.2 52c-.5.8-1.1 1.4-1.9 1.8l-20.4 12.4 3-23.2c.1-.9.4-1.7.9-2.4l20.2-30.3h-51.4c-3.1 0-5.6 2.5-5.6 5.6v60.2c0 3.1 2.5 5.6 5.6 5.6h86.9c3.1 0 5.6-2.5 5.6-5.6V15.9c0-3.1-2.5-5.6-5.6-5.6h-23.6l-23.2 37.4m52.5 19.9h-66.8m-.4 23.9h36.2" fill="none" stroke="#1d71b8" stroke-width="3" stroke-dasharray="480.8490425338902,6.469171584913985" stroke-dashoffset="487.318214" stroke-miterlimit="10"/><path d="M6325.7 20.7L6306.2 52c-.5.8-1.1 1.4-1.9 1.8l-20.4 12.4 3-23.2c.1-.9.4-1.7.9-2.4l20.2-30.3h-51.4c-3.1 0-5.6 2.5-5.6 5.6v60.2c0 3.1 2.5 5.6 5.6 5.6h86.9c3.1 0 5.6-2.5 5.6-5.6V15.9c0-3.1-2.5-5.6-5.6-5.6h-23.6l-23.2 37.4m52.5 19.9h-66.8m-.4 23.9h36.2" fill="none" stroke="#1d71b8" stroke-width="3" stroke-dasharray="482.28269784578777,5.035516273016425" stroke-dashoffset="487.318214" stroke-miterlimit="10"/><path d="M6445.7 20.7L6426.2 52c-.5.8-1.1 1.4-1.9 1.8l-20.4 12.4 3-23.2c.1-.9.4-1.7.9-2.4l20.2-30.3h-51.4c-3.1 0-5.6 2.5-5.6 5.6v60.2c0 3.1 2.5 5.6 5.6 5.6h86.9c3.1 0 5.6-2.5 5.6-5.6V15.9c0-3.1-2.5-5.6-5.6-5.6h-23.6l-23.2 37.4m52.5 19.9h-66.8m-.4 23.9h36.2" fill="none" stroke="#1d71b8" stroke-width="3" stroke-dasharray="483.51900760941373,3.799206509390461" stroke-dashoffset="487.318214" stroke-miterlimit="10"/><path d="M6565.7 20.7L6546.2 52c-.5.8-1.1 1.4-1.9 1.8l-20.4 12.4 3-23.2c.1-.9.4-1.7.9-2.4l20.2-30.3h-51.4c-3.1 0-5.6 2.5-5.6 5.6v60.2c0 3.1 2.5 5.6 5.6 5.6h86.9c3.1 0 5.6-2.5 5.6-5.6V15.9c0-3.1-2.5-5.6-5.6-5.6h-23.6l-23.2 37.4m52.5 19.9h-66.8m-.4 23.9h36.2" fill="none" stroke="#1d71b8" stroke-width="3" stroke-dasharray="484.5667807540712,2.751433364732979" stroke-dashoffset="487.318214" stroke-miterlimit="10"/><path d="M6685.7 20.7L6666.2 52c-.5.8-1.1 1.4-1.9 1.8l-20.4 12.4 3-23.2c.1-.9.4-1.7.9-2.4l20.2-30.3h-51.4c-3.1 0-5.6 2.5-5.6 5.6v60.2c0 3.1 2.5 5.6 5.6 5.6h86.9c3.1 0 5.6-2.5 5.6-5.6V15.9c0-3.1-2.5-5.6-5.6-5.6h-23.6l-23.2 37.4m52.5 19.9h-66.8m-.4 23.9h36.2" fill="none" stroke="#1d71b8" stroke-width="3" stroke-dasharray="485.4342272063502,1.8839869124539632" stroke-dashoffset="487.318214" stroke-miterlimit="10"/><path d="M6805.7 20.7L6786.2 52c-.5.8-1.1 1.4-1.9 1.8l-20.4 12.4 3-23.2c.1-.9.4-1.7.9-2.4l20.2-30.3h-51.4c-3.1 0-5.6 2.5-5.6 5.6v60.2c0 3.1 2.5 5.6 5.6 5.6h86.9c3.1 0 5.6-2.5 5.6-5.6V15.9c0-3.1-2.5-5.6-5.6-5.6h-23.6l-23.2 37.4m52.5 19.9h-66.8m-.4 23.9h36.2" fill="none" stroke="#1d71b8" stroke-width="3" stroke-dasharray="486.1290109862005,1.1892031326036374" stroke-dashoffset="487.318214" stroke-miterlimit="10"/><path d="M6925.7 20.7L6906.2 52c-.5.8-1.1 1.4-1.9 1.8l-20.4 12.4 3-23.2c.1-.9.4-1.7.9-2.4l20.2-30.3h-51.4c-3.1 0-5.6 2.5-5.6 5.6v60.2c0 3.1 2.5 5.6 5.6 5.6h86.9c3.1 0 5.6-2.5 5.6-5.6V15.9c0-3.1-2.5-5.6-5.6-5.6h-23.6l-23.2 37.4m52.5 19.9h-66.8m-.4 23.9h36.2" fill="none" stroke="#1d71b8" stroke-width="3" stroke-dasharray="486.65829763035583,0.6599164884483293" stroke-dashoffset="487.318214" stroke-miterlimit="10"/><path d="M7045.7 20.7L7026.2 52c-.5.8-1.1 1.4-1.9 1.8l-20.4 12.4 3-23.2c.1-.9.4-1.7.9-2.4l20.2-30.3h-51.4c-3.1 0-5.6 2.5-5.6 5.6v60.2c0 3.1 2.5 5.6 5.6 5.6h86.9c3.1 0 5.6-2.5 5.6-5.6V15.9c0-3.1-2.5-5.6-5.6-5.6h-23.6l-23.2 37.4m52.5 19.9h-66.8m-.4 23.9h36.2" fill="none" stroke="#1d71b8" stroke-width="3" stroke-dasharray="487.0287966383116,0.289417480492596" stroke-dashoffset="487.318214" stroke-miterlimit="10"/><path d="M7165.7 20.7L7146.2 52c-.5.8-1.1 1.4-1.9 1.8l-20.4 12.4 3-23.2c.1-.9.4-1.7.9-2.4l20.2-30.3h-51.4c-3.1 0-5.6 2.5-5.6 5.6v60.2c0 3.1 2.5 5.6 5.6 5.6h86.9c3.1 0 5.6-2.5 5.6-5.6V15.9c0-3.1-2.5-5.6-5.6-5.6h-23.6l-23.2 37.4m52.5 19.9h-66.8m-.4 23.9h36.2" fill="none" stroke="#1d71b8" stroke-width="3" stroke-dasharray="487.24679954187906,0.07141457692512071" stroke-dashoffset="487.318214" stroke-miterlimit="10"/><path d="M7285.7 20.7L7266.2 52c-.5.8-1.1 1.4-1.9 1.8l-20.4 12.4 3-23.2c.1-.9.4-1.7.9-2.4l20.2-30.3h-51.4c-3.1 0-5.6 2.5-5.6 5.6v60.2c0 3.1 2.5 5.6 5.6 5.6h86.9c3.1 0 5.6-2.5 5.6-5.6V15.9c0-3.1-2.5-5.6-5.6-5.6h-23.6l-23.2 37.4m52.5 19.9h-66.8m-.4 23.9h36.2" fill="none" stroke="#1d71b8" stroke-width="3" stroke-miterlimit="10"/></svg>