<svg width="147" height="147" viewBox="0 0 147 147" fill="none" xmlns="http://www.w3.org/2000/svg">
<mask id="mask0_1123_1688" style="mask-type:alpha" maskUnits="userSpaceOnUse" x="0" y="0" width="147" height="147">
<circle cx="73.5" cy="73.5" r="73.5" fill="#D9D9D9"/>
</mask>
<g mask="url(#mask0_1123_1688)">
<circle cx="5.38649" cy="5.38646" r="3.56648" stroke="#C6E7FF"/>
<circle cx="16.061" cy="5.38646" r="3.56648" stroke="#C6E7FF"/>
<circle cx="26.7354" cy="5.38646" r="3.56648" stroke="#C6E7FF"/>
<circle cx="37.4101" cy="5.38646" r="3.56648" stroke="#C6E7FF"/>
<circle cx="48.0845" cy="5.38646" r="3.56648" stroke="#C6E7FF"/>
<circle cx="58.759" cy="5.38646" r="3.56648" stroke="#C6E7FF"/>
<circle cx="69.4336" cy="5.38646" r="3.56648" stroke="#C6E7FF"/>
<circle cx="5.38649" cy="16.061" r="3.56648" stroke="#C6E7FF"/>
<circle cx="16.061" cy="16.061" r="3.56648" stroke="#C6E7FF"/>
<circle cx="26.7354" cy="16.061" r="3.56648" stroke="#C6E7FF"/>
<circle cx="37.4101" cy="16.061" r="3.56648" stroke="#C6E7FF"/>
<circle cx="48.0845" cy="16.061" r="3.56648" stroke="#C6E7FF"/>
<circle cx="58.759" cy="16.061" r="3.56648" stroke="#C6E7FF"/>
<circle cx="69.4336" cy="16.061" r="3.56648" stroke="#C6E7FF"/>
<circle cx="5.38649" cy="26.7355" r="3.56648" stroke="#C6E7FF"/>
<circle cx="16.061" cy="26.7355" r="3.56648" stroke="#C6E7FF"/>
<circle cx="26.7354" cy="26.7355" r="3.56648" stroke="#C6E7FF"/>
<circle cx="37.4101" cy="26.7355" r="3.56648" stroke="#C6E7FF"/>
<circle cx="48.0845" cy="26.7355" r="3.56648" stroke="#C6E7FF"/>
<circle cx="58.759" cy="26.7355" r="3.56648" stroke="#C6E7FF"/>
<circle cx="69.4336" cy="26.7355" r="3.56648" stroke="#C6E7FF"/>
<circle cx="5.38649" cy="37.41" r="3.56648" stroke="#C6E7FF"/>
<circle cx="16.061" cy="37.41" r="3.56648" stroke="#C6E7FF"/>
<circle cx="26.7354" cy="37.41" r="3.56648" stroke="#C6E7FF"/>
<circle cx="37.4101" cy="37.41" r="3.56648" stroke="#C6E7FF"/>
<circle cx="48.0845" cy="37.41" r="3.56648" stroke="#C6E7FF"/>
<circle cx="58.759" cy="37.41" r="3.56648" stroke="#C6E7FF"/>
<circle cx="69.4336" cy="37.41" r="3.56648" stroke="#C6E7FF"/>
<circle cx="5.38649" cy="48.0845" r="3.56648" stroke="#C6E7FF"/>
<circle cx="16.061" cy="48.0845" r="3.56648" stroke="#C6E7FF"/>
<circle cx="26.7354" cy="48.0845" r="3.56648" stroke="#C6E7FF"/>
<circle cx="37.4101" cy="48.0845" r="3.56648" stroke="#C6E7FF"/>
<circle cx="48.0845" cy="48.0845" r="3.56648" stroke="#C6E7FF"/>
<circle cx="58.759" cy="48.0845" r="3.56648" stroke="#C6E7FF"/>
<circle cx="69.4336" cy="48.0845" r="3.56648" stroke="#C6E7FF"/>
<circle cx="5.38649" cy="58.7591" r="3.56648" stroke="#C6E7FF"/>
<circle cx="16.061" cy="58.7591" r="3.56648" stroke="#C6E7FF"/>
<circle cx="26.7354" cy="58.7591" r="3.56648" stroke="#C6E7FF"/>
<circle cx="37.4101" cy="58.7591" r="3.56648" stroke="#C6E7FF"/>
<circle cx="48.0845" cy="58.7591" r="3.56648" stroke="#C6E7FF"/>
<circle cx="58.759" cy="58.7591" r="3.56648" stroke="#C6E7FF"/>
<circle cx="69.4336" cy="58.7591" r="3.56648" stroke="#C6E7FF"/>
<circle cx="5.38649" cy="69.4335" r="3.56648" stroke="#C6E7FF"/>
<circle cx="16.061" cy="69.4335" r="3.56648" stroke="#C6E7FF"/>
<circle cx="26.7354" cy="69.4335" r="3.56648" stroke="#C6E7FF"/>
<circle cx="37.4101" cy="69.4335" r="3.56648" stroke="#C6E7FF"/>
<circle cx="48.0845" cy="69.4335" r="3.56648" stroke="#C6E7FF"/>
<circle cx="58.759" cy="69.4335" r="3.56648" stroke="#C6E7FF"/>
<circle cx="69.4336" cy="69.4335" r="3.56648" stroke="#C6E7FF"/>
<circle cx="5.38649" cy="80.2392" r="3.56648" stroke="#C6E7FF"/>
<circle cx="16.061" cy="80.2392" r="3.56648" stroke="#C6E7FF"/>
<circle cx="26.7354" cy="80.2392" r="3.56648" stroke="#C6E7FF"/>
<circle cx="37.4101" cy="80.2392" r="3.56648" stroke="#C6E7FF"/>
<circle cx="48.0845" cy="80.2392" r="3.56648" stroke="#C6E7FF"/>
<circle cx="58.759" cy="80.2392" r="3.56648" stroke="#C6E7FF"/>
<circle cx="69.4336" cy="80.2392" r="3.56648" stroke="#C6E7FF"/>
<circle cx="5.38655" cy="90.9137" r="3.56648" stroke="#C6E7FF"/>
<circle cx="16.0611" cy="90.9137" r="3.56648" stroke="#C6E7FF"/>
<circle cx="26.7355" cy="90.9137" r="3.56648" stroke="#C6E7FF"/>
<circle cx="37.4102" cy="90.9137" r="3.56648" stroke="#C6E7FF"/>
<circle cx="48.0846" cy="90.9137" r="3.56648" stroke="#C6E7FF"/>
<circle cx="58.7592" cy="90.9137" r="3.56648" stroke="#C6E7FF"/>
<circle cx="69.4337" cy="90.9137" r="3.56648" stroke="#C6E7FF"/>
<circle cx="5.38655" cy="101.588" r="3.56648" stroke="#C6E7FF"/>
<circle cx="16.0611" cy="101.588" r="3.56648" stroke="#C6E7FF"/>
<circle cx="26.7355" cy="101.588" r="3.56648" stroke="#C6E7FF"/>
<circle cx="37.4102" cy="101.588" r="3.56648" stroke="#C6E7FF"/>
<circle cx="48.0846" cy="101.588" r="3.56648" stroke="#C6E7FF"/>
<circle cx="58.7592" cy="101.588" r="3.56648" stroke="#C6E7FF"/>
<circle cx="69.4337" cy="101.588" r="3.56648" stroke="#C6E7FF"/>
<circle cx="5.38655" cy="112.263" r="3.56648" stroke="#C6E7FF"/>
<circle cx="16.0611" cy="112.263" r="3.56648" stroke="#C6E7FF"/>
<circle cx="26.7355" cy="112.263" r="3.56648" stroke="#C6E7FF"/>
<circle cx="37.4102" cy="112.263" r="3.56648" stroke="#C6E7FF"/>
<circle cx="48.0846" cy="112.263" r="3.56648" stroke="#C6E7FF"/>
<circle cx="58.7592" cy="112.263" r="3.56648" stroke="#C6E7FF"/>
<circle cx="69.4337" cy="112.263" r="3.56648" stroke="#C6E7FF"/>
<circle cx="5.38655" cy="122.937" r="3.56648" stroke="#C6E7FF"/>
<circle cx="16.0611" cy="122.937" r="3.56648" stroke="#C6E7FF"/>
<circle cx="26.7355" cy="122.937" r="3.56648" stroke="#C6E7FF"/>
<circle cx="37.4102" cy="122.937" r="3.56648" stroke="#C6E7FF"/>
<circle cx="48.0846" cy="122.937" r="3.56648" stroke="#C6E7FF"/>
<circle cx="58.7592" cy="122.937" r="3.56648" stroke="#C6E7FF"/>
<circle cx="69.4337" cy="122.937" r="3.56648" stroke="#C6E7FF"/>
<circle cx="5.38655" cy="133.612" r="3.56648" stroke="#C6E7FF"/>
<circle cx="16.0611" cy="133.612" r="3.56648" stroke="#C6E7FF"/>
<circle cx="26.7355" cy="133.612" r="3.56648" stroke="#C6E7FF"/>
<circle cx="37.4102" cy="133.612" r="3.56648" stroke="#C6E7FF"/>
<circle cx="48.0846" cy="133.612" r="3.56648" stroke="#C6E7FF"/>
<circle cx="58.7592" cy="133.612" r="3.56648" stroke="#C6E7FF"/>
<circle cx="69.4337" cy="133.612" r="3.56648" stroke="#C6E7FF"/>
<circle cx="5.38655" cy="144.286" r="3.56648" stroke="#C6E7FF"/>
<circle cx="16.0611" cy="144.286" r="3.56648" stroke="#C6E7FF"/>
<circle cx="26.7355" cy="144.286" r="3.56648" stroke="#C6E7FF"/>
<circle cx="37.4102" cy="144.286" r="3.56648" stroke="#C6E7FF"/>
<circle cx="48.0846" cy="144.286" r="3.56648" stroke="#C6E7FF"/>
<circle cx="58.7592" cy="144.286" r="3.56648" stroke="#C6E7FF"/>
<circle cx="69.4337" cy="144.286" r="3.56648" stroke="#C6E7FF"/>
<circle cx="80.2392" cy="5.38649" r="3.56648" stroke="#C6E7FF"/>
<circle cx="90.9137" cy="5.38646" r="3.56648" stroke="#C6E7FF"/>
<circle cx="101.588" cy="5.38646" r="3.56648" stroke="#C6E7FF"/>
<circle cx="112.263" cy="5.38646" r="3.56648" stroke="#C6E7FF"/>
<circle cx="122.937" cy="5.38646" r="3.56648" stroke="#C6E7FF"/>
<circle cx="133.612" cy="5.38646" r="3.56648" stroke="#C6E7FF"/>
<circle cx="144.286" cy="5.38646" r="3.56648" stroke="#C6E7FF"/>
<circle cx="80.2392" cy="16.061" r="3.56648" stroke="#C6E7FF"/>
<circle cx="90.9137" cy="16.061" r="3.56648" stroke="#C6E7FF"/>
<circle cx="101.588" cy="16.061" r="3.56648" stroke="#C6E7FF"/>
<circle cx="112.263" cy="16.061" r="3.56648" stroke="#C6E7FF"/>
<circle cx="122.937" cy="16.061" r="3.56648" stroke="#C6E7FF"/>
<circle cx="133.612" cy="16.061" r="3.56648" stroke="#C6E7FF"/>
<circle cx="144.286" cy="16.061" r="3.56648" stroke="#C6E7FF"/>
<circle cx="80.2392" cy="26.7355" r="3.56648" stroke="#C6E7FF"/>
<circle cx="90.9137" cy="26.7355" r="3.56648" stroke="#C6E7FF"/>
<circle cx="101.588" cy="26.7355" r="3.56648" stroke="#C6E7FF"/>
<circle cx="112.263" cy="26.7355" r="3.56648" stroke="#C6E7FF"/>
<circle cx="122.937" cy="26.7355" r="3.56648" stroke="#C6E7FF"/>
<circle cx="133.612" cy="26.7355" r="3.56648" stroke="#C6E7FF"/>
<circle cx="144.286" cy="26.7355" r="3.56648" stroke="#C6E7FF"/>
<circle cx="80.2392" cy="37.41" r="3.56648" stroke="#C6E7FF"/>
<circle cx="90.9137" cy="37.41" r="3.56648" stroke="#C6E7FF"/>
<circle cx="101.588" cy="37.41" r="3.56648" stroke="#C6E7FF"/>
<circle cx="112.263" cy="37.41" r="3.56648" stroke="#C6E7FF"/>
<circle cx="122.937" cy="37.41" r="3.56648" stroke="#C6E7FF"/>
<circle cx="133.612" cy="37.41" r="3.56648" stroke="#C6E7FF"/>
<circle cx="144.286" cy="37.41" r="3.56648" stroke="#C6E7FF"/>
<circle cx="80.2392" cy="48.0845" r="3.56648" stroke="#C6E7FF"/>
<circle cx="90.9137" cy="48.0845" r="3.56648" stroke="#C6E7FF"/>
<circle cx="101.588" cy="48.0845" r="3.56648" stroke="#C6E7FF"/>
<circle cx="112.263" cy="48.0845" r="3.56648" stroke="#C6E7FF"/>
<circle cx="122.937" cy="48.0845" r="3.56648" stroke="#C6E7FF"/>
<circle cx="133.612" cy="48.0845" r="3.56648" stroke="#C6E7FF"/>
<circle cx="144.286" cy="48.0845" r="3.56648" stroke="#C6E7FF"/>
<circle cx="80.2392" cy="58.759" r="3.56648" stroke="#C6E7FF"/>
<circle cx="90.9137" cy="58.7591" r="3.56648" stroke="#C6E7FF"/>
<circle cx="101.588" cy="58.7591" r="3.56648" stroke="#C6E7FF"/>
<circle cx="112.263" cy="58.7591" r="3.56648" stroke="#C6E7FF"/>
<circle cx="122.937" cy="58.7591" r="3.56648" stroke="#C6E7FF"/>
<circle cx="133.612" cy="58.7591" r="3.56648" stroke="#C6E7FF"/>
<circle cx="144.286" cy="58.7591" r="3.56648" stroke="#C6E7FF"/>
<circle cx="80.2392" cy="69.4336" r="3.56648" stroke="#C6E7FF"/>
<circle cx="90.9137" cy="69.4336" r="3.56648" stroke="#C6E7FF"/>
<circle cx="101.588" cy="69.4336" r="3.56648" stroke="#C6E7FF"/>
<circle cx="112.263" cy="69.4336" r="3.56648" stroke="#C6E7FF"/>
<circle cx="122.937" cy="69.4336" r="3.56648" stroke="#C6E7FF"/>
<circle cx="133.612" cy="69.4336" r="3.56648" stroke="#C6E7FF"/>
<circle cx="144.286" cy="69.4336" r="3.56648" stroke="#C6E7FF"/>
<circle cx="80.2392" cy="80.2392" r="3.56648" stroke="#C6E7FF"/>
<circle cx="90.9137" cy="80.2392" r="3.56648" stroke="#C6E7FF"/>
<circle cx="101.588" cy="80.2392" r="3.56648" stroke="#C6E7FF"/>
<circle cx="112.263" cy="80.2392" r="3.56648" stroke="#C6E7FF"/>
<circle cx="122.937" cy="80.2392" r="3.56648" stroke="#C6E7FF"/>
<circle cx="133.612" cy="80.2392" r="3.56648" stroke="#C6E7FF"/>
<circle cx="144.286" cy="80.2392" r="3.56648" stroke="#C6E7FF"/>
<circle cx="80.2392" cy="90.9137" r="3.56648" stroke="#C6E7FF"/>
<circle cx="90.9137" cy="90.9137" r="3.56648" stroke="#C6E7FF"/>
<circle cx="101.588" cy="90.9137" r="3.56648" stroke="#C6E7FF"/>
<circle cx="112.263" cy="90.9137" r="3.56648" stroke="#C6E7FF"/>
<circle cx="122.937" cy="90.9137" r="3.56648" stroke="#C6E7FF"/>
<circle cx="133.612" cy="90.9137" r="3.56648" stroke="#C6E7FF"/>
<circle cx="144.286" cy="90.9137" r="3.56648" stroke="#C6E7FF"/>
<circle cx="80.2392" cy="101.588" r="3.56648" stroke="#C6E7FF"/>
<circle cx="90.9137" cy="101.588" r="3.56648" stroke="#C6E7FF"/>
<circle cx="101.588" cy="101.588" r="3.56648" stroke="#C6E7FF"/>
<circle cx="112.263" cy="101.588" r="3.56648" stroke="#C6E7FF"/>
<circle cx="122.937" cy="101.588" r="3.56648" stroke="#C6E7FF"/>
<circle cx="133.612" cy="101.588" r="3.56648" stroke="#C6E7FF"/>
<circle cx="144.286" cy="101.588" r="3.56648" stroke="#C6E7FF"/>
<circle cx="80.2392" cy="112.263" r="3.56648" stroke="#C6E7FF"/>
<circle cx="90.9137" cy="112.263" r="3.56648" stroke="#C6E7FF"/>
<circle cx="101.588" cy="112.263" r="3.56648" stroke="#C6E7FF"/>
<circle cx="112.263" cy="112.263" r="3.56648" stroke="#C6E7FF"/>
<circle cx="122.937" cy="112.263" r="3.56648" stroke="#C6E7FF"/>
<circle cx="133.612" cy="112.263" r="3.56648" stroke="#C6E7FF"/>
<circle cx="144.286" cy="112.263" r="3.56648" stroke="#C6E7FF"/>
<circle cx="80.2392" cy="122.937" r="3.56648" stroke="#C6E7FF"/>
<circle cx="90.9137" cy="122.937" r="3.56648" stroke="#C6E7FF"/>
<circle cx="101.588" cy="122.937" r="3.56648" stroke="#C6E7FF"/>
<circle cx="112.263" cy="122.937" r="3.56648" stroke="#C6E7FF"/>
<circle cx="122.937" cy="122.937" r="3.56648" stroke="#C6E7FF"/>
<circle cx="133.612" cy="122.937" r="3.56648" stroke="#C6E7FF"/>
<circle cx="144.286" cy="122.937" r="3.56648" stroke="#C6E7FF"/>
<circle cx="80.2392" cy="133.612" r="3.56648" stroke="#C6E7FF"/>
<circle cx="90.9137" cy="133.612" r="3.56648" stroke="#C6E7FF"/>
<circle cx="101.588" cy="133.612" r="3.56648" stroke="#C6E7FF"/>
<circle cx="112.263" cy="133.612" r="3.56648" stroke="#C6E7FF"/>
<circle cx="122.937" cy="133.612" r="3.56648" stroke="#C6E7FF"/>
<circle cx="133.612" cy="133.612" r="3.56648" stroke="#C6E7FF"/>
<circle cx="144.286" cy="133.612" r="3.56648" stroke="#C6E7FF"/>
<circle cx="80.2392" cy="144.286" r="3.56648" stroke="#C6E7FF"/>
<circle cx="90.9137" cy="144.286" r="3.56648" stroke="#C6E7FF"/>
<circle cx="101.588" cy="144.286" r="3.56648" stroke="#C6E7FF"/>
<circle cx="112.263" cy="144.286" r="3.56648" stroke="#C6E7FF"/>
<circle cx="122.937" cy="144.286" r="3.56648" stroke="#C6E7FF"/>
<circle cx="133.612" cy="144.286" r="3.56648" stroke="#C6E7FF"/>
<circle cx="144.286" cy="144.286" r="3.56648" stroke="#C6E7FF"/>
</g>
</svg>
