<svg width="79" height="79" viewBox="0 0 79 79" fill="none" xmlns="http://www.w3.org/2000/svg">
<mask id="mask0_1123_1392" style="mask-type:alpha" maskUnits="userSpaceOnUse" x="0" y="0" width="79" height="79">
<circle cx="39.5" cy="39.5" r="39.5" fill="#D9D9D9"/>
</mask>
<g mask="url(#mask0_1123_1392)">
<circle cx="2.89483" cy="2.89474" r="2.18539" fill="#EAF4FB"/>
<circle cx="8.63146" cy="2.89474" r="2.18539" fill="#EAF4FB"/>
<circle cx="14.3681" cy="2.89474" r="2.18539" fill="#EAF4FB"/>
<circle cx="20.1048" cy="2.89474" r="2.18539" fill="#EAF4FB"/>
<circle cx="25.8414" cy="2.89474" r="2.18539" fill="#EAF4FB"/>
<circle cx="31.578" cy="2.89474" r="2.18539" fill="#EAF4FB"/>
<circle cx="37.3147" cy="2.89474" r="2.18539" fill="#EAF4FB"/>
<circle cx="2.89483" cy="8.63137" r="2.18539" fill="#EAF4FB"/>
<circle cx="8.63146" cy="8.63137" r="2.18539" fill="#EAF4FB"/>
<circle cx="14.3681" cy="8.63137" r="2.18539" fill="#EAF4FB"/>
<circle cx="20.1048" cy="8.63137" r="2.18539" fill="#EAF4FB"/>
<circle cx="25.8414" cy="8.63137" r="2.18539" fill="#EAF4FB"/>
<circle cx="31.578" cy="8.63137" r="2.18539" fill="#EAF4FB"/>
<circle cx="37.3147" cy="8.63137" r="2.18539" fill="#EAF4FB"/>
<circle cx="2.89483" cy="14.3681" r="2.18539" fill="#EAF4FB"/>
<circle cx="8.63146" cy="14.3681" r="2.18539" fill="#EAF4FB"/>
<circle cx="14.3681" cy="14.3681" r="2.18539" fill="#EAF4FB"/>
<circle cx="20.1048" cy="14.3681" r="2.18539" fill="#EAF4FB"/>
<circle cx="25.8414" cy="14.3681" r="2.18539" fill="#EAF4FB"/>
<circle cx="31.578" cy="14.3681" r="2.18539" fill="#EAF4FB"/>
<circle cx="37.3147" cy="14.3681" r="2.18539" fill="#EAF4FB"/>
<circle cx="2.89483" cy="20.1047" r="2.18539" fill="#EAF4FB"/>
<circle cx="8.63146" cy="20.1047" r="2.18539" fill="#EAF4FB"/>
<circle cx="14.3681" cy="20.1047" r="2.18539" fill="#EAF4FB"/>
<circle cx="20.1048" cy="20.1047" r="2.18539" fill="#EAF4FB"/>
<circle cx="25.8414" cy="20.1047" r="2.18539" fill="#EAF4FB"/>
<circle cx="31.578" cy="20.1047" r="2.18539" fill="#EAF4FB"/>
<circle cx="37.3147" cy="20.1047" r="2.18539" fill="#EAF4FB"/>
<circle cx="2.89483" cy="25.8413" r="2.18539" fill="#EAF4FB"/>
<circle cx="8.63146" cy="25.8413" r="2.18539" fill="#EAF4FB"/>
<circle cx="14.3681" cy="25.8413" r="2.18539" fill="#EAF4FB"/>
<circle cx="20.1048" cy="25.8413" r="2.18539" fill="#EAF4FB"/>
<circle cx="25.8414" cy="25.8413" r="2.18539" fill="#EAF4FB"/>
<circle cx="31.578" cy="25.8413" r="2.18539" fill="#EAF4FB"/>
<circle cx="37.3147" cy="25.8413" r="2.18539" fill="#EAF4FB"/>
<circle cx="2.89483" cy="31.578" r="2.18539" fill="#EAF4FB"/>
<circle cx="8.63146" cy="31.578" r="2.18539" fill="#EAF4FB"/>
<circle cx="14.3681" cy="31.578" r="2.18539" fill="#EAF4FB"/>
<circle cx="20.1048" cy="31.578" r="2.18539" fill="#EAF4FB"/>
<circle cx="25.8414" cy="31.578" r="2.18539" fill="#EAF4FB"/>
<circle cx="31.578" cy="31.578" r="2.18539" fill="#EAF4FB"/>
<circle cx="37.3147" cy="31.578" r="2.18539" fill="#EAF4FB"/>
<circle cx="2.89483" cy="37.3147" r="2.18539" fill="#EAF4FB"/>
<circle cx="8.63146" cy="37.3147" r="2.18539" fill="#EAF4FB"/>
<circle cx="14.3681" cy="37.3147" r="2.18539" fill="#EAF4FB"/>
<circle cx="20.1048" cy="37.3147" r="2.18539" fill="#EAF4FB"/>
<circle cx="25.8414" cy="37.3147" r="2.18539" fill="#EAF4FB"/>
<circle cx="31.578" cy="37.3147" r="2.18539" fill="#EAF4FB"/>
<circle cx="37.3147" cy="37.3147" r="2.18539" fill="#EAF4FB"/>
<circle cx="2.89483" cy="43.1217" r="2.18539" fill="#EAF4FB"/>
<circle cx="8.63146" cy="43.1217" r="2.18539" fill="#EAF4FB"/>
<circle cx="14.3681" cy="43.1217" r="2.18539" fill="#EAF4FB"/>
<circle cx="20.1048" cy="43.1217" r="2.18539" fill="#EAF4FB"/>
<circle cx="25.8414" cy="43.1217" r="2.18539" fill="#EAF4FB"/>
<circle cx="31.578" cy="43.1217" r="2.18539" fill="#EAF4FB"/>
<circle cx="37.3147" cy="43.1217" r="2.18539" fill="#EAF4FB"/>
<circle cx="2.89486" cy="48.8584" r="2.18539" fill="#EAF4FB"/>
<circle cx="8.63149" cy="48.8584" r="2.18539" fill="#EAF4FB"/>
<circle cx="14.3681" cy="48.8584" r="2.18539" fill="#EAF4FB"/>
<circle cx="20.1048" cy="48.8584" r="2.18539" fill="#EAF4FB"/>
<circle cx="25.8414" cy="48.8584" r="2.18539" fill="#EAF4FB"/>
<circle cx="31.5781" cy="48.8584" r="2.18539" fill="#EAF4FB"/>
<circle cx="37.3147" cy="48.8584" r="2.18539" fill="#EAF4FB"/>
<circle cx="2.89486" cy="54.595" r="2.18539" fill="#EAF4FB"/>
<circle cx="8.63149" cy="54.595" r="2.18539" fill="#EAF4FB"/>
<circle cx="14.3681" cy="54.595" r="2.18539" fill="#EAF4FB"/>
<circle cx="20.1048" cy="54.595" r="2.18539" fill="#EAF4FB"/>
<circle cx="25.8414" cy="54.595" r="2.18539" fill="#EAF4FB"/>
<circle cx="31.5781" cy="54.595" r="2.18539" fill="#EAF4FB"/>
<circle cx="37.3147" cy="54.595" r="2.18539" fill="#EAF4FB"/>
<circle cx="2.89486" cy="60.3316" r="2.18539" fill="#EAF4FB"/>
<circle cx="8.63149" cy="60.3316" r="2.18539" fill="#EAF4FB"/>
<circle cx="14.3681" cy="60.3316" r="2.18539" fill="#EAF4FB"/>
<circle cx="20.1048" cy="60.3316" r="2.18539" fill="#EAF4FB"/>
<circle cx="25.8414" cy="60.3316" r="2.18539" fill="#EAF4FB"/>
<circle cx="31.5781" cy="60.3316" r="2.18539" fill="#EAF4FB"/>
<circle cx="37.3147" cy="60.3316" r="2.18539" fill="#EAF4FB"/>
<circle cx="2.89486" cy="66.0683" r="2.18539" fill="#EAF4FB"/>
<circle cx="8.63149" cy="66.0683" r="2.18539" fill="#EAF4FB"/>
<circle cx="14.3681" cy="66.0683" r="2.18539" fill="#EAF4FB"/>
<circle cx="20.1048" cy="66.0683" r="2.18539" fill="#EAF4FB"/>
<circle cx="25.8414" cy="66.0683" r="2.18539" fill="#EAF4FB"/>
<circle cx="31.5781" cy="66.0683" r="2.18539" fill="#EAF4FB"/>
<circle cx="37.3147" cy="66.0683" r="2.18539" fill="#EAF4FB"/>
<circle cx="2.89486" cy="71.805" r="2.18539" fill="#EAF4FB"/>
<circle cx="8.63149" cy="71.805" r="2.18539" fill="#EAF4FB"/>
<circle cx="14.3681" cy="71.805" r="2.18539" fill="#EAF4FB"/>
<circle cx="20.1048" cy="71.805" r="2.18539" fill="#EAF4FB"/>
<circle cx="25.8414" cy="71.805" r="2.18539" fill="#EAF4FB"/>
<circle cx="31.5781" cy="71.805" r="2.18539" fill="#EAF4FB"/>
<circle cx="37.3147" cy="71.805" r="2.18539" fill="#EAF4FB"/>
<circle cx="2.89486" cy="77.5416" r="2.18539" fill="#EAF4FB"/>
<circle cx="8.63149" cy="77.5416" r="2.18539" fill="#EAF4FB"/>
<circle cx="14.3681" cy="77.5416" r="2.18539" fill="#EAF4FB"/>
<circle cx="20.1048" cy="77.5416" r="2.18539" fill="#EAF4FB"/>
<circle cx="25.8414" cy="77.5416" r="2.18539" fill="#EAF4FB"/>
<circle cx="31.5781" cy="77.5416" r="2.18539" fill="#EAF4FB"/>
<circle cx="37.3147" cy="77.5416" r="2.18539" fill="#EAF4FB"/>
<circle cx="43.1218" cy="2.89474" r="2.18539" fill="#EAF4FB"/>
<circle cx="48.8584" cy="2.89474" r="2.18539" fill="#EAF4FB"/>
<circle cx="54.5951" cy="2.89474" r="2.18539" fill="#EAF4FB"/>
<circle cx="60.3317" cy="2.89474" r="2.18539" fill="#EAF4FB"/>
<circle cx="66.0684" cy="2.89474" r="2.18539" fill="#EAF4FB"/>
<circle cx="71.805" cy="2.89474" r="2.18539" fill="#EAF4FB"/>
<circle cx="77.5416" cy="2.89474" r="2.18539" fill="#EAF4FB"/>
<circle cx="43.1218" cy="8.63137" r="2.18539" fill="#EAF4FB"/>
<circle cx="48.8584" cy="8.63137" r="2.18539" fill="#EAF4FB"/>
<circle cx="54.5951" cy="8.63137" r="2.18539" fill="#EAF4FB"/>
<circle cx="60.3317" cy="8.63137" r="2.18539" fill="#EAF4FB"/>
<circle cx="66.0684" cy="8.63137" r="2.18539" fill="#EAF4FB"/>
<circle cx="71.805" cy="8.63137" r="2.18539" fill="#EAF4FB"/>
<circle cx="77.5416" cy="8.63137" r="2.18539" fill="#EAF4FB"/>
<circle cx="43.1218" cy="14.3681" r="2.18539" fill="#EAF4FB"/>
<circle cx="48.8584" cy="14.3681" r="2.18539" fill="#EAF4FB"/>
<circle cx="54.5951" cy="14.3681" r="2.18539" fill="#EAF4FB"/>
<circle cx="60.3317" cy="14.3681" r="2.18539" fill="#EAF4FB"/>
<circle cx="66.0684" cy="14.3681" r="2.18539" fill="#EAF4FB"/>
<circle cx="71.805" cy="14.3681" r="2.18539" fill="#EAF4FB"/>
<circle cx="77.5416" cy="14.3681" r="2.18539" fill="#EAF4FB"/>
<circle cx="43.1218" cy="20.1047" r="2.18539" fill="#EAF4FB"/>
<circle cx="48.8584" cy="20.1047" r="2.18539" fill="#EAF4FB"/>
<circle cx="54.5951" cy="20.1047" r="2.18539" fill="#EAF4FB"/>
<circle cx="60.3317" cy="20.1047" r="2.18539" fill="#EAF4FB"/>
<circle cx="66.0684" cy="20.1047" r="2.18539" fill="#EAF4FB"/>
<circle cx="71.805" cy="20.1047" r="2.18539" fill="#EAF4FB"/>
<circle cx="77.5416" cy="20.1047" r="2.18539" fill="#EAF4FB"/>
<circle cx="43.1218" cy="25.8413" r="2.18539" fill="#EAF4FB"/>
<circle cx="48.8584" cy="25.8413" r="2.18539" fill="#EAF4FB"/>
<circle cx="54.5951" cy="25.8413" r="2.18539" fill="#EAF4FB"/>
<circle cx="60.3317" cy="25.8413" r="2.18539" fill="#EAF4FB"/>
<circle cx="66.0684" cy="25.8413" r="2.18539" fill="#EAF4FB"/>
<circle cx="71.805" cy="25.8413" r="2.18539" fill="#EAF4FB"/>
<circle cx="77.5416" cy="25.8413" r="2.18539" fill="#EAF4FB"/>
<circle cx="43.1218" cy="31.578" r="2.18539" fill="#EAF4FB"/>
<circle cx="48.8584" cy="31.578" r="2.18539" fill="#EAF4FB"/>
<circle cx="54.5951" cy="31.578" r="2.18539" fill="#EAF4FB"/>
<circle cx="60.3317" cy="31.578" r="2.18539" fill="#EAF4FB"/>
<circle cx="66.0684" cy="31.578" r="2.18539" fill="#EAF4FB"/>
<circle cx="71.805" cy="31.578" r="2.18539" fill="#EAF4FB"/>
<circle cx="77.5416" cy="31.578" r="2.18539" fill="#EAF4FB"/>
<circle cx="43.1218" cy="37.3147" r="2.18539" fill="#EAF4FB"/>
<circle cx="48.8584" cy="37.3147" r="2.18539" fill="#EAF4FB"/>
<circle cx="54.5951" cy="37.3147" r="2.18539" fill="#EAF4FB"/>
<circle cx="60.3317" cy="37.3147" r="2.18539" fill="#EAF4FB"/>
<circle cx="66.0684" cy="37.3147" r="2.18539" fill="#EAF4FB"/>
<circle cx="71.805" cy="37.3147" r="2.18539" fill="#EAF4FB"/>
<circle cx="77.5416" cy="37.3147" r="2.18539" fill="#EAF4FB"/>
<circle cx="43.1218" cy="43.1217" r="2.18539" fill="#EAF4FB"/>
<circle cx="48.8584" cy="43.1217" r="2.18539" fill="#EAF4FB"/>
<circle cx="54.5951" cy="43.1217" r="2.18539" fill="#EAF4FB"/>
<circle cx="60.3317" cy="43.1217" r="2.18539" fill="#EAF4FB"/>
<circle cx="66.0684" cy="43.1217" r="2.18539" fill="#EAF4FB"/>
<circle cx="71.805" cy="43.1217" r="2.18539" fill="#EAF4FB"/>
<circle cx="77.5416" cy="43.1217" r="2.18539" fill="#EAF4FB"/>
<circle cx="43.1218" cy="48.8584" r="2.18539" fill="#EAF4FB"/>
<circle cx="48.8584" cy="48.8584" r="2.18539" fill="#EAF4FB"/>
<circle cx="54.5951" cy="48.8584" r="2.18539" fill="#EAF4FB"/>
<circle cx="60.3317" cy="48.8584" r="2.18539" fill="#EAF4FB"/>
<circle cx="66.0684" cy="48.8584" r="2.18539" fill="#EAF4FB"/>
<circle cx="71.805" cy="48.8584" r="2.18539" fill="#EAF4FB"/>
<circle cx="77.5416" cy="48.8584" r="2.18539" fill="#EAF4FB"/>
<circle cx="43.1218" cy="54.595" r="2.18539" fill="#EAF4FB"/>
<circle cx="48.8584" cy="54.595" r="2.18539" fill="#EAF4FB"/>
<circle cx="54.5951" cy="54.595" r="2.18539" fill="#EAF4FB"/>
<circle cx="60.3317" cy="54.595" r="2.18539" fill="#EAF4FB"/>
<circle cx="66.0684" cy="54.595" r="2.18539" fill="#EAF4FB"/>
<circle cx="71.805" cy="54.595" r="2.18539" fill="#EAF4FB"/>
<circle cx="77.5416" cy="54.595" r="2.18539" fill="#EAF4FB"/>
<circle cx="43.1218" cy="60.3316" r="2.18539" fill="#EAF4FB"/>
<circle cx="48.8584" cy="60.3316" r="2.18539" fill="#EAF4FB"/>
<circle cx="54.5951" cy="60.3316" r="2.18539" fill="#EAF4FB"/>
<circle cx="60.3317" cy="60.3316" r="2.18539" fill="#EAF4FB"/>
<circle cx="66.0684" cy="60.3316" r="2.18539" fill="#EAF4FB"/>
<circle cx="71.805" cy="60.3316" r="2.18539" fill="#EAF4FB"/>
<circle cx="77.5416" cy="60.3316" r="2.18539" fill="#EAF4FB"/>
<circle cx="43.1218" cy="66.0683" r="2.18539" fill="#EAF4FB"/>
<circle cx="48.8584" cy="66.0683" r="2.18539" fill="#EAF4FB"/>
<circle cx="54.5951" cy="66.0683" r="2.18539" fill="#EAF4FB"/>
<circle cx="60.3317" cy="66.0683" r="2.18539" fill="#EAF4FB"/>
<circle cx="66.0684" cy="66.0683" r="2.18539" fill="#EAF4FB"/>
<circle cx="71.805" cy="66.0683" r="2.18539" fill="#EAF4FB"/>
<circle cx="77.5416" cy="66.0683" r="2.18539" fill="#EAF4FB"/>
<circle cx="43.1218" cy="71.805" r="2.18539" fill="#EAF4FB"/>
<circle cx="48.8584" cy="71.805" r="2.18539" fill="#EAF4FB"/>
<circle cx="54.5951" cy="71.805" r="2.18539" fill="#EAF4FB"/>
<circle cx="60.3317" cy="71.805" r="2.18539" fill="#EAF4FB"/>
<circle cx="66.0684" cy="71.805" r="2.18539" fill="#EAF4FB"/>
<circle cx="71.805" cy="71.805" r="2.18539" fill="#EAF4FB"/>
<circle cx="77.5416" cy="71.805" r="2.18539" fill="#EAF4FB"/>
<circle cx="43.1218" cy="77.5416" r="2.18539" fill="#EAF4FB"/>
<circle cx="48.8584" cy="77.5416" r="2.18539" fill="#EAF4FB"/>
<circle cx="54.5951" cy="77.5416" r="2.18539" fill="#EAF4FB"/>
<circle cx="60.3317" cy="77.5416" r="2.18539" fill="#EAF4FB"/>
<circle cx="66.0684" cy="77.5416" r="2.18539" fill="#EAF4FB"/>
<circle cx="71.805" cy="77.5416" r="2.18539" fill="#EAF4FB"/>
<circle cx="77.5416" cy="77.5416" r="2.18539" fill="#EAF4FB"/>
</g>
</svg>
