<svg width="239" height="214" viewBox="0 0 239 214" fill="none" xmlns="http://www.w3.org/2000/svg">
<path d="M0.84967 18.0445L18.3497 1L35.3497 18.0445" stroke="#FA6F6F"/>
<path d="M34.6293 18.0445L52.1293 1L69.1293 18.0445" stroke="#FA6F6F"/>
<path d="M68.4089 18.0445L85.9089 1L102.909 18.0445" stroke="#FA6F6F"/>
<path d="M102.189 18.0445L119.689 1L136.689 18.0445" stroke="#FA6F6F"/>
<path d="M135.968 18.0445L153.468 1L170.468 18.0445" stroke="#FA6F6F"/>
<path d="M169.748 18.0445L187.248 1L204.248 18.0445" stroke="#FA6F6F"/>
<path d="M203.527 18.0445L221.027 1L238.027 18.0445" stroke="#FA6F6F"/>
<path d="M0.84967 45.8834L18.3497 28.8389L35.3497 45.8834" stroke="#FA6F6F"/>
<path d="M34.6293 45.8834L52.1293 28.8389L69.1293 45.8834" stroke="#FA6F6F"/>
<path d="M68.4089 45.8834L85.9089 28.8389L102.909 45.8834" stroke="#FA6F6F"/>
<path d="M102.189 45.8834L119.689 28.8389L136.689 45.8834" stroke="#FA6F6F"/>
<path d="M135.968 45.8834L153.468 28.8389L170.468 45.8834" stroke="#FA6F6F"/>
<path d="M169.748 45.8834L187.248 28.8389L204.248 45.8834" stroke="#FA6F6F"/>
<path d="M203.527 45.8834L221.027 28.8389L238.027 45.8834" stroke="#FA6F6F"/>
<path d="M0.84967 73.7223L18.3497 56.6779L35.3497 73.7223" stroke="#FA6F6F"/>
<path d="M34.6293 73.7223L52.1293 56.6779L69.1293 73.7223" stroke="#FA6F6F"/>
<path d="M68.4089 73.7223L85.9089 56.6779L102.909 73.7223" stroke="#FA6F6F"/>
<path d="M102.189 73.7223L119.689 56.6779L136.689 73.7223" stroke="#FA6F6F"/>
<path d="M135.968 73.7223L153.468 56.6779L170.468 73.7223" stroke="#FA6F6F"/>
<path d="M169.748 73.7223L187.248 56.6779L204.248 73.7223" stroke="#FA6F6F"/>
<path d="M203.527 73.7223L221.027 56.6779L238.027 73.7223" stroke="#FA6F6F"/>
<path d="M0.84967 101.561L18.3497 84.5168L35.3497 101.561" stroke="#FA6F6F"/>
<path d="M34.6293 101.561L52.1293 84.5168L69.1293 101.561" stroke="#FA6F6F"/>
<path d="M68.4089 101.561L85.9089 84.5168L102.909 101.561" stroke="#FA6F6F"/>
<path d="M102.189 101.561L119.689 84.5168L136.689 101.561" stroke="#FA6F6F"/>
<path d="M135.968 101.561L153.468 84.5168L170.468 101.561" stroke="#FA6F6F"/>
<path d="M169.748 101.561L187.248 84.5168L204.248 101.561" stroke="#FA6F6F"/>
<path d="M203.527 101.561L221.027 84.5168L238.027 101.561" stroke="#FA6F6F"/>
<path d="M0.84967 129.4L18.3497 112.356L35.3497 129.4" stroke="#FA6F6F"/>
<path d="M34.6293 129.4L52.1293 112.356L69.1293 129.4" stroke="#FA6F6F"/>
<path d="M68.4089 129.4L85.9089 112.356L102.909 129.4" stroke="#FA6F6F"/>
<path d="M102.189 129.4L119.689 112.356L136.689 129.4" stroke="#FA6F6F"/>
<path d="M135.968 129.4L153.468 112.356L170.468 129.4" stroke="#FA6F6F"/>
<path d="M169.748 129.4L187.248 112.356L204.248 129.4" stroke="#FA6F6F"/>
<path d="M203.527 129.4L221.027 112.356L238.027 129.4" stroke="#FA6F6F"/>
<path d="M0.84967 157.239L18.3497 140.195L35.3497 157.239" stroke="#FA6F6F"/>
<path d="M34.6293 157.239L52.1293 140.195L69.1293 157.239" stroke="#FA6F6F"/>
<path d="M68.4089 157.239L85.9089 140.195L102.909 157.239" stroke="#FA6F6F"/>
<path d="M102.189 157.239L119.689 140.195L136.689 157.239" stroke="#FA6F6F"/>
<path d="M135.968 157.239L153.468 140.195L170.468 157.239" stroke="#FA6F6F"/>
<path d="M169.748 157.239L187.248 140.195L204.248 157.239" stroke="#FA6F6F"/>
<path d="M203.527 157.239L221.027 140.195L238.027 157.239" stroke="#FA6F6F"/>
<path d="M0.84967 185.078L18.3497 168.034L35.3497 185.078" stroke="#FA6F6F"/>
<path d="M34.6293 185.078L52.1293 168.034L69.1293 185.078" stroke="#FA6F6F"/>
<path d="M68.4089 185.078L85.9089 168.034L102.909 185.078" stroke="#FA6F6F"/>
<path d="M102.189 185.078L119.689 168.034L136.689 185.078" stroke="#FA6F6F"/>
<path d="M135.968 185.078L153.468 168.034L170.468 185.078" stroke="#FA6F6F"/>
<path d="M169.748 185.078L187.248 168.034L204.248 185.078" stroke="#FA6F6F"/>
<path d="M203.527 185.078L221.027 168.034L238.027 185.078" stroke="#FA6F6F"/>
<path d="M0.84967 212.917L18.3497 195.872L35.3497 212.917" stroke="#FA6F6F"/>
<path d="M34.6293 212.917L52.1293 195.872L69.1293 212.917" stroke="#FA6F6F"/>
<path d="M68.4089 212.917L85.9089 195.872L102.909 212.917" stroke="#FA6F6F"/>
<path d="M102.189 212.917L119.689 195.872L136.689 212.917" stroke="#FA6F6F"/>
<path d="M135.968 212.917L153.468 195.872L170.468 212.917" stroke="#FA6F6F"/>
<path d="M169.748 212.917L187.248 195.872L204.248 212.917" stroke="#FA6F6F"/>
<path d="M203.527 212.917L221.027 195.872L238.027 212.917" stroke="#FA6F6F"/>
</svg>
