<svg width="206" height="206" viewBox="0 0 206 206" fill="none" xmlns="http://www.w3.org/2000/svg">
<mask id="mask0_1217_974" style="mask-type:alpha" maskUnits="userSpaceOnUse" x="0" y="0" width="206" height="206">
<circle cx="102.869" cy="103.148" r="102.769" fill="#D9D9D9"/>
</mask>
<g mask="url(#mask0_1217_974)">
<path d="M-17.1503 11.0445L0.34967 -6L17.3497 11.0445" stroke="#C6E7FF"/>
<path d="M16.6293 11.0445L34.1293 -6L51.1293 11.0445" stroke="#C6E7FF"/>
<path d="M50.4089 11.0445L67.9089 -6L84.9089 11.0445" stroke="#C6E7FF"/>
<path d="M84.1886 11.0445L101.689 -6L118.689 11.0445" stroke="#C6E7FF"/>
<path d="M117.968 11.0445L135.468 -6L152.468 11.0445" stroke="#C6E7FF"/>
<path d="M151.748 11.0445L169.248 -6L186.248 11.0445" stroke="#C6E7FF"/>
<path d="M185.527 11.0445L203.027 -6L220.027 11.0445" stroke="#C6E7FF"/>
<path d="M-17.1503 38.8834L0.34967 21.8389L17.3497 38.8834" stroke="#C6E7FF"/>
<path d="M16.6293 38.8834L34.1293 21.8389L51.1293 38.8834" stroke="#C6E7FF"/>
<path d="M50.4089 38.8834L67.9089 21.8389L84.9089 38.8834" stroke="#C6E7FF"/>
<path d="M84.1886 38.8834L101.689 21.8389L118.689 38.8834" stroke="#C6E7FF"/>
<path d="M117.968 38.8834L135.468 21.8389L152.468 38.8834" stroke="#C6E7FF"/>
<path d="M151.748 38.8834L169.248 21.8389L186.248 38.8834" stroke="#C6E7FF"/>
<path d="M185.527 38.8834L203.027 21.8389L220.027 38.8834" stroke="#C6E7FF"/>
<path d="M-17.1503 66.7223L0.34967 49.6779L17.3497 66.7223" stroke="#C6E7FF"/>
<path d="M16.6293 66.7223L34.1293 49.6779L51.1293 66.7223" stroke="#C6E7FF"/>
<path d="M50.4089 66.7223L67.9089 49.6779L84.9089 66.7223" stroke="#C6E7FF"/>
<path d="M84.1886 66.7223L101.689 49.6779L118.689 66.7223" stroke="#C6E7FF"/>
<path d="M117.968 66.7223L135.468 49.6779L152.468 66.7223" stroke="#C6E7FF"/>
<path d="M151.748 66.7223L169.248 49.6779L186.248 66.7223" stroke="#C6E7FF"/>
<path d="M185.527 66.7223L203.027 49.6779L220.027 66.7223" stroke="#C6E7FF"/>
<path d="M-17.1503 94.5613L0.34967 77.5168L17.3497 94.5613" stroke="#C6E7FF"/>
<path d="M16.6293 94.5613L34.1293 77.5168L51.1293 94.5613" stroke="#C6E7FF"/>
<path d="M50.4089 94.5613L67.9089 77.5168L84.9089 94.5613" stroke="#C6E7FF"/>
<path d="M84.1886 94.5613L101.689 77.5168L118.689 94.5613" stroke="#C6E7FF"/>
<path d="M117.968 94.5613L135.468 77.5168L152.468 94.5613" stroke="#C6E7FF"/>
<path d="M151.748 94.5613L169.248 77.5168L186.248 94.5613" stroke="#C6E7FF"/>
<path d="M185.527 94.5613L203.027 77.5168L220.027 94.5613" stroke="#C6E7FF"/>
<path d="M-17.1503 122.4L0.34967 105.356L17.3497 122.4" stroke="#C6E7FF"/>
<path d="M16.6293 122.4L34.1293 105.356L51.1293 122.4" stroke="#C6E7FF"/>
<path d="M50.4089 122.4L67.9089 105.356L84.9089 122.4" stroke="#C6E7FF"/>
<path d="M84.1886 122.4L101.689 105.356L118.689 122.4" stroke="#C6E7FF"/>
<path d="M117.968 122.4L135.468 105.356L152.468 122.4" stroke="#C6E7FF"/>
<path d="M151.748 122.4L169.248 105.356L186.248 122.4" stroke="#C6E7FF"/>
<path d="M185.527 122.4L203.027 105.356L220.027 122.4" stroke="#C6E7FF"/>
<path d="M-17.1503 150.239L0.34967 133.195L17.3497 150.239" stroke="#C6E7FF"/>
<path d="M16.6293 150.239L34.1293 133.195L51.1293 150.239" stroke="#C6E7FF"/>
<path d="M50.4089 150.239L67.9089 133.195L84.9089 150.239" stroke="#C6E7FF"/>
<path d="M84.1886 150.239L101.689 133.195L118.689 150.239" stroke="#C6E7FF"/>
<path d="M117.968 150.239L135.468 133.195L152.468 150.239" stroke="#C6E7FF"/>
<path d="M151.748 150.239L169.248 133.195L186.248 150.239" stroke="#C6E7FF"/>
<path d="M185.527 150.239L203.027 133.195L220.027 150.239" stroke="#C6E7FF"/>
<path d="M-17.1503 178.078L0.34967 161.034L17.3497 178.078" stroke="#C6E7FF"/>
<path d="M16.6293 178.078L34.1293 161.034L51.1293 178.078" stroke="#C6E7FF"/>
<path d="M50.4089 178.078L67.9089 161.034L84.9089 178.078" stroke="#C6E7FF"/>
<path d="M84.1886 178.078L101.689 161.034L118.689 178.078" stroke="#C6E7FF"/>
<path d="M117.968 178.078L135.468 161.034L152.468 178.078" stroke="#C6E7FF"/>
<path d="M151.748 178.078L169.248 161.034L186.248 178.078" stroke="#C6E7FF"/>
<path d="M185.527 178.078L203.027 161.034L220.027 178.078" stroke="#C6E7FF"/>
<path d="M-17.1503 205.917L0.34967 188.872L17.3497 205.917" stroke="#C6E7FF"/>
<path d="M16.6293 205.917L34.1293 188.872L51.1293 205.917" stroke="#C6E7FF"/>
<path d="M50.4089 205.917L67.9089 188.872L84.9089 205.917" stroke="#C6E7FF"/>
<path d="M84.1886 205.917L101.689 188.872L118.689 205.917" stroke="#C6E7FF"/>
<path d="M117.968 205.917L135.468 188.872L152.468 205.917" stroke="#C6E7FF"/>
<path d="M151.748 205.917L169.248 188.872L186.248 205.917" stroke="#C6E7FF"/>
<path d="M185.527 205.917L203.027 188.872L220.027 205.917" stroke="#C6E7FF"/>
</g>
</svg>
