<svg width="107" height="107" viewBox="0 0 107 107" fill="none" xmlns="http://www.w3.org/2000/svg">
<mask id="mask0_1123_1393" style="mask-type:alpha" maskUnits="userSpaceOnUse" x="0" y="0" width="107" height="107">
<circle cx="53.5" cy="53.5" r="53.5" fill="#D9D9D9"/>
</mask>
<g mask="url(#mask0_1123_1393)">
<circle cx="3.92083" cy="3.92074" r="2.95996" fill="white"/>
<circle cx="11.6907" cy="3.92074" r="2.95996" fill="white"/>
<circle cx="19.4606" cy="3.92074" r="2.95996" fill="white"/>
<circle cx="27.2305" cy="3.92074" r="2.95996" fill="white"/>
<circle cx="35.0004" cy="3.92074" r="2.95996" fill="white"/>
<circle cx="42.7702" cy="3.92074" r="2.95996" fill="white"/>
<circle cx="50.5401" cy="3.92074" r="2.95996" fill="white"/>
<circle cx="3.92083" cy="11.6906" r="2.95996" fill="white"/>
<circle cx="11.6907" cy="11.6906" r="2.95996" fill="white"/>
<circle cx="19.4606" cy="11.6906" r="2.95996" fill="white"/>
<circle cx="27.2305" cy="11.6906" r="2.95996" fill="white"/>
<circle cx="35.0004" cy="11.6906" r="2.95996" fill="white"/>
<circle cx="42.7702" cy="11.6906" r="2.95996" fill="white"/>
<circle cx="50.5401" cy="11.6906" r="2.95996" fill="white"/>
<circle cx="3.92083" cy="19.4605" r="2.95996" fill="white"/>
<circle cx="11.6907" cy="19.4605" r="2.95996" fill="white"/>
<circle cx="19.4606" cy="19.4605" r="2.95996" fill="white"/>
<circle cx="27.2305" cy="19.4605" r="2.95996" fill="white"/>
<circle cx="35.0004" cy="19.4605" r="2.95996" fill="white"/>
<circle cx="42.7702" cy="19.4605" r="2.95996" fill="white"/>
<circle cx="50.5401" cy="19.4605" r="2.95996" fill="white"/>
<circle cx="3.92083" cy="27.2304" r="2.95996" fill="white"/>
<circle cx="11.6907" cy="27.2304" r="2.95996" fill="white"/>
<circle cx="19.4606" cy="27.2304" r="2.95996" fill="white"/>
<circle cx="27.2305" cy="27.2304" r="2.95996" fill="white"/>
<circle cx="35.0004" cy="27.2304" r="2.95996" fill="white"/>
<circle cx="42.7702" cy="27.2304" r="2.95996" fill="white"/>
<circle cx="50.5401" cy="27.2304" r="2.95996" fill="white"/>
<circle cx="3.92083" cy="35.0003" r="2.95996" fill="white"/>
<circle cx="11.6907" cy="35.0003" r="2.95996" fill="white"/>
<circle cx="19.4606" cy="35.0003" r="2.95996" fill="white"/>
<circle cx="27.2305" cy="35.0003" r="2.95996" fill="white"/>
<circle cx="35.0004" cy="35.0003" r="2.95996" fill="white"/>
<circle cx="42.7702" cy="35.0003" r="2.95996" fill="white"/>
<circle cx="50.5401" cy="35.0003" r="2.95996" fill="white"/>
<circle cx="3.92083" cy="42.7702" r="2.95996" fill="white"/>
<circle cx="11.6907" cy="42.7702" r="2.95996" fill="white"/>
<circle cx="19.4606" cy="42.7702" r="2.95996" fill="white"/>
<circle cx="27.2305" cy="42.7702" r="2.95996" fill="white"/>
<circle cx="35.0004" cy="42.7702" r="2.95996" fill="white"/>
<circle cx="42.7702" cy="42.7702" r="2.95996" fill="white"/>
<circle cx="50.5401" cy="42.7702" r="2.95996" fill="white"/>
<circle cx="3.92083" cy="50.5401" r="2.95996" fill="white"/>
<circle cx="11.6907" cy="50.5401" r="2.95996" fill="white"/>
<circle cx="19.4606" cy="50.5401" r="2.95996" fill="white"/>
<circle cx="27.2305" cy="50.5401" r="2.95996" fill="white"/>
<circle cx="35.0004" cy="50.5401" r="2.95996" fill="white"/>
<circle cx="42.7702" cy="50.5401" r="2.95996" fill="white"/>
<circle cx="50.5401" cy="50.5401" r="2.95996" fill="white"/>
<circle cx="3.92083" cy="58.4054" r="2.95996" fill="white"/>
<circle cx="11.6907" cy="58.4054" r="2.95996" fill="white"/>
<circle cx="19.4606" cy="58.4054" r="2.95996" fill="white"/>
<circle cx="27.2305" cy="58.4054" r="2.95996" fill="white"/>
<circle cx="35.0004" cy="58.4054" r="2.95996" fill="white"/>
<circle cx="42.7702" cy="58.4054" r="2.95996" fill="white"/>
<circle cx="50.5401" cy="58.4054" r="2.95996" fill="white"/>
<circle cx="3.92089" cy="66.1753" r="2.95996" fill="white"/>
<circle cx="11.6908" cy="66.1753" r="2.95996" fill="white"/>
<circle cx="19.4606" cy="66.1753" r="2.95996" fill="white"/>
<circle cx="27.2305" cy="66.1753" r="2.95996" fill="white"/>
<circle cx="35.0004" cy="66.1753" r="2.95996" fill="white"/>
<circle cx="42.7703" cy="66.1753" r="2.95996" fill="white"/>
<circle cx="50.5402" cy="66.1753" r="2.95996" fill="white"/>
<circle cx="3.92089" cy="73.9452" r="2.95996" fill="white"/>
<circle cx="11.6908" cy="73.9452" r="2.95996" fill="white"/>
<circle cx="19.4606" cy="73.9452" r="2.95996" fill="white"/>
<circle cx="27.2305" cy="73.9452" r="2.95996" fill="white"/>
<circle cx="35.0004" cy="73.9452" r="2.95996" fill="white"/>
<circle cx="42.7703" cy="73.9452" r="2.95996" fill="white"/>
<circle cx="50.5402" cy="73.9452" r="2.95996" fill="white"/>
<circle cx="3.92089" cy="81.7151" r="2.95996" fill="white"/>
<circle cx="11.6908" cy="81.7151" r="2.95996" fill="white"/>
<circle cx="19.4606" cy="81.7151" r="2.95996" fill="white"/>
<circle cx="27.2305" cy="81.7151" r="2.95996" fill="white"/>
<circle cx="35.0004" cy="81.7151" r="2.95996" fill="white"/>
<circle cx="42.7703" cy="81.7151" r="2.95996" fill="white"/>
<circle cx="50.5402" cy="81.7151" r="2.95996" fill="white"/>
<circle cx="3.92089" cy="89.4849" r="2.95996" fill="white"/>
<circle cx="11.6908" cy="89.4849" r="2.95996" fill="white"/>
<circle cx="19.4606" cy="89.4849" r="2.95996" fill="white"/>
<circle cx="27.2305" cy="89.4849" r="2.95996" fill="white"/>
<circle cx="35.0004" cy="89.4849" r="2.95996" fill="white"/>
<circle cx="42.7703" cy="89.4849" r="2.95996" fill="white"/>
<circle cx="50.5402" cy="89.4849" r="2.95996" fill="white"/>
<circle cx="3.92089" cy="97.2548" r="2.95996" fill="white"/>
<circle cx="11.6908" cy="97.2548" r="2.95996" fill="white"/>
<circle cx="19.4606" cy="97.2548" r="2.95996" fill="white"/>
<circle cx="27.2305" cy="97.2548" r="2.95996" fill="white"/>
<circle cx="35.0004" cy="97.2548" r="2.95996" fill="white"/>
<circle cx="42.7703" cy="97.2548" r="2.95996" fill="white"/>
<circle cx="50.5402" cy="97.2548" r="2.95996" fill="white"/>
<circle cx="3.92089" cy="105.025" r="2.95996" fill="white"/>
<circle cx="11.6908" cy="105.025" r="2.95996" fill="white"/>
<circle cx="19.4606" cy="105.025" r="2.95996" fill="white"/>
<circle cx="27.2305" cy="105.025" r="2.95996" fill="white"/>
<circle cx="35.0004" cy="105.025" r="2.95996" fill="white"/>
<circle cx="42.7703" cy="105.025" r="2.95996" fill="white"/>
<circle cx="50.5402" cy="105.025" r="2.95996" fill="white"/>
<circle cx="58.4054" cy="3.92077" r="2.95996" fill="white"/>
<circle cx="66.1753" cy="3.92076" r="2.95996" fill="white"/>
<circle cx="73.9452" cy="3.92076" r="2.95996" fill="white"/>
<circle cx="81.7151" cy="3.92076" r="2.95996" fill="white"/>
<circle cx="89.485" cy="3.92076" r="2.95996" fill="white"/>
<circle cx="97.2549" cy="3.92076" r="2.95996" fill="white"/>
<circle cx="105.025" cy="3.92076" r="2.95996" fill="white"/>
<circle cx="58.4054" cy="11.6906" r="2.95996" fill="white"/>
<circle cx="66.1753" cy="11.6906" r="2.95996" fill="white"/>
<circle cx="73.9452" cy="11.6906" r="2.95996" fill="white"/>
<circle cx="81.7151" cy="11.6906" r="2.95996" fill="white"/>
<circle cx="89.485" cy="11.6906" r="2.95996" fill="white"/>
<circle cx="97.2549" cy="11.6906" r="2.95996" fill="white"/>
<circle cx="105.025" cy="11.6906" r="2.95996" fill="white"/>
<circle cx="58.4054" cy="19.4606" r="2.95996" fill="white"/>
<circle cx="66.1753" cy="19.4606" r="2.95996" fill="white"/>
<circle cx="73.9452" cy="19.4606" r="2.95996" fill="white"/>
<circle cx="81.7151" cy="19.4606" r="2.95996" fill="white"/>
<circle cx="89.485" cy="19.4606" r="2.95996" fill="white"/>
<circle cx="97.2549" cy="19.4606" r="2.95996" fill="white"/>
<circle cx="105.025" cy="19.4606" r="2.95996" fill="white"/>
<circle cx="58.4054" cy="27.2304" r="2.95996" fill="white"/>
<circle cx="66.1753" cy="27.2304" r="2.95996" fill="white"/>
<circle cx="73.9452" cy="27.2304" r="2.95996" fill="white"/>
<circle cx="81.7151" cy="27.2304" r="2.95996" fill="white"/>
<circle cx="89.485" cy="27.2304" r="2.95996" fill="white"/>
<circle cx="97.2549" cy="27.2304" r="2.95996" fill="white"/>
<circle cx="105.025" cy="27.2304" r="2.95996" fill="white"/>
<circle cx="58.4054" cy="35.0003" r="2.95996" fill="white"/>
<circle cx="66.1753" cy="35.0003" r="2.95996" fill="white"/>
<circle cx="73.9452" cy="35.0003" r="2.95996" fill="white"/>
<circle cx="81.7151" cy="35.0003" r="2.95996" fill="white"/>
<circle cx="89.485" cy="35.0003" r="2.95996" fill="white"/>
<circle cx="97.2549" cy="35.0003" r="2.95996" fill="white"/>
<circle cx="105.025" cy="35.0003" r="2.95996" fill="white"/>
<circle cx="58.4054" cy="42.7702" r="2.95996" fill="white"/>
<circle cx="66.1753" cy="42.7702" r="2.95996" fill="white"/>
<circle cx="73.9452" cy="42.7702" r="2.95996" fill="white"/>
<circle cx="81.7151" cy="42.7702" r="2.95996" fill="white"/>
<circle cx="89.485" cy="42.7702" r="2.95996" fill="white"/>
<circle cx="97.2549" cy="42.7702" r="2.95996" fill="white"/>
<circle cx="105.025" cy="42.7702" r="2.95996" fill="white"/>
<circle cx="58.4054" cy="50.5401" r="2.95996" fill="white"/>
<circle cx="66.1753" cy="50.5401" r="2.95996" fill="white"/>
<circle cx="73.9452" cy="50.5401" r="2.95996" fill="white"/>
<circle cx="81.7151" cy="50.5401" r="2.95996" fill="white"/>
<circle cx="89.485" cy="50.5401" r="2.95996" fill="white"/>
<circle cx="97.2549" cy="50.5401" r="2.95996" fill="white"/>
<circle cx="105.025" cy="50.5401" r="2.95996" fill="white"/>
<circle cx="58.4054" cy="58.4054" r="2.95996" fill="white"/>
<circle cx="66.1753" cy="58.4054" r="2.95996" fill="white"/>
<circle cx="73.9452" cy="58.4054" r="2.95996" fill="white"/>
<circle cx="81.7151" cy="58.4054" r="2.95996" fill="white"/>
<circle cx="89.485" cy="58.4054" r="2.95996" fill="white"/>
<circle cx="97.2549" cy="58.4054" r="2.95996" fill="white"/>
<circle cx="105.025" cy="58.4054" r="2.95996" fill="white"/>
<circle cx="58.4054" cy="66.1753" r="2.95996" fill="white"/>
<circle cx="66.1753" cy="66.1753" r="2.95996" fill="white"/>
<circle cx="73.9452" cy="66.1753" r="2.95996" fill="white"/>
<circle cx="81.7151" cy="66.1753" r="2.95996" fill="white"/>
<circle cx="89.485" cy="66.1753" r="2.95996" fill="white"/>
<circle cx="97.2549" cy="66.1753" r="2.95996" fill="white"/>
<circle cx="105.025" cy="66.1753" r="2.95996" fill="white"/>
<circle cx="58.4054" cy="73.9452" r="2.95996" fill="white"/>
<circle cx="66.1753" cy="73.9452" r="2.95996" fill="white"/>
<circle cx="73.9452" cy="73.9452" r="2.95996" fill="white"/>
<circle cx="81.7151" cy="73.9452" r="2.95996" fill="white"/>
<circle cx="89.485" cy="73.9452" r="2.95996" fill="white"/>
<circle cx="97.2549" cy="73.9452" r="2.95996" fill="white"/>
<circle cx="105.025" cy="73.9452" r="2.95996" fill="white"/>
<circle cx="58.4054" cy="81.7151" r="2.95996" fill="white"/>
<circle cx="66.1753" cy="81.7151" r="2.95996" fill="white"/>
<circle cx="73.9452" cy="81.7151" r="2.95996" fill="white"/>
<circle cx="81.7151" cy="81.7151" r="2.95996" fill="white"/>
<circle cx="89.485" cy="81.7151" r="2.95996" fill="white"/>
<circle cx="97.2549" cy="81.7151" r="2.95996" fill="white"/>
<circle cx="105.025" cy="81.7151" r="2.95996" fill="white"/>
<circle cx="58.4054" cy="89.4849" r="2.95996" fill="white"/>
<circle cx="66.1753" cy="89.4849" r="2.95996" fill="white"/>
<circle cx="73.9452" cy="89.4849" r="2.95996" fill="white"/>
<circle cx="81.7151" cy="89.4849" r="2.95996" fill="white"/>
<circle cx="89.485" cy="89.4849" r="2.95996" fill="white"/>
<circle cx="97.2549" cy="89.4849" r="2.95996" fill="white"/>
<circle cx="105.025" cy="89.4849" r="2.95996" fill="white"/>
<circle cx="58.4054" cy="97.2548" r="2.95996" fill="white"/>
<circle cx="66.1753" cy="97.2548" r="2.95996" fill="white"/>
<circle cx="73.9452" cy="97.2548" r="2.95996" fill="white"/>
<circle cx="81.7151" cy="97.2548" r="2.95996" fill="white"/>
<circle cx="89.485" cy="97.2548" r="2.95996" fill="white"/>
<circle cx="97.2549" cy="97.2548" r="2.95996" fill="white"/>
<circle cx="105.025" cy="97.2548" r="2.95996" fill="white"/>
<circle cx="58.4054" cy="105.025" r="2.95996" fill="white"/>
<circle cx="66.1753" cy="105.025" r="2.95996" fill="white"/>
<circle cx="73.9452" cy="105.025" r="2.95996" fill="white"/>
<circle cx="81.7151" cy="105.025" r="2.95996" fill="white"/>
<circle cx="89.485" cy="105.025" r="2.95996" fill="white"/>
<circle cx="97.2549" cy="105.025" r="2.95996" fill="white"/>
<circle cx="105.025" cy="105.025" r="2.95996" fill="white"/>
</g>
</svg>
