<svg width="191" height="191" viewBox="0 0 191 191" fill="none" xmlns="http://www.w3.org/2000/svg">
<circle cx="9.5106" cy="95.2807" r="6.11336" transform="rotate(-45 9.5106 95.2807)" stroke="#DB77AF"/>
<circle cx="21.7861" cy="83.0052" r="6.11336" transform="rotate(-45 21.7861 83.0052)" stroke="#DB77AF"/>
<circle cx="34.0614" cy="70.7299" r="6.11336" transform="rotate(-45 34.0614 70.7299)" stroke="#DB77AF"/>
<circle cx="46.3369" cy="58.4544" r="6.11336" transform="rotate(-45 46.3369 58.4544)" stroke="#DB77AF"/>
<circle cx="58.6123" cy="46.179" r="6.11336" transform="rotate(-45 58.6123 46.179)" stroke="#DB77AF"/>
<circle cx="70.8878" cy="33.9035" r="6.11336" transform="rotate(-45 70.8878 33.9035)" stroke="#DB77AF"/>
<circle cx="83.1632" cy="21.6281" r="6.11336" transform="rotate(-45 83.1632 21.6281)" stroke="#DB77AF"/>
<circle cx="95.4386" cy="9.35272" r="6.11336" transform="rotate(-45 95.4386 9.35272)" stroke="#DB77AF"/>
<circle cx="21.786" cy="107.556" r="6.11336" transform="rotate(-45 21.786 107.556)" stroke="#DB77AF"/>
<circle cx="34.0615" cy="95.2807" r="6.11336" transform="rotate(-45 34.0615 95.2807)" stroke="#DB77AF"/>
<circle cx="46.3369" cy="83.0053" r="6.11336" transform="rotate(-45 46.3369 83.0053)" stroke="#DB77AF"/>
<circle cx="58.6123" cy="70.7299" r="6.11336" transform="rotate(-45 58.6123 70.7299)" stroke="#DB77AF"/>
<circle cx="70.8877" cy="58.4544" r="6.11336" transform="rotate(-45 70.8877 58.4544)" stroke="#DB77AF"/>
<circle cx="83.1632" cy="46.179" r="6.11336" transform="rotate(-45 83.1632 46.179)" stroke="#DB77AF"/>
<circle cx="95.4386" cy="33.9036" r="6.11336" transform="rotate(-45 95.4386 33.9036)" stroke="#DB77AF"/>
<circle cx="107.714" cy="21.6281" r="6.11336" transform="rotate(-45 107.714 21.6281)" stroke="#DB77AF"/>
<circle cx="34.0614" cy="119.832" r="6.11336" transform="rotate(-45 34.0614 119.832)" stroke="#DB77AF"/>
<circle cx="46.3369" cy="107.556" r="6.11336" transform="rotate(-45 46.3369 107.556)" stroke="#DB77AF"/>
<circle cx="58.6123" cy="95.2807" r="6.11336" transform="rotate(-45 58.6123 95.2807)" stroke="#DB77AF"/>
<circle cx="70.8877" cy="83.0053" r="6.11336" transform="rotate(-45 70.8877 83.0053)" stroke="#DB77AF"/>
<circle cx="83.1632" cy="70.7299" r="6.11336" transform="rotate(-45 83.1632 70.7299)" stroke="#DB77AF"/>
<circle cx="95.4386" cy="58.4544" r="6.11336" transform="rotate(-45 95.4386 58.4544)" stroke="#DB77AF"/>
<circle cx="107.714" cy="46.179" r="6.11336" transform="rotate(-45 107.714 46.179)" stroke="#DB77AF"/>
<circle cx="119.989" cy="33.9036" r="6.11336" transform="rotate(-45 119.989 33.9036)" stroke="#DB77AF"/>
<circle cx="46.3369" cy="132.107" r="6.11336" transform="rotate(-45 46.3369 132.107)" stroke="#DB77AF"/>
<circle cx="58.6124" cy="119.832" r="6.11336" transform="rotate(-45 58.6124 119.832)" stroke="#DB77AF"/>
<circle cx="70.8878" cy="107.556" r="6.11336" transform="rotate(-45 70.8878 107.556)" stroke="#DB77AF"/>
<circle cx="83.1632" cy="95.2807" r="6.11336" transform="rotate(-45 83.1632 95.2807)" stroke="#DB77AF"/>
<circle cx="95.4386" cy="83.0053" r="6.11336" transform="rotate(-45 95.4386 83.0053)" stroke="#DB77AF"/>
<circle cx="107.714" cy="70.7299" r="6.11336" transform="rotate(-45 107.714 70.7299)" stroke="#DB77AF"/>
<circle cx="119.989" cy="58.4545" r="6.11336" transform="rotate(-45 119.989 58.4545)" stroke="#DB77AF"/>
<circle cx="132.265" cy="46.179" r="6.11336" transform="rotate(-45 132.265 46.179)" stroke="#DB77AF"/>
<circle cx="58.6123" cy="144.382" r="6.11336" transform="rotate(-45 58.6123 144.382)" stroke="#DB77AF"/>
<circle cx="70.8878" cy="132.107" r="6.11336" transform="rotate(-45 70.8878 132.107)" stroke="#DB77AF"/>
<circle cx="83.1632" cy="119.832" r="6.11336" transform="rotate(-45 83.1632 119.832)" stroke="#DB77AF"/>
<circle cx="95.4386" cy="107.556" r="6.11336" transform="rotate(-45 95.4386 107.556)" stroke="#DB77AF"/>
<circle cx="107.714" cy="95.2807" r="6.11336" transform="rotate(-45 107.714 95.2807)" stroke="#DB77AF"/>
<circle cx="119.989" cy="83.0053" r="6.11336" transform="rotate(-45 119.989 83.0053)" stroke="#DB77AF"/>
<circle cx="132.265" cy="70.7299" r="6.11336" transform="rotate(-45 132.265 70.7299)" stroke="#DB77AF"/>
<circle cx="144.54" cy="58.4544" r="6.11336" transform="rotate(-45 144.54 58.4544)" stroke="#DB77AF"/>
<circle cx="70.8878" cy="156.658" r="6.11336" transform="rotate(-45 70.8878 156.658)" stroke="#DB77AF"/>
<circle cx="83.1632" cy="144.382" r="6.11336" transform="rotate(-45 83.1632 144.382)" stroke="#DB77AF"/>
<circle cx="95.4386" cy="132.107" r="6.11336" transform="rotate(-45 95.4386 132.107)" stroke="#DB77AF"/>
<circle cx="107.714" cy="119.832" r="6.11336" transform="rotate(-45 107.714 119.832)" stroke="#DB77AF"/>
<circle cx="119.989" cy="107.556" r="6.11336" transform="rotate(-45 119.989 107.556)" stroke="#DB77AF"/>
<circle cx="132.265" cy="95.2807" r="6.11336" transform="rotate(-45 132.265 95.2807)" stroke="#DB77AF"/>
<circle cx="144.54" cy="83.0053" r="6.11336" transform="rotate(-45 144.54 83.0053)" stroke="#DB77AF"/>
<circle cx="156.816" cy="70.7299" r="6.11336" transform="rotate(-45 156.816 70.7299)" stroke="#DB77AF"/>
<circle cx="83.1632" cy="168.933" r="6.11336" transform="rotate(-45 83.1632 168.933)" stroke="#DB77AF"/>
<circle cx="95.4386" cy="156.658" r="6.11336" transform="rotate(-45 95.4386 156.658)" stroke="#DB77AF"/>
<circle cx="107.714" cy="144.382" r="6.11336" transform="rotate(-45 107.714 144.382)" stroke="#DB77AF"/>
<circle cx="119.989" cy="132.107" r="6.11336" transform="rotate(-45 119.989 132.107)" stroke="#DB77AF"/>
<circle cx="132.265" cy="119.832" r="6.11336" transform="rotate(-45 132.265 119.832)" stroke="#DB77AF"/>
<circle cx="144.54" cy="107.556" r="6.11336" transform="rotate(-45 144.54 107.556)" stroke="#DB77AF"/>
<circle cx="156.816" cy="95.2807" r="6.11336" transform="rotate(-45 156.816 95.2807)" stroke="#DB77AF"/>
<circle cx="169.091" cy="83.0053" r="6.11336" transform="rotate(-45 169.091 83.0053)" stroke="#DB77AF"/>
<circle cx="95.4386" cy="181.209" r="6.11336" transform="rotate(-45 95.4386 181.209)" stroke="#DB77AF"/>
<circle cx="107.714" cy="168.933" r="6.11336" transform="rotate(-45 107.714 168.933)" stroke="#DB77AF"/>
<circle cx="119.989" cy="156.658" r="6.11336" transform="rotate(-45 119.989 156.658)" stroke="#DB77AF"/>
<circle cx="132.265" cy="144.382" r="6.11336" transform="rotate(-45 132.265 144.382)" stroke="#DB77AF"/>
<circle cx="144.54" cy="132.107" r="6.11336" transform="rotate(-45 144.54 132.107)" stroke="#DB77AF"/>
<circle cx="156.816" cy="119.832" r="6.11336" transform="rotate(-45 156.816 119.832)" stroke="#DB77AF"/>
<circle cx="169.091" cy="107.556" r="6.11336" transform="rotate(-45 169.091 107.556)" stroke="#DB77AF"/>
<circle cx="181.367" cy="95.2807" r="6.11336" transform="rotate(-45 181.367 95.2807)" stroke="#DB77AF"/>
</svg>
