<svg width="277" height="271" viewBox="0 0 277 271" fill="none" xmlns="http://www.w3.org/2000/svg">
<mask id="mask0_1217_972" style="mask-type:alpha" maskUnits="userSpaceOnUse" x="19" y="0" width="240" height="203">
<path d="M138.76 0.101196L258.151 202.677H19.3687L138.76 0.101196Z" fill="#D9D9D9"/>
</mask>
<g mask="url(#mask0_1217_972)">
<path d="M20.8497 10.0445L38.3497 -7L55.3497 10.0445" stroke="#FA6F6F"/>
<path d="M54.6293 10.0445L72.1293 -7L89.1293 10.0445" stroke="#FA6F6F"/>
<path d="M88.4089 10.0445L105.909 -7L122.909 10.0445" stroke="#FA6F6F"/>
<path d="M122.189 10.0445L139.689 -7L156.689 10.0445" stroke="#FA6F6F"/>
<path d="M155.968 10.0445L173.468 -7L190.468 10.0445" stroke="#FA6F6F"/>
<path d="M189.748 10.0445L207.248 -7L224.248 10.0445" stroke="#FA6F6F"/>
<path d="M223.527 10.0445L241.027 -7L258.027 10.0445" stroke="#FA6F6F"/>
<path d="M20.8497 37.8834L38.3497 20.8389L55.3497 37.8834" stroke="#FA6F6F"/>
<path d="M54.6293 37.8834L72.1293 20.8389L89.1293 37.8834" stroke="#FA6F6F"/>
<path d="M88.4089 37.8834L105.909 20.8389L122.909 37.8834" stroke="#FA6F6F"/>
<path d="M122.189 37.8834L139.689 20.8389L156.689 37.8834" stroke="#FA6F6F"/>
<path d="M155.968 37.8834L173.468 20.8389L190.468 37.8834" stroke="#FA6F6F"/>
<path d="M189.748 37.8834L207.248 20.8389L224.248 37.8834" stroke="#FA6F6F"/>
<path d="M223.527 37.8834L241.027 20.8389L258.027 37.8834" stroke="#FA6F6F"/>
<path d="M20.8497 65.7223L38.3497 48.6779L55.3497 65.7223" stroke="#FA6F6F"/>
<path d="M54.6293 65.7223L72.1293 48.6779L89.1293 65.7223" stroke="#FA6F6F"/>
<path d="M88.4089 65.7223L105.909 48.6779L122.909 65.7223" stroke="#FA6F6F"/>
<path d="M122.189 65.7223L139.689 48.6779L156.689 65.7223" stroke="#FA6F6F"/>
<path d="M155.968 65.7223L173.468 48.6779L190.468 65.7223" stroke="#FA6F6F"/>
<path d="M189.748 65.7223L207.248 48.6779L224.248 65.7223" stroke="#FA6F6F"/>
<path d="M223.527 65.7223L241.027 48.6779L258.027 65.7223" stroke="#FA6F6F"/>
<path d="M20.8497 93.5613L38.3497 76.5168L55.3497 93.5613" stroke="#FA6F6F"/>
<path d="M54.6293 93.5613L72.1293 76.5168L89.1293 93.5613" stroke="#FA6F6F"/>
<path d="M88.4089 93.5613L105.909 76.5168L122.909 93.5613" stroke="#FA6F6F"/>
<path d="M122.189 93.5613L139.689 76.5168L156.689 93.5613" stroke="#FA6F6F"/>
<path d="M155.968 93.5613L173.468 76.5168L190.468 93.5613" stroke="#FA6F6F"/>
<path d="M189.748 93.5613L207.248 76.5168L224.248 93.5613" stroke="#FA6F6F"/>
<path d="M223.527 93.5613L241.027 76.5168L258.027 93.5613" stroke="#FA6F6F"/>
<path d="M20.8497 121.4L38.3497 104.356L55.3497 121.4" stroke="#FA6F6F"/>
<path d="M54.6293 121.4L72.1293 104.356L89.1293 121.4" stroke="#FA6F6F"/>
<path d="M88.4089 121.4L105.909 104.356L122.909 121.4" stroke="#FA6F6F"/>
<path d="M122.189 121.4L139.689 104.356L156.689 121.4" stroke="#FA6F6F"/>
<path d="M155.968 121.4L173.468 104.356L190.468 121.4" stroke="#FA6F6F"/>
<path d="M189.748 121.4L207.248 104.356L224.248 121.4" stroke="#FA6F6F"/>
<path d="M223.527 121.4L241.027 104.356L258.027 121.4" stroke="#FA6F6F"/>
<path d="M20.8497 149.239L38.3497 132.195L55.3497 149.239" stroke="#FA6F6F"/>
<path d="M54.6293 149.239L72.1293 132.195L89.1293 149.239" stroke="#FA6F6F"/>
<path d="M88.4089 149.239L105.909 132.195L122.909 149.239" stroke="#FA6F6F"/>
<path d="M122.189 149.239L139.689 132.195L156.689 149.239" stroke="#FA6F6F"/>
<path d="M155.968 149.239L173.468 132.195L190.468 149.239" stroke="#FA6F6F"/>
<path d="M189.748 149.239L207.248 132.195L224.248 149.239" stroke="#FA6F6F"/>
<path d="M223.527 149.239L241.027 132.195L258.027 149.239" stroke="#FA6F6F"/>
<path d="M20.8497 177.078L38.3497 160.034L55.3497 177.078" stroke="#FA6F6F"/>
<path d="M54.6293 177.078L72.1293 160.034L89.1293 177.078" stroke="#FA6F6F"/>
<path d="M88.4089 177.078L105.909 160.034L122.909 177.078" stroke="#FA6F6F"/>
<path d="M122.189 177.078L139.689 160.034L156.689 177.078" stroke="#FA6F6F"/>
<path d="M155.968 177.078L173.468 160.034L190.468 177.078" stroke="#FA6F6F"/>
<path d="M189.748 177.078L207.248 160.034L224.248 177.078" stroke="#FA6F6F"/>
<path d="M223.527 177.078L241.027 160.034L258.027 177.078" stroke="#FA6F6F"/>
<path d="M20.8497 204.917L38.3497 187.872L55.3497 204.917" stroke="#FA6F6F"/>
<path d="M54.6293 204.917L72.1293 187.872L89.1293 204.917" stroke="#FA6F6F"/>
<path d="M88.4089 204.917L105.909 187.872L122.909 204.917" stroke="#FA6F6F"/>
<path d="M122.189 204.917L139.689 187.872L156.689 204.917" stroke="#FA6F6F"/>
<path d="M155.968 204.917L173.468 187.872L190.468 204.917" stroke="#FA6F6F"/>
<path d="M189.748 204.917L207.248 187.872L224.248 204.917" stroke="#FA6F6F"/>
<path d="M223.527 204.917L241.027 187.872L258.027 204.917" stroke="#FA6F6F"/>
</g>
</svg>
