<svg width="167" height="167" viewBox="0 0 167 167" fill="none" xmlns="http://www.w3.org/2000/svg">
<circle cx="8.19029" cy="83.4386" r="5.29141" transform="rotate(-45 8.19029 83.4386)" stroke="#FFE7D3"/>
<circle cx="18.94" cy="72.6888" r="5.29141" transform="rotate(-45 18.94 72.6888)" stroke="#FFE7D3"/>
<circle cx="29.6898" cy="61.9391" r="5.29141" transform="rotate(-45 29.6898 61.9391)" stroke="#FFE7D3"/>
<circle cx="40.4396" cy="51.1893" r="5.29141" transform="rotate(-45 40.4396 51.1893)" stroke="#FFE7D3"/>
<circle cx="51.1893" cy="40.4396" r="5.29141" transform="rotate(-45 51.1893 40.4396)" stroke="#FFE7D3"/>
<circle cx="61.9391" cy="29.6898" r="5.29141" transform="rotate(-45 61.9391 29.6898)" stroke="#FFE7D3"/>
<circle cx="72.6888" cy="18.9401" r="5.29141" transform="rotate(-45 72.6888 18.9401)" stroke="#FFE7D3"/>
<circle cx="83.4386" cy="8.19031" r="5.29141" transform="rotate(-45 83.4386 8.19031)" stroke="#FFE7D3"/>
<circle cx="18.94" cy="94.1884" r="5.29141" transform="rotate(-45 18.94 94.1884)" stroke="#FFE7D3"/>
<circle cx="29.6898" cy="83.4386" r="5.29141" transform="rotate(-45 29.6898 83.4386)" stroke="#FFE7D3"/>
<circle cx="40.4396" cy="72.6888" r="5.29141" transform="rotate(-45 40.4396 72.6888)" stroke="#FFE7D3"/>
<circle cx="51.1893" cy="61.9391" r="5.29141" transform="rotate(-45 51.1893 61.9391)" stroke="#FFE7D3"/>
<circle cx="61.9391" cy="51.1893" r="5.29141" transform="rotate(-45 61.9391 51.1893)" stroke="#FFE7D3"/>
<circle cx="72.6888" cy="40.4396" r="5.29141" transform="rotate(-45 72.6888 40.4396)" stroke="#FFE7D3"/>
<circle cx="83.4386" cy="29.6898" r="5.29141" transform="rotate(-45 83.4386 29.6898)" stroke="#FFE7D3"/>
<circle cx="94.1883" cy="18.9401" r="5.29141" transform="rotate(-45 94.1883 18.9401)" stroke="#FFE7D3"/>
<circle cx="29.6898" cy="104.938" r="5.29141" transform="rotate(-45 29.6898 104.938)" stroke="#FFE7D3"/>
<circle cx="40.4396" cy="94.1884" r="5.29141" transform="rotate(-45 40.4396 94.1884)" stroke="#FFE7D3"/>
<circle cx="51.1893" cy="83.4386" r="5.29141" transform="rotate(-45 51.1893 83.4386)" stroke="#FFE7D3"/>
<circle cx="61.9391" cy="72.6888" r="5.29141" transform="rotate(-45 61.9391 72.6888)" stroke="#FFE7D3"/>
<circle cx="72.6888" cy="61.9391" r="5.29141" transform="rotate(-45 72.6888 61.9391)" stroke="#FFE7D3"/>
<circle cx="83.4386" cy="51.1893" r="5.29141" transform="rotate(-45 83.4386 51.1893)" stroke="#FFE7D3"/>
<circle cx="94.1883" cy="40.4396" r="5.29141" transform="rotate(-45 94.1883 40.4396)" stroke="#FFE7D3"/>
<circle cx="104.938" cy="29.6898" r="5.29141" transform="rotate(-45 104.938 29.6898)" stroke="#FFE7D3"/>
<circle cx="40.4396" cy="115.688" r="5.29141" transform="rotate(-45 40.4396 115.688)" stroke="#FFE7D3"/>
<circle cx="51.1893" cy="104.938" r="5.29141" transform="rotate(-45 51.1893 104.938)" stroke="#FFE7D3"/>
<circle cx="61.9391" cy="94.1884" r="5.29141" transform="rotate(-45 61.9391 94.1884)" stroke="#FFE7D3"/>
<circle cx="72.6888" cy="83.4386" r="5.29141" transform="rotate(-45 72.6888 83.4386)" stroke="#FFE7D3"/>
<circle cx="83.4386" cy="72.6888" r="5.29141" transform="rotate(-45 83.4386 72.6888)" stroke="#FFE7D3"/>
<circle cx="94.1884" cy="61.9391" r="5.29141" transform="rotate(-45 94.1884 61.9391)" stroke="#FFE7D3"/>
<circle cx="104.938" cy="51.1893" r="5.29141" transform="rotate(-45 104.938 51.1893)" stroke="#FFE7D3"/>
<circle cx="115.688" cy="40.4396" r="5.29141" transform="rotate(-45 115.688 40.4396)" stroke="#FFE7D3"/>
<circle cx="51.1893" cy="126.438" r="5.29141" transform="rotate(-45 51.1893 126.438)" stroke="#FFE7D3"/>
<circle cx="61.9391" cy="115.688" r="5.29141" transform="rotate(-45 61.9391 115.688)" stroke="#FFE7D3"/>
<circle cx="72.6888" cy="104.938" r="5.29141" transform="rotate(-45 72.6888 104.938)" stroke="#FFE7D3"/>
<circle cx="83.4386" cy="94.1884" r="5.29141" transform="rotate(-45 83.4386 94.1884)" stroke="#FFE7D3"/>
<circle cx="94.1883" cy="83.4386" r="5.29141" transform="rotate(-45 94.1883 83.4386)" stroke="#FFE7D3"/>
<circle cx="104.938" cy="72.6888" r="5.29141" transform="rotate(-45 104.938 72.6888)" stroke="#FFE7D3"/>
<circle cx="115.688" cy="61.9391" r="5.29141" transform="rotate(-45 115.688 61.9391)" stroke="#FFE7D3"/>
<circle cx="126.438" cy="51.1893" r="5.29141" transform="rotate(-45 126.438 51.1893)" stroke="#FFE7D3"/>
<circle cx="61.9391" cy="137.187" r="5.29141" transform="rotate(-45 61.9391 137.187)" stroke="#FFE7D3"/>
<circle cx="72.6888" cy="126.438" r="5.29141" transform="rotate(-45 72.6888 126.438)" stroke="#FFE7D3"/>
<circle cx="83.4386" cy="115.688" r="5.29141" transform="rotate(-45 83.4386 115.688)" stroke="#FFE7D3"/>
<circle cx="94.1883" cy="104.938" r="5.29141" transform="rotate(-45 94.1883 104.938)" stroke="#FFE7D3"/>
<circle cx="104.938" cy="94.1884" r="5.29141" transform="rotate(-45 104.938 94.1884)" stroke="#FFE7D3"/>
<circle cx="115.688" cy="83.4386" r="5.29141" transform="rotate(-45 115.688 83.4386)" stroke="#FFE7D3"/>
<circle cx="126.438" cy="72.6888" r="5.29141" transform="rotate(-45 126.438 72.6888)" stroke="#FFE7D3"/>
<circle cx="137.187" cy="61.9391" r="5.29141" transform="rotate(-45 137.187 61.9391)" stroke="#FFE7D3"/>
<circle cx="72.6888" cy="147.937" r="5.29141" transform="rotate(-45 72.6888 147.937)" stroke="#FFE7D3"/>
<circle cx="83.4386" cy="137.187" r="5.29141" transform="rotate(-45 83.4386 137.187)" stroke="#FFE7D3"/>
<circle cx="94.1883" cy="126.438" r="5.29141" transform="rotate(-45 94.1883 126.438)" stroke="#FFE7D3"/>
<circle cx="104.938" cy="115.688" r="5.29141" transform="rotate(-45 104.938 115.688)" stroke="#FFE7D3"/>
<circle cx="115.688" cy="104.938" r="5.29141" transform="rotate(-45 115.688 104.938)" stroke="#FFE7D3"/>
<circle cx="126.438" cy="94.1884" r="5.29141" transform="rotate(-45 126.438 94.1884)" stroke="#FFE7D3"/>
<circle cx="137.187" cy="83.4386" r="5.29141" transform="rotate(-45 137.187 83.4386)" stroke="#FFE7D3"/>
<circle cx="147.937" cy="72.6888" r="5.29141" transform="rotate(-45 147.937 72.6888)" stroke="#FFE7D3"/>
<circle cx="83.4386" cy="158.687" r="5.29141" transform="rotate(-45 83.4386 158.687)" stroke="#FFE7D3"/>
<circle cx="94.1884" cy="147.937" r="5.29141" transform="rotate(-45 94.1884 147.937)" stroke="#FFE7D3"/>
<circle cx="104.938" cy="137.187" r="5.29141" transform="rotate(-45 104.938 137.187)" stroke="#FFE7D3"/>
<circle cx="115.688" cy="126.438" r="5.29141" transform="rotate(-45 115.688 126.438)" stroke="#FFE7D3"/>
<circle cx="126.438" cy="115.688" r="5.29141" transform="rotate(-45 126.438 115.688)" stroke="#FFE7D3"/>
<circle cx="137.187" cy="104.938" r="5.29141" transform="rotate(-45 137.187 104.938)" stroke="#FFE7D3"/>
<circle cx="147.937" cy="94.1884" r="5.29141" transform="rotate(-45 147.937 94.1884)" stroke="#FFE7D3"/>
<circle cx="158.687" cy="83.4386" r="5.29141" transform="rotate(-45 158.687 83.4386)" stroke="#FFE7D3"/>
</svg>
