<?xml version="1.0" encoding="utf-8"?>
<!-- Generator: Adobe Illustrator 22.0.1, SVG Export Plug-In . SVG Version: 6.00 Build 0)  -->
<svg version="1.1" id="Ebene_1" xmlns="http://www.w3.org/2000/svg" xmlns:xlink="http://www.w3.org/1999/xlink" x="0px" y="0px"
	 viewBox="0 0 500 500" style="enable-background:new 0 0 500 500;" xml:space="preserve">
<style type="text/css">
	.st0{fill:#EDF4FA;}
	.st1{fill:#8775C8;}
	.st2{fill:#745FB0;}
	.st3{fill:#E67A5E;}
	.st4{fill:#D39184;}
	.st5{fill:#F0B095;}
	.st6{fill:none;stroke:#000000;stroke-width:2.5037;stroke-miterlimit:10;}
	.st7{fill:#FFFFFF;}
</style>
<g>
	<rect x="-0.5" y="-1.8" class="st0" width="501.7" height="465.9"/>
	<path class="st1" d="M0.3,353c0,0,53.7-42.4,138.2-59.2s193.9-4.7,213.2,0.7c19.3,5.5,71.7,23.4,104.4,39.2
		c26.3,12.8,44.9,31.8,44.9,31.8l-1.3,134l-500,1.3L0.3,353z"/>
	<path class="st2" d="M169.2,358c0,0,7.9,27.1,11.3,31.7c3.3,4.6,17.1,28.8,42.6,38c25.5,9.2,43.8,4.2,52.6,1.3s21.7-10.8,31.7-25
		c10-14.2,20.9-30.5,24.6-46.7c3.8-16.3,4.2-59.3,4.2-59.3l-99.3-2.9c0,0-41.3,14.2-41.7,15.9C194.7,312.5,169.2,358,169.2,358z"/>
	<path d="M141.2,210.7c0,0,0-19.2-1.3-40.5s-2.5-27.5-2.5-27.5l2.5-21.3c0,0,32.5-42.6,40.1-47.6c7.5-5,33.8-15,57.6-20
		s33.8-3.8,33.8-2.5c0,1.3,2.5,5,11.3,8.8c8.8,3.8,17.5,8.8,18.8,11.3s6.3,2.5,6.3,8.8s-1.3,11.3-1.3,11.3s18.8,3.8,26.3,8.8
		c7.5,5,7.5,1.7,12.5,15.4c5,13.8,3.8,22.1,3.8,22.1s1.3,10.4,0,21.7s-0.4,27.5-0.4,43.8s-7.1,10.8-7.1,10.8l-72.6,28.8L141.2,210.7
		z"/>
	<path class="st3" d="M143.3,208.6c0,0-2.1-9.4-9-9.6c-5.2-0.2-6.9,1.6-7.1,3.8c-0.2,2.1,2.1,7.3,3.1,13.8
		c0.6,3.9-0.8,10.8,5.4,24.6c6.3,13.8,8.8,7.5,8.8,7.5L143.3,208.6z"/>
	<path class="st3" d="M343.2,213.7c0,0,6.9-6,12.1-8c5.2-2,8.2,0.9,8.8,1.7c1.1,1.6-1.4,9.6-2.6,12.1c-3.6,7.1-1.5,2.4-1.5,2.4
		s-2.6,5.9-3.8,12.2c-1.7,8.7,1.2,24-3.6,22.3s-20.7,5.4-20.7,5.4L343.2,213.7z"/>
	<path class="st4" d="M342.4,308.4c0,0-16.3,65.1-31.3,83.9c-15,18.8-26.3,35.1-58.8,36.3c-32.5,1.3-62.6-22.5-77.6-61.3
		c-15-38.8-13.8-53.8-13.8-53.8s65.1-16.3,85.1-13.8C266,302.1,342.4,308.4,342.4,308.4z"/>
	<path class="st5" d="M157.3,134.5c1.3-2.9,3.4-5.5,6-7.3c6.9-4.9,22.4-15.6,32.8-21.3c13.8-7.5,21.3-7.5,21.3-7.5l20,11.3
		c0,0,6.3,3.8,17.5-1.3c11.3-5,33.8-16.3,33.8-16.3s26.3,17.5,35.1,33.8s17.5,37.6,21.3,61.3s10,68.9,10,68.9l-5,30
		c0,0-19.6,68-28.4,80.5c-8.8,12.5-23,20.9-23,20.9s-13.8,22.5-50.9,22.1c-35.1-0.4-44.2-15.9-48-19.6c-3.8-3.8-3.8-3.8-3.8-3.8
		l-5-2.5c0,0-8.3-5.8-16.3-16.3c-13.7-18-18.8-28.8-27.5-60.1c-8.8-31.3-8.8-31.3-8.8-46.3c0-15,0-36.3,6.3-68.9
		C150.3,163.7,151.9,146.7,157.3,134.5z"/>
	<path d="M150.8,214.5l-3.8-7.5c0,0,8.8-11.3,13.8-13.8c5-2.5,5-2.5,5-2.5l1.3-1.3l3.8,1.3v2.5l5-1.3c0,0,5,2.5,8.8,3.8
		c3.8,1.3,6.3,3.8,6.3,3.8s7.5,5,11.3,6.3s5,1.3,5,1.3v-1.3c0,0-1.3,0,10,5s15,10,15,10l-1.3,5c0,0-2.5,1.3-8.8-1.3
		c-6.3-2.5-16.3-3.8-21.3-5c-5-1.3-17.5-5-23.8-6.3c-6.3-1.3-15-3.8-17.5-2.5C157.1,212,150.8,214.5,150.8,214.5z"/>
	<path d="M258.5,225.7l-1.3-5.2c0,0,5-5.2,7.5-6.5s5,0,6.3-1.3c1.3-1.3,3.8-2.6,3.8-2.6s-1.3,3.9,2.5,1.3c3.8-2.6,7.5-6.5,8.8-5.2
		s-10,5.2,2.5,0c12.5-5.2,21.3-9.1,25-10.4c3.8-1.3,11.3-3.9,11.3-3.9l6.3,3.9c0,0,2.5-1.3,3.8,1.3c1.3,2.6-1.3-1.3,1.3,2.6
		c2.5,3.9,3.8,10.4,5,11.7c1.3,1.3-2.5,6.5-2.5,6.5s0-5.2-3.8-6.5c-3.8-1.3-1.3,0-12.5,2.6c-11.3,2.6-35.1,6.5-35.1,6.5s2.5,0-5,1.3
		c-7.5,1.3-13.8,1.3-15,2.6S258.5,225.7,258.5,225.7z"/>
	
		<ellipse transform="matrix(6.087120e-02 -0.9981 0.9981 6.087120e-02 -54.3925 414.5164)" class="st3" cx="193.1" cy="236.2" rx="10.8" ry="28.6"/>
	
		<ellipse transform="matrix(7.142495e-02 -0.9974 0.9974 7.142495e-02 -57.8708 409.2032)" class="st0" cx="190.8" cy="235.7" rx="11.2" ry="23.8"/>
	<path class="st3" d="M187.1,339.6c-1.1,1.4,1.3,6.3,3.8,5c2.5-1.3,7.5-6.3,10-5c2.5,1.3,1.3,3.8,12.5,7.5c11.3,3.8,13.8,3.8,25,3.8
		s18.8,1.3,25-1.3c6.3-2.5,15-7.5,22.5-8.8c7.5-1.3,10,0,11.3,2.5c1.3,2.5,6.3,3.8,6.3,1.3c0-2.5,1.3-6.3-2.5-8.8
		c-3.8-2.5-8.8-3.8-11.3-1.3c-2.5,2.5-7.5,10-27.5,8.8c0,0-5,0-7.5,2.5c-2.5,2.5-6.3,2.5-8.8,1.3c-2.5-1.3-7.5-3.8-7.5-3.8
		s-3.8,0-5,1.3c-1.3,1.3-10,6.3-17.5,1.3c-7.5-5-13.8-8.8-13.8-10S193.4,332.1,187.1,339.6z"/>
	<path class="st3" d="M225.9,357.2c0,0,7.5,5,16.3,6.3c8.8,1.3,18.8-2.5,18.8-2.5s0,2.5-6.3,5C248.5,368.4,241,367.2,225.9,357.2z"
		/>
	<path class="st6" d="M162.1,230.7c0,0,8.8-11.3,33.8-5s27.5,13.8,27.5,13.8"/>
	
		<ellipse transform="matrix(0.9981 -6.087120e-02 6.087120e-02 0.9981 -13.8252 18.5041)" class="st3" cx="296.8" cy="236.2" rx="28.6" ry="10.8"/>
	
		<ellipse transform="matrix(0.9974 -7.142495e-02 7.142495e-02 0.9974 -16.0699 21.9608)" class="st0" cx="299" cy="235.7" rx="23.8" ry="11.2"/>
	<path class="st6" d="M327.8,230.7c0,0-8.8-11.3-33.8-5s-27.5,13.8-27.5,13.8"/>
	<path class="st3" d="M226.4,314.2c0,0,6.7,9.2,20.9,9.2c17.9,0,21.3-10.4,21.3-10.4l0.3,1.4c0,0-1.6,7.4-10.3,10.3
		c-8.8,2.9-14.2,2.2-20,0.9C232.6,324.3,220.1,315,226.4,314.2z"/>
	<path class="st3" d="M226.4,314.2c0,0-1.3-1-3.1-0.8c-1.9,0.2-1.9,0.2-1.9,0.2l-0.6,1.3c0,0,2.5-0.2,5.4,2.7s2.9,2.9,2.9,2.9
		L226.4,314.2z"/>
	<path class="st3" d="M268,313.9c0,0,0.8-1.8,2.2-2.4s2.2-0.1,2.2-0.1s-0.3,0.5-0.9,0.9s-1.9,0.5-3.1,3c-1.3,2.5-2,2-2,2L268,313.9z
		"/>
	<path class="st3" d="M215.7,300c0,0-3,5.8-2,12.8c0.5,3.8,2,6.2,6,6.5c2.6,0.2,6.6-1.8,6.6-1.8l-0.9-1.1c0,0-2.5,1.4-4.7,1.3
		c-2.2-0.1-3.8-1.2-4.4-2.2c-0.9-1.5-1.4-4.4-1.3-8.3C214.9,305.1,215.7,300,215.7,300z"/>
	<path class="st3" d="M276.7,300c0,0,2.9,5.8,2,12.8c-0.5,3.8-1.9,6.2-5.7,6.5c-2.5,0.2-6.3-1.8-6.3-1.8l0.8-1.1
		c0,0,2.4,1.4,4.5,1.3c2.1-0.1,3.7-1.2,4.3-2.2c0.8-1.5,1.3-4.4,1.2-8.3C277.4,305.1,276.7,300,276.7,300z"/>
	
		<ellipse transform="matrix(4.237978e-02 -0.9991 0.9991 4.237978e-02 -49.546 548.1127)" class="st7" cx="261.2" cy="299.9" rx="6.4" ry="2.7"/>
	<path class="st2" d="M90.1,392.9c0,0,1.7,29.1,7.5,65.1c5.8,36,6.7,43,6.7,43l15-1.2C119.3,499.9,110.2,495.2,90.1,392.9z"/>
	<path class="st2" d="M349.9,494.8c0,0,20.6-10,42.7-56.3s22.2-46.3,22.2-46.3s-14.2,64.5-31.7,89s-17.4,24.5-17.4,24.5L349.9,494.8
		z"/>
	<path class="st5" d="M349.6,210.2c0,0,2.9-2.7,5.3-3.4c2.4-0.6,2.9-0.4,3.4-0.5s1.6,0.2,2.9,0.8c1.3,0.5,1.4,1.5,1.4,1.5
		s0.1,2-1.4,4.4s-4,4.7-5.2,6.8s-2.7,4.1-2.7,4.1S350.3,219.8,349.6,210.2z"/>
	<path class="st5" d="M129.1,200.9c0,0-1.4,0.8,0.3,2.7c1.7,1.9,2.6,1.5,4.7,3.7c2.1,2.2,3.9,3.8,3.9,3.8s1.4-2.2,2.2-3
		c0.8-0.8,1.3-1.9,1.3-1.9s-1.1-4.1-3.8-5.1C135.1,200,131,199.1,129.1,200.9z"/>
</g>
</svg>
